%TF.GenerationSoftware,KiCad,Pcbnew,(6.0.5)*%
%TF.CreationDate,2022-10-31T14:54:04+01:00*%
%TF.ProjectId,Zeichenmaschine,5a656963-6865-46e6-9d61-736368696e65,rev?*%
%TF.SameCoordinates,Original*%
%TF.FileFunction,Soldermask,Bot*%
%TF.FilePolarity,Negative*%
%FSLAX46Y46*%
G04 Gerber Fmt 4.6, Leading zero omitted, Abs format (unit mm)*
G04 Created by KiCad (PCBNEW (6.0.5)) date 2022-10-31 14:54:04*
%MOMM*%
%LPD*%
G01*
G04 APERTURE LIST*
G04 Aperture macros list*
%AMRoundRect*
0 Rectangle with rounded corners*
0 $1 Rounding radius*
0 $2 $3 $4 $5 $6 $7 $8 $9 X,Y pos of 4 corners*
0 Add a 4 corners polygon primitive as box body*
4,1,4,$2,$3,$4,$5,$6,$7,$8,$9,$2,$3,0*
0 Add four circle primitives for the rounded corners*
1,1,$1+$1,$2,$3*
1,1,$1+$1,$4,$5*
1,1,$1+$1,$6,$7*
1,1,$1+$1,$8,$9*
0 Add four rect primitives between the rounded corners*
20,1,$1+$1,$2,$3,$4,$5,0*
20,1,$1+$1,$4,$5,$6,$7,0*
20,1,$1+$1,$6,$7,$8,$9,0*
20,1,$1+$1,$8,$9,$2,$3,0*%
G04 Aperture macros list end*
%ADD10O,1.600000X1.600000*%
%ADD11R,1.600000X1.600000*%
%ADD12R,1.200000X1.200000*%
%ADD13C,1.200000*%
%ADD14C,1.600000*%
%ADD15RoundRect,0.250000X0.600000X0.725000X-0.600000X0.725000X-0.600000X-0.725000X0.600000X-0.725000X0*%
%ADD16O,1.700000X1.950000*%
%ADD17R,1.700000X1.700000*%
%ADD18O,1.700000X1.700000*%
%ADD19R,1.800000X1.800000*%
%ADD20C,1.800000*%
%ADD21R,2.500000X1.500000*%
%ADD22O,2.500000X1.500000*%
%ADD23RoundRect,0.300000X-0.700000X0.300000X-0.700000X-0.300000X0.700000X-0.300000X0.700000X0.300000X0*%
%ADD24O,2.000000X1.200000*%
%ADD25RoundRect,0.250000X-0.725000X0.600000X-0.725000X-0.600000X0.725000X-0.600000X0.725000X0.600000X0*%
%ADD26O,1.950000X1.700000*%
%ADD27C,1.400000*%
%ADD28O,1.400000X1.400000*%
%ADD29RoundRect,0.250000X-0.600000X-0.725000X0.600000X-0.725000X0.600000X0.725000X-0.600000X0.725000X0*%
%ADD30C,5.700000*%
%ADD31R,2.600000X2.600000*%
%ADD32C,2.600000*%
%ADD33RoundRect,0.250000X-0.750000X0.600000X-0.750000X-0.600000X0.750000X-0.600000X0.750000X0.600000X0*%
%ADD34O,2.000000X1.700000*%
G04 APERTURE END LIST*
D10*
%TO.C,A2*%
X191780000Y-95250000D03*
X191780000Y-97790000D03*
X191780000Y-100330000D03*
X191780000Y-102870000D03*
X191780000Y-105410000D03*
X191780000Y-107950000D03*
X191780000Y-110490000D03*
X191780000Y-113030000D03*
X179080000Y-113030000D03*
X179080000Y-110490000D03*
X179080000Y-107950000D03*
X179080000Y-105410000D03*
X179080000Y-102870000D03*
X179080000Y-100330000D03*
X179080000Y-97790000D03*
D11*
X179080000Y-95250000D03*
%TD*%
D12*
%TO.C,C4*%
X214700000Y-63500000D03*
D13*
X213200000Y-63500000D03*
%TD*%
D11*
%TO.C,C3*%
X144780000Y-88900000D03*
D14*
X146780000Y-88900000D03*
%TD*%
D15*
%TO.C,J9*%
X163730000Y-33320000D03*
D16*
X161230000Y-33320000D03*
X158730000Y-33320000D03*
X156230000Y-33320000D03*
X153730000Y-33320000D03*
X151230000Y-33320000D03*
%TD*%
D17*
%TO.C,J7*%
X172720000Y-109220000D03*
D18*
X170180000Y-109220000D03*
X172720000Y-106680000D03*
X170180000Y-106680000D03*
X172720000Y-104140000D03*
X170180000Y-104140000D03*
%TD*%
D13*
%TO.C,C6*%
X203200000Y-38640000D03*
D12*
X203200000Y-40640000D03*
%TD*%
D15*
%TO.C,J11*%
X203200000Y-33320000D03*
D16*
X200700000Y-33320000D03*
X198200000Y-33320000D03*
X195700000Y-33320000D03*
%TD*%
D19*
%TO.C,D1*%
X210820000Y-86360000D03*
D20*
X210820000Y-83820000D03*
%TD*%
D21*
%TO.C,U1*%
X210820000Y-106680000D03*
D22*
X210820000Y-104140000D03*
X210820000Y-101600000D03*
%TD*%
D23*
%TO.C,U4*%
X193040000Y-38516560D03*
D24*
X193040000Y-41056560D03*
X193040000Y-43596560D03*
X193040000Y-46136560D03*
X193040000Y-48676560D03*
X193040000Y-51216560D03*
X193040000Y-53756560D03*
X193040000Y-56296560D03*
X193040000Y-58836560D03*
X193040000Y-61376560D03*
X193040000Y-63916560D03*
X193040000Y-66456560D03*
X193040000Y-68996560D03*
X193040000Y-71536560D03*
X193040000Y-74076560D03*
X193040000Y-76616560D03*
X193040000Y-79156560D03*
X193036320Y-81693840D03*
X193036320Y-84233840D03*
X167640000Y-84236560D03*
X167640000Y-81696560D03*
X167640000Y-79156560D03*
X167640000Y-76616560D03*
X167640000Y-74076560D03*
D23*
X167640000Y-71536560D03*
D24*
X167640000Y-68996560D03*
X167640000Y-66456560D03*
X167640000Y-63916560D03*
X167640000Y-61376560D03*
X167640000Y-58836560D03*
X167640000Y-56296560D03*
X167640000Y-53756560D03*
X167640000Y-51216560D03*
X167640000Y-48676560D03*
X167640000Y-46136560D03*
X167640000Y-43596560D03*
X167640000Y-41056560D03*
X167640000Y-38516560D03*
%TD*%
D25*
%TO.C,J13*%
X140250000Y-68500000D03*
D26*
X140250000Y-71000000D03*
X140250000Y-73500000D03*
X140250000Y-76000000D03*
X140250000Y-78500000D03*
%TD*%
D11*
%TO.C,C1*%
X160020000Y-50800000D03*
D14*
X160020000Y-48800000D03*
%TD*%
D19*
%TO.C,D4*%
X210820000Y-71120000D03*
D20*
X210820000Y-68580000D03*
%TD*%
D27*
%TO.C,R3*%
X207010000Y-73660000D03*
D28*
X199390000Y-73660000D03*
%TD*%
D17*
%TO.C,J6*%
X198120000Y-109220000D03*
D18*
X195580000Y-109220000D03*
X198120000Y-106680000D03*
X195580000Y-106680000D03*
X198120000Y-104140000D03*
X195580000Y-104140000D03*
%TD*%
D16*
%TO.C,J3*%
X190420000Y-121920000D03*
X187920000Y-121920000D03*
X185420000Y-121920000D03*
D29*
X182920000Y-121920000D03*
%TD*%
D12*
%TO.C,C5*%
X203200000Y-63500000D03*
D13*
X201700000Y-63500000D03*
%TD*%
D27*
%TO.C,R4*%
X207010000Y-68580000D03*
D28*
X199390000Y-68580000D03*
%TD*%
D11*
%TO.C,C2*%
X149860000Y-50800000D03*
D14*
X149860000Y-48800000D03*
%TD*%
D29*
%TO.C,J2*%
X152440000Y-121920000D03*
D16*
X154940000Y-121920000D03*
X157440000Y-121920000D03*
X159940000Y-121920000D03*
%TD*%
D25*
%TO.C,J1*%
X140250000Y-50880000D03*
D26*
X140250000Y-53380000D03*
X140250000Y-55880000D03*
X140250000Y-58380000D03*
X140250000Y-60880000D03*
%TD*%
D30*
%TO.C,H2*%
X211000000Y-117000000D03*
%TD*%
D19*
%TO.C,D3*%
X210820000Y-76200000D03*
D20*
X210820000Y-73660000D03*
%TD*%
D31*
%TO.C,J4*%
X198120000Y-119380000D03*
D32*
X203200000Y-119380000D03*
%TD*%
D30*
%TO.C,H4*%
X145000000Y-38000000D03*
%TD*%
D29*
%TO.C,J5*%
X167680000Y-121920000D03*
D16*
X170180000Y-121920000D03*
X172680000Y-121920000D03*
X175180000Y-121920000D03*
%TD*%
D27*
%TO.C,R2*%
X199390000Y-91440000D03*
D28*
X207010000Y-91440000D03*
%TD*%
D27*
%TO.C,R1*%
X199390000Y-83820000D03*
D28*
X207010000Y-83820000D03*
%TD*%
D17*
%TO.C,J12*%
X190500000Y-88900000D03*
D18*
X193040000Y-88900000D03*
%TD*%
D17*
%TO.C,J10*%
X167640000Y-88900000D03*
D18*
X170180000Y-88900000D03*
%TD*%
D11*
%TO.C,A1*%
X153680000Y-95250000D03*
D10*
X153680000Y-97790000D03*
X153680000Y-100330000D03*
X153680000Y-102870000D03*
X153680000Y-105410000D03*
X153680000Y-107950000D03*
X153680000Y-110490000D03*
X153680000Y-113030000D03*
X166380000Y-113030000D03*
X166380000Y-110490000D03*
X166380000Y-107950000D03*
X166380000Y-105410000D03*
X166380000Y-102870000D03*
X166380000Y-100330000D03*
X166380000Y-97790000D03*
X166380000Y-95250000D03*
%TD*%
D30*
%TO.C,H3*%
X145000000Y-117000000D03*
%TD*%
D33*
%TO.C,J8*%
X140250000Y-101600000D03*
D34*
X140250000Y-104100000D03*
%TD*%
D19*
%TO.C,D2*%
X210820000Y-93980000D03*
D20*
X210820000Y-91440000D03*
%TD*%
D11*
%TO.C,U2*%
X151140000Y-59705000D03*
D10*
X151140000Y-62245000D03*
X151140000Y-64785000D03*
X151140000Y-67325000D03*
X151140000Y-69865000D03*
X151140000Y-72405000D03*
X151140000Y-74945000D03*
X151140000Y-77485000D03*
X158760000Y-77485000D03*
X158760000Y-74945000D03*
X158760000Y-72405000D03*
X158760000Y-69865000D03*
X158760000Y-67325000D03*
X158760000Y-64785000D03*
X158760000Y-62245000D03*
X158760000Y-59705000D03*
%TD*%
D30*
%TO.C,H1*%
X211000000Y-38000000D03*
%TD*%
M02*
