M48
; DRILL file {KiCad (6.0.5)} date Tue Jan 24 10:13:01 2023
; FORMAT={-:-/ absolute / inch / decimal}
; #@! TF.CreationDate,2023-01-24T10:13:01+01:00
; #@! TF.GenerationSoftware,Kicad,Pcbnew,(6.0.5)
; #@! TF.FileFunction,Plated,1,2,PTH
FMAT,2
INCH
; #@! TA.AperFunction,Plated,PTH,ViaDrill
T1C0.0157
; #@! TA.AperFunction,Plated,PTH,ComponentDrill
T2C0.0236
; #@! TA.AperFunction,Plated,PTH,ComponentDrill
T3C0.0276
; #@! TA.AperFunction,Plated,PTH,ComponentDrill
T4C0.0315
; #@! TA.AperFunction,Plated,PTH,ComponentDrill
T5C0.0354
; #@! TA.AperFunction,Plated,PTH,ComponentDrill
T6C0.0374
; #@! TA.AperFunction,Plated,PTH,ComponentDrill
T7C0.0394
; #@! TA.AperFunction,Plated,PTH,ComponentDrill
T8C0.0433
; #@! TA.AperFunction,Plated,PTH,ComponentDrill
T9C0.0512
; #@! TA.AperFunction,Plated,PTH,ComponentDrill
T10C0.1260
%
G90
G05
T1
X4.9291Y-4.1772
X4.9488Y-3.8504
X4.9646Y-5.4134
X5.0039Y-3.748
X5.0039Y-5.2441
X5.0433Y-3.1772
X5.0787Y-3.8425
X5.1378Y-3.5709
X5.1417Y-3.2795
X5.1811Y-2.437
X5.1811Y-4.4213
X5.185Y-2.5984
X5.189Y-5.0354
X5.2087Y-3.0591
X5.2126Y-4.6024
X5.2283Y-3.1457
X5.2362Y-2.0551
X5.252Y-2.8307
X5.2913Y-4.1181
X5.2913Y-5.0354
X5.3661Y-2.3543
X5.378Y-3.437
X5.3819Y-4.752
X5.3858Y-5.0394
X5.3976Y-4.563
X5.4134Y-3.7323
X5.4291Y-2.7165
X5.5118Y-2.4764
X5.5236Y-2.7047
X5.5433Y-3.3504
X5.5433Y-3.9055
X5.563Y-2.8386
X5.563Y-2.9921
X5.5669Y-2.937
X5.6181Y-3.6693
X5.6181Y-4.9055
X5.626Y-4.8228
X5.6417Y-5.3583
X5.7047Y-3.063
X5.7283Y-2.9094
X5.7441Y-2.9567
X5.8031Y-3.8543
X5.815Y-4.3031
X5.8268Y-4.4882
X5.9055Y-2.0591
X5.9567Y-4.3189
X6.0Y-2.1654
X6.0709Y-4.5866
X6.0787Y-2.9016
X6.0787Y-4.748
X6.0945Y-4.185
X6.1142Y-3.3425
X6.1142Y-5.3622
X6.1339Y-5.2441
X6.2362Y-3.9843
X6.248Y-2.4094
X6.248Y-3.7559
X6.2835Y-3.1811
X6.2874Y-2.6693
X6.3386Y-4.3701
X6.3622Y-5.0512
X6.3858Y-4.5866
X6.4606Y-5.0551
X6.4961Y-4.4685
X6.5591Y-4.6654
X6.5591Y-5.0551
X6.5827Y-2.6811
X6.6024Y-2.937
X6.6102Y-3.4331
X6.6181Y-2.4213
X6.7087Y-4.1772
X6.7165Y-3.1929
X6.7283Y-3.9488
X6.748Y-3.7756
X6.7913Y-4.8189
X6.7913Y-4.9213
X6.8031Y-4.0551
X6.8071Y-5.3583
X6.8268Y-2.0236
X6.8425Y-2.8937
X6.8701Y-4.8189
X6.8701Y-4.9213
X6.9016Y-4.5
X6.9213Y-2.185
X6.9488Y-4.622
X7.0394Y-3.2756
X7.063Y-2.2283
X7.063Y-4.5906
X7.122Y-3.7953
X7.1575Y-2.248
X7.248Y-5.2362
X7.2559Y-5.3937
X7.2677Y-3.4764
X7.3071Y-3.7047
X7.3346Y-3.8701
X7.3465Y-3.0236
X7.4016Y-4.5236
X7.4528Y-2.3268
X7.4606Y-3.1732
X7.4764Y-4.0
X7.4764Y-5.1929
X7.4803Y-4.5984
X7.4882Y-3.3976
X7.5236Y-3.0945
X7.563Y-3.7953
X7.5748Y-2.6575
X7.5787Y-5.0591
X7.6417Y-2.5236
X7.6654Y-2.0236
X7.6772Y-5.0551
X7.7047Y-4.3976
X7.7795Y-3.5276
X7.8031Y-3.3189
X7.8858Y-2.4646
X7.8898Y-3.6811
X7.8976Y-3.1024
T2
X5.009Y-4.1142
X5.0877Y-4.1142
X5.444Y-4.1181
X5.503Y-4.1181
X5.629Y-2.3819
X5.6881Y-2.3819
T3
X5.4248Y-3.3346
X5.4248Y-3.6339
X5.7248Y-3.3346
X5.7248Y-3.6339
X7.1256Y-2.7638
X7.1256Y-2.9134
X7.4256Y-2.7638
X7.4256Y-2.9134
T4
X5.0299Y-4.3665
X5.0299Y-4.4665
X5.0299Y-4.5665
X5.0299Y-4.6665
X5.0299Y-4.7665
X5.0299Y-4.8665
X5.0299Y-4.9665
X5.0299Y-5.0665
X5.2756Y-3.8898
X5.3543Y-3.8898
X5.5299Y-4.3665
X5.5299Y-4.4665
X5.5299Y-4.5665
X5.5299Y-4.6665
X5.5299Y-4.7665
X5.5299Y-4.8665
X5.5299Y-4.9665
X5.5299Y-5.0665
X5.9291Y-2.2951
X5.9291Y-2.3951
X5.9291Y-2.4951
X5.9291Y-2.5951
X5.9291Y-2.6951
X5.9291Y-2.7951
X5.9291Y-2.8951
X5.9291Y-2.9951
X5.9291Y-3.0951
X5.9291Y-3.1951
X5.9291Y-3.2951
X5.9291Y-3.3951
X5.9291Y-3.4951
X5.9291Y-3.5951
X5.9291Y-3.6951
X5.9291Y-3.7951
X5.9291Y-3.8951
X5.9291Y-3.9951
X5.9291Y-4.0951
X6.2031Y-4.3705
X6.2031Y-4.4705
X6.2031Y-4.5705
X6.2031Y-4.6705
X6.2031Y-4.7705
X6.2031Y-4.8705
X6.2031Y-4.9705
X6.2031Y-5.0705
X6.7031Y-4.3705
X6.7031Y-4.4705
X6.7031Y-4.5705
X6.7031Y-4.6705
X6.7031Y-4.7705
X6.7031Y-4.8705
X6.7031Y-4.9705
X6.7031Y-5.0705
X6.929Y-3.995
X6.929Y-4.095
X6.9291Y-2.2951
X6.9291Y-2.3951
X6.9291Y-2.4951
X6.9291Y-2.5951
X6.9291Y-2.6951
X6.9291Y-2.7951
X6.9291Y-2.8951
X6.9291Y-2.9951
X6.9291Y-3.0951
X6.9291Y-3.1951
X6.9291Y-3.2951
X6.9291Y-3.3951
X6.9291Y-3.4951
X6.9291Y-3.5951
X6.9291Y-3.6951
X6.9291Y-3.7951
X6.9291Y-3.8951
X7.2734Y-2.4685
X7.3173Y-4.3665
X7.3173Y-4.4665
X7.3173Y-4.5665
X7.3173Y-4.6665
X7.3173Y-4.7665
X7.3173Y-4.8665
X7.3173Y-4.9665
X7.3173Y-5.0665
X7.3522Y-2.4685
X7.8173Y-4.3665
X7.8173Y-4.4665
X7.8173Y-4.5665
X7.8173Y-4.6665
X7.8173Y-4.7665
X7.8173Y-4.8665
X7.8173Y-4.9665
X7.8173Y-5.0665
T5
X5.2333Y-3.2343
X5.2333Y-3.3343
X5.2333Y-3.5335
X5.2333Y-3.6335
X7.625Y-3.1815
X7.625Y-3.2815
X7.625Y-3.4768
X7.625Y-3.5768
T6
X5.0433Y-2.5748
X5.0433Y-2.6732
X5.0433Y-2.7717
X5.0433Y-2.8701
X5.0433Y-2.9685
X5.1398Y-5.3898
X5.2382Y-5.3898
X5.3366Y-5.3898
X5.4154Y-2.1142
X5.435Y-5.3898
X5.5138Y-2.1142
X5.6122Y-2.1142
X5.7106Y-2.1142
X6.313Y-5.3858
X6.4114Y-5.3858
X6.5098Y-5.3858
X6.6083Y-5.3858
X7.0236Y-2.1181
X7.122Y-2.1181
X7.2205Y-2.1181
X7.3189Y-2.1181
X7.4173Y-2.1181
X7.4272Y-5.3701
X7.5157Y-2.1181
X7.5256Y-5.3701
X7.624Y-5.3701
X7.7224Y-5.3701
X7.7795Y-2.624
X7.7795Y-2.7224
X7.7795Y-2.8209
X7.7795Y-2.9193
T7
X5.7244Y-3.9787
X5.7244Y-4.0787
X5.8203Y-4.7689
X5.8203Y-4.8689
X5.8203Y-4.9689
X5.9203Y-4.7689
X5.9203Y-4.8689
X5.9203Y-4.9689
X6.9537Y-4.2598
X6.962Y-4.7695
X6.962Y-4.8695
X6.962Y-4.9695
X7.0537Y-4.2598
X7.062Y-4.7695
X7.062Y-4.8695
X7.062Y-4.9695
X7.1368Y-3.9699
X7.1368Y-4.0699
X7.2368Y-3.9699
X7.2368Y-4.0699
X7.3261Y-3.1832
X7.3261Y-3.2832
X7.3261Y-3.3832
X7.3368Y-3.9699
X7.3368Y-4.0699
T8
X7.1177Y-3.7008
X7.4177Y-3.7008
T9
X7.7008Y-3.9024
X7.7008Y-4.1024
T10
X5.0512Y-2.126
X5.878Y-5.3543
X7.0197Y-5.3543
X7.8071Y-2.126
T0
M30
