%TF.GenerationSoftware,KiCad,Pcbnew,(6.0.5)*%
%TF.CreationDate,2023-01-24T10:12:54+01:00*%
%TF.ProjectId,Zeichenmaschine,5a656963-6865-46e6-9d61-736368696e65,rev?*%
%TF.SameCoordinates,Original*%
%TF.FileFunction,Soldermask,Top*%
%TF.FilePolarity,Negative*%
%FSLAX46Y46*%
G04 Gerber Fmt 4.6, Leading zero omitted, Abs format (unit mm)*
G04 Created by KiCad (PCBNEW (6.0.5)) date 2023-01-24 10:12:54*
%MOMM*%
%LPD*%
G01*
G04 APERTURE LIST*
G04 Aperture macros list*
%AMRoundRect*
0 Rectangle with rounded corners*
0 $1 Rounding radius*
0 $2 $3 $4 $5 $6 $7 $8 $9 X,Y pos of 4 corners*
0 Add a 4 corners polygon primitive as box body*
4,1,4,$2,$3,$4,$5,$6,$7,$8,$9,$2,$3,0*
0 Add four circle primitives for the rounded corners*
1,1,$1+$1,$2,$3*
1,1,$1+$1,$4,$5*
1,1,$1+$1,$6,$7*
1,1,$1+$1,$8,$9*
0 Add four rect primitives between the rounded corners*
20,1,$1+$1,$2,$3,$4,$5,0*
20,1,$1+$1,$4,$5,$6,$7,0*
20,1,$1+$1,$6,$7,$8,$9,0*
20,1,$1+$1,$8,$9,$2,$3,0*%
G04 Aperture macros list end*
%ADD10R,1.700000X1.700000*%
%ADD11O,1.700000X1.700000*%
%ADD12R,1.200000X1.200000*%
%ADD13C,1.200000*%
%ADD14C,5.700000*%
%ADD15RoundRect,0.250000X-0.600000X-0.725000X0.600000X-0.725000X0.600000X0.725000X-0.600000X0.725000X0*%
%ADD16O,1.700000X1.950000*%
%ADD17C,1.400000*%
%ADD18O,1.400000X1.400000*%
%ADD19R,2.500000X1.500000*%
%ADD20O,2.500000X1.500000*%
%ADD21R,1.600000X1.600000*%
%ADD22O,1.600000X1.600000*%
%ADD23RoundRect,0.250000X-0.725000X0.600000X-0.725000X-0.600000X0.725000X-0.600000X0.725000X0.600000X0*%
%ADD24O,1.950000X1.700000*%
%ADD25RoundRect,0.250000X0.600000X0.725000X-0.600000X0.725000X-0.600000X-0.725000X0.600000X-0.725000X0*%
%ADD26O,2.000000X1.200000*%
%ADD27RoundRect,0.300000X-0.700000X0.300000X-0.700000X-0.300000X0.700000X-0.300000X0.700000X0.300000X0*%
%ADD28R,1.800000X1.800000*%
%ADD29C,1.800000*%
%ADD30R,2.200000X2.200000*%
%ADD31O,2.200000X2.200000*%
%ADD32C,1.600000*%
%ADD33R,1.750000X0.450000*%
%ADD34RoundRect,0.250000X0.725000X-0.600000X0.725000X0.600000X-0.725000X0.600000X-0.725000X-0.600000X0*%
%ADD35R,2.600000X2.600000*%
%ADD36C,2.600000*%
G04 APERTURE END LIST*
D10*
%TO.C,J14*%
X150375000Y-126210000D03*
D11*
X147835000Y-126210000D03*
X150375000Y-123670000D03*
X147835000Y-123670000D03*
X150375000Y-121130000D03*
X147835000Y-121130000D03*
%TD*%
D10*
%TO.C,J12*%
X176625000Y-108200000D03*
D11*
X179165000Y-108200000D03*
%TD*%
D12*
%TO.C,C5*%
X142977401Y-60500000D03*
D13*
X144477401Y-60500000D03*
%TD*%
D14*
%TO.C,H4*%
X198300000Y-54000000D03*
%TD*%
D10*
%TO.C,J6*%
X179375000Y-126225000D03*
D11*
X176835000Y-126225000D03*
X179375000Y-123685000D03*
X176835000Y-123685000D03*
X179375000Y-121145000D03*
X176835000Y-121145000D03*
%TD*%
D15*
%TO.C,J3*%
X160350000Y-136800000D03*
D16*
X162850000Y-136800000D03*
X165350000Y-136800000D03*
X167850000Y-136800000D03*
%TD*%
D17*
%TO.C,R3*%
X137790000Y-84700000D03*
D18*
X145410000Y-84700000D03*
%TD*%
D17*
%TO.C,R2*%
X180990000Y-74000000D03*
D18*
X188610000Y-74000000D03*
%TD*%
D14*
%TO.C,H1*%
X149300000Y-136000000D03*
%TD*%
%TO.C,H2*%
X178300000Y-136000000D03*
%TD*%
D19*
%TO.C,U1*%
X186082500Y-85932500D03*
D20*
X186082500Y-83392500D03*
X186082500Y-80852500D03*
%TD*%
D10*
%TO.C,J10*%
X145400000Y-103600000D03*
D11*
X145400000Y-101060000D03*
%TD*%
D21*
%TO.C,A2*%
X157560000Y-111010000D03*
D22*
X157560000Y-113550000D03*
X157560000Y-116090000D03*
X157560000Y-118630000D03*
X157560000Y-121170000D03*
X157560000Y-123710000D03*
X157560000Y-126250000D03*
X157560000Y-128790000D03*
X170260000Y-128790000D03*
X170260000Y-126250000D03*
X170260000Y-123710000D03*
X170260000Y-121170000D03*
X170260000Y-118630000D03*
X170260000Y-116090000D03*
X170260000Y-113550000D03*
X170260000Y-111010000D03*
%TD*%
D23*
%TO.C,J1*%
X128100000Y-65400000D03*
D24*
X128100000Y-67900000D03*
X128100000Y-70400000D03*
X128100000Y-72900000D03*
X128100000Y-75400000D03*
%TD*%
D21*
%TO.C,A3*%
X127760000Y-110910000D03*
D22*
X127760000Y-113450000D03*
X127760000Y-115990000D03*
X127760000Y-118530000D03*
X127760000Y-121070000D03*
X127760000Y-123610000D03*
X127760000Y-126150000D03*
X127760000Y-128690000D03*
X140460000Y-128690000D03*
X140460000Y-126150000D03*
X140460000Y-123610000D03*
X140460000Y-121070000D03*
X140460000Y-118530000D03*
X140460000Y-115990000D03*
X140460000Y-113450000D03*
X140460000Y-110910000D03*
%TD*%
D25*
%TO.C,J11*%
X145050000Y-53700000D03*
D16*
X142550000Y-53700000D03*
X140050000Y-53700000D03*
X137550000Y-53700000D03*
%TD*%
D26*
%TO.C,U4*%
X150600000Y-58296560D03*
X150600000Y-60836560D03*
X150600000Y-63376560D03*
X150600000Y-65916560D03*
X150600000Y-68456560D03*
X150600000Y-70996560D03*
X150600000Y-73536560D03*
X150600000Y-76076560D03*
X150600000Y-78616560D03*
X150600000Y-81156560D03*
X150600000Y-83696560D03*
X150600000Y-86236560D03*
X150600000Y-88776560D03*
D27*
X150600000Y-91316560D03*
D26*
X150600000Y-93856560D03*
X150600000Y-96396560D03*
X150600000Y-98936560D03*
X150600000Y-101476560D03*
X150600000Y-104016560D03*
X175996320Y-104013840D03*
X175996320Y-101473840D03*
X176000000Y-98936560D03*
X176000000Y-96396560D03*
X176000000Y-93856560D03*
X176000000Y-91316560D03*
X176000000Y-88776560D03*
X176000000Y-86236560D03*
X176000000Y-83696560D03*
X176000000Y-81156560D03*
X176000000Y-78616560D03*
X176000000Y-76076560D03*
X176000000Y-73536560D03*
X176000000Y-70996560D03*
X176000000Y-68456560D03*
X176000000Y-65916560D03*
X176000000Y-63376560D03*
X176000000Y-60836560D03*
D27*
X176000000Y-58296560D03*
%TD*%
D17*
%TO.C,R1*%
X180990000Y-70200000D03*
D18*
X188610000Y-70200000D03*
%TD*%
D14*
%TO.C,H3*%
X128300000Y-54000000D03*
%TD*%
D10*
%TO.C,J7*%
X181275000Y-103375000D03*
D11*
X181275000Y-100835000D03*
X183815000Y-103375000D03*
X183815000Y-100835000D03*
X186355000Y-103375000D03*
X186355000Y-100835000D03*
%TD*%
D21*
%TO.C,A1*%
X185860000Y-110910000D03*
D22*
X185860000Y-113450000D03*
X185860000Y-115990000D03*
X185860000Y-118530000D03*
X185860000Y-121070000D03*
X185860000Y-123610000D03*
X185860000Y-126150000D03*
X185860000Y-128690000D03*
X198560000Y-128690000D03*
X198560000Y-126150000D03*
X198560000Y-123610000D03*
X198560000Y-121070000D03*
X198560000Y-118530000D03*
X198560000Y-115990000D03*
X198560000Y-113450000D03*
X198560000Y-110910000D03*
%TD*%
D25*
%TO.C,J9*%
X190900000Y-53800000D03*
D16*
X188400000Y-53800000D03*
X185900000Y-53800000D03*
X183400000Y-53800000D03*
X180900000Y-53800000D03*
X178400000Y-53800000D03*
%TD*%
D28*
%TO.C,D2*%
X193675000Y-90850000D03*
D29*
X193675000Y-88310000D03*
%TD*%
D28*
%TO.C,D1*%
X193675000Y-83350000D03*
D29*
X193675000Y-80810000D03*
%TD*%
D30*
%TO.C,D5*%
X188410000Y-94000000D03*
D31*
X180790000Y-94000000D03*
%TD*%
D15*
%TO.C,J15*%
X130550000Y-136900000D03*
D16*
X133050000Y-136900000D03*
X135550000Y-136900000D03*
X138050000Y-136900000D03*
%TD*%
D17*
%TO.C,R4*%
X137790000Y-92300000D03*
D18*
X145410000Y-92300000D03*
%TD*%
D21*
%TO.C,C1*%
X184744888Y-62700000D03*
D32*
X186744888Y-62700000D03*
%TD*%
D12*
%TO.C,C6*%
X127227401Y-104500000D03*
D13*
X129227401Y-104500000D03*
%TD*%
D33*
%TO.C,U3*%
X135900000Y-66875000D03*
X135900000Y-67525000D03*
X135900000Y-68175000D03*
X135900000Y-68825000D03*
X135900000Y-69475000D03*
X135900000Y-70125000D03*
X135900000Y-70775000D03*
X135900000Y-71425000D03*
X135900000Y-72075000D03*
X135900000Y-72725000D03*
X135900000Y-73375000D03*
X135900000Y-74025000D03*
X135900000Y-74675000D03*
X135900000Y-75325000D03*
X143100000Y-75325000D03*
X143100000Y-74675000D03*
X143100000Y-74025000D03*
X143100000Y-73375000D03*
X143100000Y-72725000D03*
X143100000Y-72075000D03*
X143100000Y-71425000D03*
X143100000Y-70775000D03*
X143100000Y-70125000D03*
X143100000Y-69475000D03*
X143100000Y-68825000D03*
X143100000Y-68175000D03*
X143100000Y-67525000D03*
X143100000Y-66875000D03*
%TD*%
D12*
%TO.C,C4*%
X138277401Y-104600000D03*
D13*
X139777401Y-104600000D03*
%TD*%
D15*
%TO.C,J2*%
X188650000Y-136400000D03*
D16*
X191150000Y-136400000D03*
X193650000Y-136400000D03*
X196150000Y-136400000D03*
%TD*%
D34*
%TO.C,J5*%
X197600000Y-74150000D03*
D24*
X197600000Y-71650000D03*
X197600000Y-69150000D03*
X197600000Y-66650000D03*
%TD*%
D28*
%TO.C,D3*%
X132925000Y-82150000D03*
D29*
X132925000Y-84690000D03*
%TD*%
D21*
%TO.C,C2*%
X134000000Y-98800000D03*
D32*
X136000000Y-98800000D03*
%TD*%
D28*
%TO.C,D4*%
X132925000Y-89750000D03*
D29*
X132925000Y-92290000D03*
%TD*%
D35*
%TO.C,J4*%
X195600000Y-104200000D03*
D36*
X195600000Y-99120000D03*
%TD*%
M02*
