%TF.GenerationSoftware,KiCad,Pcbnew,(6.0.5)*%
%TF.CreationDate,2023-01-24T10:12:54+01:00*%
%TF.ProjectId,Zeichenmaschine,5a656963-6865-46e6-9d61-736368696e65,rev?*%
%TF.SameCoordinates,Original*%
%TF.FileFunction,Legend,Top*%
%TF.FilePolarity,Positive*%
%FSLAX46Y46*%
G04 Gerber Fmt 4.6, Leading zero omitted, Abs format (unit mm)*
G04 Created by KiCad (PCBNEW (6.0.5)) date 2023-01-24 10:12:54*
%MOMM*%
%LPD*%
G01*
G04 APERTURE LIST*
%ADD10C,0.150000*%
%ADD11C,0.120000*%
G04 APERTURE END LIST*
D10*
X138319047Y-56252380D02*
X138319047Y-57061904D01*
X138366666Y-57157142D01*
X138414285Y-57204761D01*
X138509523Y-57252380D01*
X138700000Y-57252380D01*
X138795238Y-57204761D01*
X138842857Y-57157142D01*
X138890476Y-57061904D01*
X138890476Y-56252380D01*
X139319047Y-57204761D02*
X139461904Y-57252380D01*
X139700000Y-57252380D01*
X139795238Y-57204761D01*
X139842857Y-57157142D01*
X139890476Y-57061904D01*
X139890476Y-56966666D01*
X139842857Y-56871428D01*
X139795238Y-56823809D01*
X139700000Y-56776190D01*
X139509523Y-56728571D01*
X139414285Y-56680952D01*
X139366666Y-56633333D01*
X139319047Y-56538095D01*
X139319047Y-56442857D01*
X139366666Y-56347619D01*
X139414285Y-56300000D01*
X139509523Y-56252380D01*
X139747619Y-56252380D01*
X139890476Y-56300000D01*
X140652380Y-56728571D02*
X140795238Y-56776190D01*
X140842857Y-56823809D01*
X140890476Y-56919047D01*
X140890476Y-57061904D01*
X140842857Y-57157142D01*
X140795238Y-57204761D01*
X140700000Y-57252380D01*
X140319047Y-57252380D01*
X140319047Y-56252380D01*
X140652380Y-56252380D01*
X140747619Y-56300000D01*
X140795238Y-56347619D01*
X140842857Y-56442857D01*
X140842857Y-56538095D01*
X140795238Y-56633333D01*
X140747619Y-56680952D01*
X140652380Y-56728571D01*
X140319047Y-56728571D01*
X141319047Y-56871428D02*
X142080952Y-56871428D01*
X143128571Y-57157142D02*
X143080952Y-57204761D01*
X142938095Y-57252380D01*
X142842857Y-57252380D01*
X142700000Y-57204761D01*
X142604761Y-57109523D01*
X142557142Y-57014285D01*
X142509523Y-56823809D01*
X142509523Y-56680952D01*
X142557142Y-56490476D01*
X142604761Y-56395238D01*
X142700000Y-56300000D01*
X142842857Y-56252380D01*
X142938095Y-56252380D01*
X143080952Y-56300000D01*
X143128571Y-56347619D01*
X183414285Y-57404761D02*
X183557142Y-57452380D01*
X183795238Y-57452380D01*
X183890476Y-57404761D01*
X183938095Y-57357142D01*
X183985714Y-57261904D01*
X183985714Y-57166666D01*
X183938095Y-57071428D01*
X183890476Y-57023809D01*
X183795238Y-56976190D01*
X183604761Y-56928571D01*
X183509523Y-56880952D01*
X183461904Y-56833333D01*
X183414285Y-56738095D01*
X183414285Y-56642857D01*
X183461904Y-56547619D01*
X183509523Y-56500000D01*
X183604761Y-56452380D01*
X183842857Y-56452380D01*
X183985714Y-56500000D01*
X184414285Y-57452380D02*
X184414285Y-56452380D01*
X184652380Y-56452380D01*
X184795238Y-56500000D01*
X184890476Y-56595238D01*
X184938095Y-56690476D01*
X184985714Y-56880952D01*
X184985714Y-57023809D01*
X184938095Y-57214285D01*
X184890476Y-57309523D01*
X184795238Y-57404761D01*
X184652380Y-57452380D01*
X184414285Y-57452380D01*
X194852380Y-74061904D02*
X194852380Y-74538095D01*
X193852380Y-74538095D01*
X194757142Y-73157142D02*
X194804761Y-73204761D01*
X194852380Y-73347619D01*
X194852380Y-73442857D01*
X194804761Y-73585714D01*
X194709523Y-73680952D01*
X194614285Y-73728571D01*
X194423809Y-73776190D01*
X194280952Y-73776190D01*
X194090476Y-73728571D01*
X193995238Y-73680952D01*
X193900000Y-73585714D01*
X193852380Y-73442857D01*
X193852380Y-73347619D01*
X193900000Y-73204761D01*
X193947619Y-73157142D01*
X194852380Y-72728571D02*
X193852380Y-72728571D01*
X193852380Y-72490476D01*
X193900000Y-72347619D01*
X193995238Y-72252380D01*
X194090476Y-72204761D01*
X194280952Y-72157142D01*
X194423809Y-72157142D01*
X194614285Y-72204761D01*
X194709523Y-72252380D01*
X194804761Y-72347619D01*
X194852380Y-72490476D01*
X194852380Y-72728571D01*
X194852380Y-70966666D02*
X193852380Y-70966666D01*
X193852380Y-70728571D01*
X193900000Y-70585714D01*
X193995238Y-70490476D01*
X194090476Y-70442857D01*
X194280952Y-70395238D01*
X194423809Y-70395238D01*
X194614285Y-70442857D01*
X194709523Y-70490476D01*
X194804761Y-70585714D01*
X194852380Y-70728571D01*
X194852380Y-70966666D01*
X194852380Y-69966666D02*
X194185714Y-69966666D01*
X193852380Y-69966666D02*
X193900000Y-70014285D01*
X193947619Y-69966666D01*
X193900000Y-69919047D01*
X193852380Y-69966666D01*
X193947619Y-69966666D01*
X194804761Y-69538095D02*
X194852380Y-69442857D01*
X194852380Y-69252380D01*
X194804761Y-69157142D01*
X194709523Y-69109523D01*
X194661904Y-69109523D01*
X194566666Y-69157142D01*
X194519047Y-69252380D01*
X194519047Y-69395238D01*
X194471428Y-69490476D01*
X194376190Y-69538095D01*
X194328571Y-69538095D01*
X194233333Y-69490476D01*
X194185714Y-69395238D01*
X194185714Y-69252380D01*
X194233333Y-69157142D01*
X194185714Y-68680952D02*
X195185714Y-68680952D01*
X194233333Y-68680952D02*
X194185714Y-68585714D01*
X194185714Y-68395238D01*
X194233333Y-68300000D01*
X194280952Y-68252380D01*
X194376190Y-68204761D01*
X194661904Y-68204761D01*
X194757142Y-68252380D01*
X194804761Y-68300000D01*
X194852380Y-68395238D01*
X194852380Y-68585714D01*
X194804761Y-68680952D01*
X194852380Y-67633333D02*
X194804761Y-67728571D01*
X194709523Y-67776190D01*
X193852380Y-67776190D01*
X194852380Y-66823809D02*
X194328571Y-66823809D01*
X194233333Y-66871428D01*
X194185714Y-66966666D01*
X194185714Y-67157142D01*
X194233333Y-67252380D01*
X194804761Y-66823809D02*
X194852380Y-66919047D01*
X194852380Y-67157142D01*
X194804761Y-67252380D01*
X194709523Y-67300000D01*
X194614285Y-67300000D01*
X194519047Y-67252380D01*
X194471428Y-67157142D01*
X194471428Y-66919047D01*
X194423809Y-66823809D01*
X194185714Y-66442857D02*
X194852380Y-66204761D01*
X194185714Y-65966666D02*
X194852380Y-66204761D01*
X195090476Y-66300000D01*
X195138095Y-66347619D01*
X195185714Y-66442857D01*
X131552380Y-75347619D02*
X130552380Y-75347619D01*
X130552380Y-75109523D01*
X130600000Y-74966666D01*
X130695238Y-74871428D01*
X130790476Y-74823809D01*
X130980952Y-74776190D01*
X131123809Y-74776190D01*
X131314285Y-74823809D01*
X131409523Y-74871428D01*
X131504761Y-74966666D01*
X131552380Y-75109523D01*
X131552380Y-75347619D01*
X131552380Y-74347619D02*
X130885714Y-74347619D01*
X130552380Y-74347619D02*
X130600000Y-74395238D01*
X130647619Y-74347619D01*
X130600000Y-74300000D01*
X130552380Y-74347619D01*
X130647619Y-74347619D01*
X130885714Y-73442857D02*
X131695238Y-73442857D01*
X131790476Y-73490476D01*
X131838095Y-73538095D01*
X131885714Y-73633333D01*
X131885714Y-73776190D01*
X131838095Y-73871428D01*
X131504761Y-73442857D02*
X131552380Y-73538095D01*
X131552380Y-73728571D01*
X131504761Y-73823809D01*
X131457142Y-73871428D01*
X131361904Y-73919047D01*
X131076190Y-73919047D01*
X130980952Y-73871428D01*
X130933333Y-73823809D01*
X130885714Y-73728571D01*
X130885714Y-73538095D01*
X130933333Y-73442857D01*
X131552380Y-72966666D02*
X130885714Y-72966666D01*
X130552380Y-72966666D02*
X130600000Y-73014285D01*
X130647619Y-72966666D01*
X130600000Y-72919047D01*
X130552380Y-72966666D01*
X130647619Y-72966666D01*
X130885714Y-72633333D02*
X130885714Y-72252380D01*
X130552380Y-72490476D02*
X131409523Y-72490476D01*
X131504761Y-72442857D01*
X131552380Y-72347619D01*
X131552380Y-72252380D01*
X131552380Y-71490476D02*
X131028571Y-71490476D01*
X130933333Y-71538095D01*
X130885714Y-71633333D01*
X130885714Y-71823809D01*
X130933333Y-71919047D01*
X131504761Y-71490476D02*
X131552380Y-71585714D01*
X131552380Y-71823809D01*
X131504761Y-71919047D01*
X131409523Y-71966666D01*
X131314285Y-71966666D01*
X131219047Y-71919047D01*
X131171428Y-71823809D01*
X131171428Y-71585714D01*
X131123809Y-71490476D01*
X131552380Y-70871428D02*
X131504761Y-70966666D01*
X131409523Y-71014285D01*
X130552380Y-71014285D01*
X131552380Y-69728571D02*
X130552380Y-69728571D01*
X130552380Y-69347619D01*
X130600000Y-69252380D01*
X130647619Y-69204761D01*
X130742857Y-69157142D01*
X130885714Y-69157142D01*
X130980952Y-69204761D01*
X131028571Y-69252380D01*
X131076190Y-69347619D01*
X131076190Y-69728571D01*
X131552380Y-68585714D02*
X131504761Y-68680952D01*
X131457142Y-68728571D01*
X131361904Y-68776190D01*
X131076190Y-68776190D01*
X130980952Y-68728571D01*
X130933333Y-68680952D01*
X130885714Y-68585714D01*
X130885714Y-68442857D01*
X130933333Y-68347619D01*
X130980952Y-68300000D01*
X131076190Y-68252380D01*
X131361904Y-68252380D01*
X131457142Y-68300000D01*
X131504761Y-68347619D01*
X131552380Y-68442857D01*
X131552380Y-68585714D01*
X130885714Y-67966666D02*
X130885714Y-67585714D01*
X130552380Y-67823809D02*
X131409523Y-67823809D01*
X131504761Y-67776190D01*
X131552380Y-67680952D01*
X131552380Y-67585714D01*
X131552380Y-67252380D02*
X130885714Y-67252380D01*
X130552380Y-67252380D02*
X130600000Y-67300000D01*
X130647619Y-67252380D01*
X130600000Y-67204761D01*
X130552380Y-67252380D01*
X130647619Y-67252380D01*
X160876190Y-133904761D02*
X161019047Y-133952380D01*
X161257142Y-133952380D01*
X161352380Y-133904761D01*
X161400000Y-133857142D01*
X161447619Y-133761904D01*
X161447619Y-133666666D01*
X161400000Y-133571428D01*
X161352380Y-133523809D01*
X161257142Y-133476190D01*
X161066666Y-133428571D01*
X160971428Y-133380952D01*
X160923809Y-133333333D01*
X160876190Y-133238095D01*
X160876190Y-133142857D01*
X160923809Y-133047619D01*
X160971428Y-133000000D01*
X161066666Y-132952380D01*
X161304761Y-132952380D01*
X161447619Y-133000000D01*
X161733333Y-133285714D02*
X162114285Y-133285714D01*
X161876190Y-132952380D02*
X161876190Y-133809523D01*
X161923809Y-133904761D01*
X162019047Y-133952380D01*
X162114285Y-133952380D01*
X162828571Y-133904761D02*
X162733333Y-133952380D01*
X162542857Y-133952380D01*
X162447619Y-133904761D01*
X162400000Y-133809523D01*
X162400000Y-133428571D01*
X162447619Y-133333333D01*
X162542857Y-133285714D01*
X162733333Y-133285714D01*
X162828571Y-133333333D01*
X162876190Y-133428571D01*
X162876190Y-133523809D01*
X162400000Y-133619047D01*
X163304761Y-133285714D02*
X163304761Y-134285714D01*
X163304761Y-133333333D02*
X163400000Y-133285714D01*
X163590476Y-133285714D01*
X163685714Y-133333333D01*
X163733333Y-133380952D01*
X163780952Y-133476190D01*
X163780952Y-133761904D01*
X163733333Y-133857142D01*
X163685714Y-133904761D01*
X163590476Y-133952380D01*
X163400000Y-133952380D01*
X163304761Y-133904761D01*
X164209523Y-133285714D02*
X164209523Y-134285714D01*
X164209523Y-133333333D02*
X164304761Y-133285714D01*
X164495238Y-133285714D01*
X164590476Y-133333333D01*
X164638095Y-133380952D01*
X164685714Y-133476190D01*
X164685714Y-133761904D01*
X164638095Y-133857142D01*
X164590476Y-133904761D01*
X164495238Y-133952380D01*
X164304761Y-133952380D01*
X164209523Y-133904761D01*
X165495238Y-133904761D02*
X165400000Y-133952380D01*
X165209523Y-133952380D01*
X165114285Y-133904761D01*
X165066666Y-133809523D01*
X165066666Y-133428571D01*
X165114285Y-133333333D01*
X165209523Y-133285714D01*
X165400000Y-133285714D01*
X165495238Y-133333333D01*
X165542857Y-133428571D01*
X165542857Y-133523809D01*
X165066666Y-133619047D01*
X165971428Y-133952380D02*
X165971428Y-133285714D01*
X165971428Y-133476190D02*
X166019047Y-133380952D01*
X166066666Y-133333333D01*
X166161904Y-133285714D01*
X166257142Y-133285714D01*
X167685714Y-133428571D02*
X167828571Y-133476190D01*
X167876190Y-133523809D01*
X167923809Y-133619047D01*
X167923809Y-133761904D01*
X167876190Y-133857142D01*
X167828571Y-133904761D01*
X167733333Y-133952380D01*
X167352380Y-133952380D01*
X167352380Y-132952380D01*
X167685714Y-132952380D01*
X167780952Y-133000000D01*
X167828571Y-133047619D01*
X167876190Y-133142857D01*
X167876190Y-133238095D01*
X167828571Y-133333333D01*
X167780952Y-133380952D01*
X167685714Y-133428571D01*
X167352380Y-133428571D01*
X131004761Y-134104761D02*
X131147619Y-134152380D01*
X131385714Y-134152380D01*
X131480952Y-134104761D01*
X131528571Y-134057142D01*
X131576190Y-133961904D01*
X131576190Y-133866666D01*
X131528571Y-133771428D01*
X131480952Y-133723809D01*
X131385714Y-133676190D01*
X131195238Y-133628571D01*
X131100000Y-133580952D01*
X131052380Y-133533333D01*
X131004761Y-133438095D01*
X131004761Y-133342857D01*
X131052380Y-133247619D01*
X131100000Y-133200000D01*
X131195238Y-133152380D01*
X131433333Y-133152380D01*
X131576190Y-133200000D01*
X131861904Y-133485714D02*
X132242857Y-133485714D01*
X132004761Y-133152380D02*
X132004761Y-134009523D01*
X132052380Y-134104761D01*
X132147619Y-134152380D01*
X132242857Y-134152380D01*
X132957142Y-134104761D02*
X132861904Y-134152380D01*
X132671428Y-134152380D01*
X132576190Y-134104761D01*
X132528571Y-134009523D01*
X132528571Y-133628571D01*
X132576190Y-133533333D01*
X132671428Y-133485714D01*
X132861904Y-133485714D01*
X132957142Y-133533333D01*
X133004761Y-133628571D01*
X133004761Y-133723809D01*
X132528571Y-133819047D01*
X133433333Y-133485714D02*
X133433333Y-134485714D01*
X133433333Y-133533333D02*
X133528571Y-133485714D01*
X133719047Y-133485714D01*
X133814285Y-133533333D01*
X133861904Y-133580952D01*
X133909523Y-133676190D01*
X133909523Y-133961904D01*
X133861904Y-134057142D01*
X133814285Y-134104761D01*
X133719047Y-134152380D01*
X133528571Y-134152380D01*
X133433333Y-134104761D01*
X134338095Y-133485714D02*
X134338095Y-134485714D01*
X134338095Y-133533333D02*
X134433333Y-133485714D01*
X134623809Y-133485714D01*
X134719047Y-133533333D01*
X134766666Y-133580952D01*
X134814285Y-133676190D01*
X134814285Y-133961904D01*
X134766666Y-134057142D01*
X134719047Y-134104761D01*
X134623809Y-134152380D01*
X134433333Y-134152380D01*
X134338095Y-134104761D01*
X135623809Y-134104761D02*
X135528571Y-134152380D01*
X135338095Y-134152380D01*
X135242857Y-134104761D01*
X135195238Y-134009523D01*
X135195238Y-133628571D01*
X135242857Y-133533333D01*
X135338095Y-133485714D01*
X135528571Y-133485714D01*
X135623809Y-133533333D01*
X135671428Y-133628571D01*
X135671428Y-133723809D01*
X135195238Y-133819047D01*
X136100000Y-134152380D02*
X136100000Y-133485714D01*
X136100000Y-133676190D02*
X136147619Y-133580952D01*
X136195238Y-133533333D01*
X136290476Y-133485714D01*
X136385714Y-133485714D01*
X137480952Y-134152380D02*
X137480952Y-133152380D01*
X137814285Y-133866666D01*
X138147619Y-133152380D01*
X138147619Y-134152380D01*
X189147619Y-133604761D02*
X189290476Y-133652380D01*
X189528571Y-133652380D01*
X189623809Y-133604761D01*
X189671428Y-133557142D01*
X189719047Y-133461904D01*
X189719047Y-133366666D01*
X189671428Y-133271428D01*
X189623809Y-133223809D01*
X189528571Y-133176190D01*
X189338095Y-133128571D01*
X189242857Y-133080952D01*
X189195238Y-133033333D01*
X189147619Y-132938095D01*
X189147619Y-132842857D01*
X189195238Y-132747619D01*
X189242857Y-132700000D01*
X189338095Y-132652380D01*
X189576190Y-132652380D01*
X189719047Y-132700000D01*
X190004761Y-132985714D02*
X190385714Y-132985714D01*
X190147619Y-132652380D02*
X190147619Y-133509523D01*
X190195238Y-133604761D01*
X190290476Y-133652380D01*
X190385714Y-133652380D01*
X191100000Y-133604761D02*
X191004761Y-133652380D01*
X190814285Y-133652380D01*
X190719047Y-133604761D01*
X190671428Y-133509523D01*
X190671428Y-133128571D01*
X190719047Y-133033333D01*
X190814285Y-132985714D01*
X191004761Y-132985714D01*
X191100000Y-133033333D01*
X191147619Y-133128571D01*
X191147619Y-133223809D01*
X190671428Y-133319047D01*
X191576190Y-132985714D02*
X191576190Y-133985714D01*
X191576190Y-133033333D02*
X191671428Y-132985714D01*
X191861904Y-132985714D01*
X191957142Y-133033333D01*
X192004761Y-133080952D01*
X192052380Y-133176190D01*
X192052380Y-133461904D01*
X192004761Y-133557142D01*
X191957142Y-133604761D01*
X191861904Y-133652380D01*
X191671428Y-133652380D01*
X191576190Y-133604761D01*
X192480952Y-132985714D02*
X192480952Y-133985714D01*
X192480952Y-133033333D02*
X192576190Y-132985714D01*
X192766666Y-132985714D01*
X192861904Y-133033333D01*
X192909523Y-133080952D01*
X192957142Y-133176190D01*
X192957142Y-133461904D01*
X192909523Y-133557142D01*
X192861904Y-133604761D01*
X192766666Y-133652380D01*
X192576190Y-133652380D01*
X192480952Y-133604761D01*
X193766666Y-133604761D02*
X193671428Y-133652380D01*
X193480952Y-133652380D01*
X193385714Y-133604761D01*
X193338095Y-133509523D01*
X193338095Y-133128571D01*
X193385714Y-133033333D01*
X193480952Y-132985714D01*
X193671428Y-132985714D01*
X193766666Y-133033333D01*
X193814285Y-133128571D01*
X193814285Y-133223809D01*
X193338095Y-133319047D01*
X194242857Y-133652380D02*
X194242857Y-132985714D01*
X194242857Y-133176190D02*
X194290476Y-133080952D01*
X194338095Y-133033333D01*
X194433333Y-132985714D01*
X194528571Y-132985714D01*
X195576190Y-133366666D02*
X196052380Y-133366666D01*
X195480952Y-133652380D02*
X195814285Y-132652380D01*
X196147619Y-133652380D01*
%TO.C,J14*%
X148295476Y-127992380D02*
X148295476Y-128706666D01*
X148247857Y-128849523D01*
X148152619Y-128944761D01*
X148009761Y-128992380D01*
X147914523Y-128992380D01*
X149295476Y-128992380D02*
X148724047Y-128992380D01*
X149009761Y-128992380D02*
X149009761Y-127992380D01*
X148914523Y-128135238D01*
X148819285Y-128230476D01*
X148724047Y-128278095D01*
X150152619Y-128325714D02*
X150152619Y-128992380D01*
X149914523Y-127944761D02*
X149676428Y-128659047D01*
X150295476Y-128659047D01*
%TO.C,J12*%
X173747380Y-109009523D02*
X174461666Y-109009523D01*
X174604523Y-109057142D01*
X174699761Y-109152380D01*
X174747380Y-109295238D01*
X174747380Y-109390476D01*
X174747380Y-108009523D02*
X174747380Y-108580952D01*
X174747380Y-108295238D02*
X173747380Y-108295238D01*
X173890238Y-108390476D01*
X173985476Y-108485714D01*
X174033095Y-108580952D01*
X173842619Y-107628571D02*
X173795000Y-107580952D01*
X173747380Y-107485714D01*
X173747380Y-107247619D01*
X173795000Y-107152380D01*
X173842619Y-107104761D01*
X173937857Y-107057142D01*
X174033095Y-107057142D01*
X174175952Y-107104761D01*
X174747380Y-107676190D01*
X174747380Y-107057142D01*
%TO.C,C5*%
X139633333Y-60857142D02*
X139585714Y-60904761D01*
X139442857Y-60952380D01*
X139347619Y-60952380D01*
X139204761Y-60904761D01*
X139109523Y-60809523D01*
X139061904Y-60714285D01*
X139014285Y-60523809D01*
X139014285Y-60380952D01*
X139061904Y-60190476D01*
X139109523Y-60095238D01*
X139204761Y-60000000D01*
X139347619Y-59952380D01*
X139442857Y-59952380D01*
X139585714Y-60000000D01*
X139633333Y-60047619D01*
X140538095Y-59952380D02*
X140061904Y-59952380D01*
X140014285Y-60428571D01*
X140061904Y-60380952D01*
X140157142Y-60333333D01*
X140395238Y-60333333D01*
X140490476Y-60380952D01*
X140538095Y-60428571D01*
X140585714Y-60523809D01*
X140585714Y-60761904D01*
X140538095Y-60857142D01*
X140490476Y-60904761D01*
X140395238Y-60952380D01*
X140157142Y-60952380D01*
X140061904Y-60904761D01*
X140014285Y-60857142D01*
%TO.C,H4*%
X197438095Y-59352380D02*
X197438095Y-58352380D01*
X197438095Y-58828571D02*
X198009523Y-58828571D01*
X198009523Y-59352380D02*
X198009523Y-58352380D01*
X198914285Y-58685714D02*
X198914285Y-59352380D01*
X198676190Y-58304761D02*
X198438095Y-59019047D01*
X199057142Y-59019047D01*
%TO.C,J6*%
X177771666Y-128007380D02*
X177771666Y-128721666D01*
X177724047Y-128864523D01*
X177628809Y-128959761D01*
X177485952Y-129007380D01*
X177390714Y-129007380D01*
X178676428Y-128007380D02*
X178485952Y-128007380D01*
X178390714Y-128055000D01*
X178343095Y-128102619D01*
X178247857Y-128245476D01*
X178200238Y-128435952D01*
X178200238Y-128816904D01*
X178247857Y-128912142D01*
X178295476Y-128959761D01*
X178390714Y-129007380D01*
X178581190Y-129007380D01*
X178676428Y-128959761D01*
X178724047Y-128912142D01*
X178771666Y-128816904D01*
X178771666Y-128578809D01*
X178724047Y-128483571D01*
X178676428Y-128435952D01*
X178581190Y-128388333D01*
X178390714Y-128388333D01*
X178295476Y-128435952D01*
X178247857Y-128483571D01*
X178200238Y-128578809D01*
%TO.C,J3*%
X157866666Y-133052380D02*
X157866666Y-133766666D01*
X157819047Y-133909523D01*
X157723809Y-134004761D01*
X157580952Y-134052380D01*
X157485714Y-134052380D01*
X158247619Y-133052380D02*
X158866666Y-133052380D01*
X158533333Y-133433333D01*
X158676190Y-133433333D01*
X158771428Y-133480952D01*
X158819047Y-133528571D01*
X158866666Y-133623809D01*
X158866666Y-133861904D01*
X158819047Y-133957142D01*
X158771428Y-134004761D01*
X158676190Y-134052380D01*
X158390476Y-134052380D01*
X158295238Y-134004761D01*
X158247619Y-133957142D01*
%TO.C,R3*%
X141433333Y-83232380D02*
X141100000Y-82756190D01*
X140861904Y-83232380D02*
X140861904Y-82232380D01*
X141242857Y-82232380D01*
X141338095Y-82280000D01*
X141385714Y-82327619D01*
X141433333Y-82422857D01*
X141433333Y-82565714D01*
X141385714Y-82660952D01*
X141338095Y-82708571D01*
X141242857Y-82756190D01*
X140861904Y-82756190D01*
X141766666Y-82232380D02*
X142385714Y-82232380D01*
X142052380Y-82613333D01*
X142195238Y-82613333D01*
X142290476Y-82660952D01*
X142338095Y-82708571D01*
X142385714Y-82803809D01*
X142385714Y-83041904D01*
X142338095Y-83137142D01*
X142290476Y-83184761D01*
X142195238Y-83232380D01*
X141909523Y-83232380D01*
X141814285Y-83184761D01*
X141766666Y-83137142D01*
%TO.C,R2*%
X184633333Y-72532380D02*
X184300000Y-72056190D01*
X184061904Y-72532380D02*
X184061904Y-71532380D01*
X184442857Y-71532380D01*
X184538095Y-71580000D01*
X184585714Y-71627619D01*
X184633333Y-71722857D01*
X184633333Y-71865714D01*
X184585714Y-71960952D01*
X184538095Y-72008571D01*
X184442857Y-72056190D01*
X184061904Y-72056190D01*
X185014285Y-71627619D02*
X185061904Y-71580000D01*
X185157142Y-71532380D01*
X185395238Y-71532380D01*
X185490476Y-71580000D01*
X185538095Y-71627619D01*
X185585714Y-71722857D01*
X185585714Y-71818095D01*
X185538095Y-71960952D01*
X184966666Y-72532380D01*
X185585714Y-72532380D01*
%TO.C,H1*%
X148538095Y-132602380D02*
X148538095Y-131602380D01*
X148538095Y-132078571D02*
X149109523Y-132078571D01*
X149109523Y-132602380D02*
X149109523Y-131602380D01*
X150109523Y-132602380D02*
X149538095Y-132602380D01*
X149823809Y-132602380D02*
X149823809Y-131602380D01*
X149728571Y-131745238D01*
X149633333Y-131840476D01*
X149538095Y-131888095D01*
%TO.C,H2*%
X177538095Y-132602380D02*
X177538095Y-131602380D01*
X177538095Y-132078571D02*
X178109523Y-132078571D01*
X178109523Y-132602380D02*
X178109523Y-131602380D01*
X178538095Y-131697619D02*
X178585714Y-131650000D01*
X178680952Y-131602380D01*
X178919047Y-131602380D01*
X179014285Y-131650000D01*
X179061904Y-131697619D01*
X179109523Y-131792857D01*
X179109523Y-131888095D01*
X179061904Y-132030952D01*
X178490476Y-132602380D01*
X179109523Y-132602380D01*
%TO.C,U1*%
X178824880Y-88194404D02*
X179634404Y-88194404D01*
X179729642Y-88146785D01*
X179777261Y-88099166D01*
X179824880Y-88003928D01*
X179824880Y-87813452D01*
X179777261Y-87718214D01*
X179729642Y-87670595D01*
X179634404Y-87622976D01*
X178824880Y-87622976D01*
X179824880Y-86622976D02*
X179824880Y-87194404D01*
X179824880Y-86908690D02*
X178824880Y-86908690D01*
X178967738Y-87003928D01*
X179062976Y-87099166D01*
X179110595Y-87194404D01*
%TO.C,J10*%
X144590476Y-105382380D02*
X144590476Y-106096666D01*
X144542857Y-106239523D01*
X144447619Y-106334761D01*
X144304761Y-106382380D01*
X144209523Y-106382380D01*
X145590476Y-106382380D02*
X145019047Y-106382380D01*
X145304761Y-106382380D02*
X145304761Y-105382380D01*
X145209523Y-105525238D01*
X145114285Y-105620476D01*
X145019047Y-105668095D01*
X146209523Y-105382380D02*
X146304761Y-105382380D01*
X146400000Y-105430000D01*
X146447619Y-105477619D01*
X146495238Y-105572857D01*
X146542857Y-105763333D01*
X146542857Y-106001428D01*
X146495238Y-106191904D01*
X146447619Y-106287142D01*
X146400000Y-106334761D01*
X146304761Y-106382380D01*
X146209523Y-106382380D01*
X146114285Y-106334761D01*
X146066666Y-106287142D01*
X146019047Y-106191904D01*
X145971428Y-106001428D01*
X145971428Y-105763333D01*
X146019047Y-105572857D01*
X146066666Y-105477619D01*
X146114285Y-105430000D01*
X146209523Y-105382380D01*
%TO.C,A2*%
X163195714Y-108636666D02*
X163671904Y-108636666D01*
X163100476Y-108922380D02*
X163433809Y-107922380D01*
X163767142Y-108922380D01*
X164052857Y-108017619D02*
X164100476Y-107970000D01*
X164195714Y-107922380D01*
X164433809Y-107922380D01*
X164529047Y-107970000D01*
X164576666Y-108017619D01*
X164624285Y-108112857D01*
X164624285Y-108208095D01*
X164576666Y-108350952D01*
X164005238Y-108922380D01*
X164624285Y-108922380D01*
%TO.C,J1*%
X130966666Y-63152380D02*
X130966666Y-63866666D01*
X130919047Y-64009523D01*
X130823809Y-64104761D01*
X130680952Y-64152380D01*
X130585714Y-64152380D01*
X131966666Y-64152380D02*
X131395238Y-64152380D01*
X131680952Y-64152380D02*
X131680952Y-63152380D01*
X131585714Y-63295238D01*
X131490476Y-63390476D01*
X131395238Y-63438095D01*
%TO.C,A3*%
X133395714Y-108536666D02*
X133871904Y-108536666D01*
X133300476Y-108822380D02*
X133633809Y-107822380D01*
X133967142Y-108822380D01*
X134205238Y-107822380D02*
X134824285Y-107822380D01*
X134490952Y-108203333D01*
X134633809Y-108203333D01*
X134729047Y-108250952D01*
X134776666Y-108298571D01*
X134824285Y-108393809D01*
X134824285Y-108631904D01*
X134776666Y-108727142D01*
X134729047Y-108774761D01*
X134633809Y-108822380D01*
X134348095Y-108822380D01*
X134252857Y-108774761D01*
X134205238Y-108727142D01*
%TO.C,J11*%
X148990476Y-54152380D02*
X148990476Y-54866666D01*
X148942857Y-55009523D01*
X148847619Y-55104761D01*
X148704761Y-55152380D01*
X148609523Y-55152380D01*
X149990476Y-55152380D02*
X149419047Y-55152380D01*
X149704761Y-55152380D02*
X149704761Y-54152380D01*
X149609523Y-54295238D01*
X149514285Y-54390476D01*
X149419047Y-54438095D01*
X150942857Y-55152380D02*
X150371428Y-55152380D01*
X150657142Y-55152380D02*
X150657142Y-54152380D01*
X150561904Y-54295238D01*
X150466666Y-54390476D01*
X150371428Y-54438095D01*
%TO.C,U4*%
X162538095Y-55648940D02*
X162538095Y-56458464D01*
X162585714Y-56553702D01*
X162633333Y-56601321D01*
X162728571Y-56648940D01*
X162919047Y-56648940D01*
X163014285Y-56601321D01*
X163061904Y-56553702D01*
X163109523Y-56458464D01*
X163109523Y-55648940D01*
X164014285Y-55982274D02*
X164014285Y-56648940D01*
X163776190Y-55601321D02*
X163538095Y-56315607D01*
X164157142Y-56315607D01*
X164428571Y-87895238D02*
X164428571Y-87561904D01*
X164952380Y-87419047D02*
X164952380Y-87895238D01*
X163952380Y-87895238D01*
X163952380Y-87419047D01*
X164904761Y-87038095D02*
X164952380Y-86895238D01*
X164952380Y-86657142D01*
X164904761Y-86561904D01*
X164857142Y-86514285D01*
X164761904Y-86466666D01*
X164666666Y-86466666D01*
X164571428Y-86514285D01*
X164523809Y-86561904D01*
X164476190Y-86657142D01*
X164428571Y-86847619D01*
X164380952Y-86942857D01*
X164333333Y-86990476D01*
X164238095Y-87038095D01*
X164142857Y-87038095D01*
X164047619Y-86990476D01*
X164000000Y-86942857D01*
X163952380Y-86847619D01*
X163952380Y-86609523D01*
X164000000Y-86466666D01*
X164952380Y-86038095D02*
X163952380Y-86038095D01*
X163952380Y-85657142D01*
X164000000Y-85561904D01*
X164047619Y-85514285D01*
X164142857Y-85466666D01*
X164285714Y-85466666D01*
X164380952Y-85514285D01*
X164428571Y-85561904D01*
X164476190Y-85657142D01*
X164476190Y-86038095D01*
X163952380Y-85133333D02*
X163952380Y-84514285D01*
X164333333Y-84847619D01*
X164333333Y-84704761D01*
X164380952Y-84609523D01*
X164428571Y-84561904D01*
X164523809Y-84514285D01*
X164761904Y-84514285D01*
X164857142Y-84561904D01*
X164904761Y-84609523D01*
X164952380Y-84704761D01*
X164952380Y-84990476D01*
X164904761Y-85085714D01*
X164857142Y-85133333D01*
X164047619Y-84133333D02*
X164000000Y-84085714D01*
X163952380Y-83990476D01*
X163952380Y-83752380D01*
X164000000Y-83657142D01*
X164047619Y-83609523D01*
X164142857Y-83561904D01*
X164238095Y-83561904D01*
X164380952Y-83609523D01*
X164952380Y-84180952D01*
X164952380Y-83561904D01*
X164571428Y-83133333D02*
X164571428Y-82371428D01*
X164952380Y-81895238D02*
X163952380Y-81895238D01*
X163952380Y-81657142D01*
X164000000Y-81514285D01*
X164095238Y-81419047D01*
X164190476Y-81371428D01*
X164380952Y-81323809D01*
X164523809Y-81323809D01*
X164714285Y-81371428D01*
X164809523Y-81419047D01*
X164904761Y-81514285D01*
X164952380Y-81657142D01*
X164952380Y-81895238D01*
X164904761Y-80514285D02*
X164952380Y-80609523D01*
X164952380Y-80800000D01*
X164904761Y-80895238D01*
X164809523Y-80942857D01*
X164428571Y-80942857D01*
X164333333Y-80895238D01*
X164285714Y-80800000D01*
X164285714Y-80609523D01*
X164333333Y-80514285D01*
X164428571Y-80466666D01*
X164523809Y-80466666D01*
X164619047Y-80942857D01*
X164285714Y-80133333D02*
X164952380Y-79895238D01*
X164285714Y-79657142D01*
X164952380Y-79276190D02*
X163952380Y-79276190D01*
X164952380Y-78704761D02*
X164380952Y-79133333D01*
X163952380Y-78704761D02*
X164523809Y-79276190D01*
X164952380Y-78276190D02*
X164285714Y-78276190D01*
X163952380Y-78276190D02*
X164000000Y-78323809D01*
X164047619Y-78276190D01*
X164000000Y-78228571D01*
X163952380Y-78276190D01*
X164047619Y-78276190D01*
X164285714Y-77942857D02*
X164285714Y-77561904D01*
X163952380Y-77800000D02*
X164809523Y-77800000D01*
X164904761Y-77752380D01*
X164952380Y-77657142D01*
X164952380Y-77561904D01*
X164857142Y-76657142D02*
X164904761Y-76704761D01*
X164952380Y-76847619D01*
X164952380Y-76942857D01*
X164904761Y-77085714D01*
X164809523Y-77180952D01*
X164714285Y-77228571D01*
X164523809Y-77276190D01*
X164380952Y-77276190D01*
X164190476Y-77228571D01*
X164095238Y-77180952D01*
X164000000Y-77085714D01*
X163952380Y-76942857D01*
X163952380Y-76847619D01*
X164000000Y-76704761D01*
X164047619Y-76657142D01*
X173232500Y-104266560D02*
X173199166Y-104299893D01*
X173099166Y-104333226D01*
X173032500Y-104333226D01*
X172932500Y-104299893D01*
X172865833Y-104233226D01*
X172832500Y-104166560D01*
X172799166Y-104033226D01*
X172799166Y-103933226D01*
X172832500Y-103799893D01*
X172865833Y-103733226D01*
X172932500Y-103666560D01*
X173032500Y-103633226D01*
X173099166Y-103633226D01*
X173199166Y-103666560D01*
X173232500Y-103699893D01*
X173865833Y-104333226D02*
X173532500Y-104333226D01*
X173532500Y-103633226D01*
X174099166Y-104333226D02*
X174099166Y-103633226D01*
X174499166Y-104333226D02*
X174199166Y-103933226D01*
X174499166Y-103633226D02*
X174099166Y-104033226D01*
X172346785Y-57796560D02*
X172251547Y-57748940D01*
X172108690Y-57748940D01*
X171965833Y-57796560D01*
X171870595Y-57891798D01*
X171822976Y-57987036D01*
X171775357Y-58177512D01*
X171775357Y-58320369D01*
X171822976Y-58510845D01*
X171870595Y-58606083D01*
X171965833Y-58701321D01*
X172108690Y-58748940D01*
X172203928Y-58748940D01*
X172346785Y-58701321D01*
X172394404Y-58653702D01*
X172394404Y-58320369D01*
X172203928Y-58320369D01*
X172822976Y-58748940D02*
X172822976Y-57748940D01*
X173394404Y-58748940D01*
X173394404Y-57748940D01*
X173870595Y-58748940D02*
X173870595Y-57748940D01*
X174108690Y-57748940D01*
X174251547Y-57796560D01*
X174346785Y-57891798D01*
X174394404Y-57987036D01*
X174442023Y-58177512D01*
X174442023Y-58320369D01*
X174394404Y-58510845D01*
X174346785Y-58606083D01*
X174251547Y-58701321D01*
X174108690Y-58748940D01*
X173870595Y-58748940D01*
X152500833Y-93506560D02*
X152434166Y-93473226D01*
X152334166Y-93473226D01*
X152234166Y-93506560D01*
X152167500Y-93573226D01*
X152134166Y-93639893D01*
X152100833Y-93773226D01*
X152100833Y-93873226D01*
X152134166Y-94006560D01*
X152167500Y-94073226D01*
X152234166Y-94139893D01*
X152334166Y-94173226D01*
X152400833Y-94173226D01*
X152500833Y-94139893D01*
X152534166Y-94106560D01*
X152534166Y-93873226D01*
X152400833Y-93873226D01*
X152834166Y-94173226D02*
X152834166Y-93473226D01*
X153100833Y-93473226D01*
X153167500Y-93506560D01*
X153200833Y-93539893D01*
X153234166Y-93606560D01*
X153234166Y-93706560D01*
X153200833Y-93773226D01*
X153167500Y-93806560D01*
X153100833Y-93839893D01*
X152834166Y-93839893D01*
X153534166Y-94173226D02*
X153534166Y-93473226D01*
X154000833Y-93473226D02*
X154134166Y-93473226D01*
X154200833Y-93506560D01*
X154267500Y-93573226D01*
X154300833Y-93706560D01*
X154300833Y-93939893D01*
X154267500Y-94073226D01*
X154200833Y-94139893D01*
X154134166Y-94173226D01*
X154000833Y-94173226D01*
X153934166Y-94139893D01*
X153867500Y-94073226D01*
X153834166Y-93939893D01*
X153834166Y-93706560D01*
X153867500Y-93573226D01*
X153934166Y-93506560D01*
X154000833Y-93473226D01*
X154967500Y-94173226D02*
X154567500Y-94173226D01*
X154767500Y-94173226D02*
X154767500Y-93473226D01*
X154700833Y-93573226D01*
X154634166Y-93639893D01*
X154567500Y-93673226D01*
X155200833Y-93473226D02*
X155634166Y-93473226D01*
X155400833Y-93739893D01*
X155500833Y-93739893D01*
X155567500Y-93773226D01*
X155600833Y-93806560D01*
X155634166Y-93873226D01*
X155634166Y-94039893D01*
X155600833Y-94106560D01*
X155567500Y-94139893D01*
X155500833Y-94173226D01*
X155300833Y-94173226D01*
X155234166Y-94139893D01*
X155200833Y-94106560D01*
X156434166Y-93439893D02*
X155834166Y-94339893D01*
X156667500Y-94173226D02*
X156667500Y-93473226D01*
X156900833Y-93973226D01*
X157134166Y-93473226D01*
X157134166Y-94173226D01*
X157367500Y-93473226D02*
X157767500Y-93473226D01*
X157567500Y-94173226D02*
X157567500Y-93473226D01*
X158400833Y-94106560D02*
X158367500Y-94139893D01*
X158267500Y-94173226D01*
X158200833Y-94173226D01*
X158100833Y-94139893D01*
X158034166Y-94073226D01*
X158000833Y-94006560D01*
X157967500Y-93873226D01*
X157967500Y-93773226D01*
X158000833Y-93639893D01*
X158034166Y-93573226D01*
X158100833Y-93506560D01*
X158200833Y-93473226D01*
X158267500Y-93473226D01*
X158367500Y-93506560D01*
X158400833Y-93539893D01*
X158700833Y-94173226D02*
X158700833Y-93473226D01*
X159100833Y-94173226D02*
X158800833Y-93773226D01*
X159100833Y-93473226D02*
X158700833Y-93873226D01*
X172032500Y-90966560D02*
X171965833Y-90933226D01*
X171865833Y-90933226D01*
X171765833Y-90966560D01*
X171699166Y-91033226D01*
X171665833Y-91099893D01*
X171632500Y-91233226D01*
X171632500Y-91333226D01*
X171665833Y-91466560D01*
X171699166Y-91533226D01*
X171765833Y-91599893D01*
X171865833Y-91633226D01*
X171932500Y-91633226D01*
X172032500Y-91599893D01*
X172065833Y-91566560D01*
X172065833Y-91333226D01*
X171932500Y-91333226D01*
X172365833Y-91633226D02*
X172365833Y-90933226D01*
X172632500Y-90933226D01*
X172699166Y-90966560D01*
X172732500Y-90999893D01*
X172765833Y-91066560D01*
X172765833Y-91166560D01*
X172732500Y-91233226D01*
X172699166Y-91266560D01*
X172632500Y-91299893D01*
X172365833Y-91299893D01*
X173065833Y-91633226D02*
X173065833Y-90933226D01*
X173532500Y-90933226D02*
X173665833Y-90933226D01*
X173732500Y-90966560D01*
X173799166Y-91033226D01*
X173832500Y-91166560D01*
X173832500Y-91399893D01*
X173799166Y-91533226D01*
X173732500Y-91599893D01*
X173665833Y-91633226D01*
X173532500Y-91633226D01*
X173465833Y-91599893D01*
X173399166Y-91533226D01*
X173365833Y-91399893D01*
X173365833Y-91166560D01*
X173399166Y-91033226D01*
X173465833Y-90966560D01*
X173532500Y-90933226D01*
X174265833Y-90933226D02*
X174332500Y-90933226D01*
X174399166Y-90966560D01*
X174432500Y-90999893D01*
X174465833Y-91066560D01*
X174499166Y-91199893D01*
X174499166Y-91366560D01*
X174465833Y-91499893D01*
X174432500Y-91566560D01*
X174399166Y-91599893D01*
X174332500Y-91633226D01*
X174265833Y-91633226D01*
X174199166Y-91599893D01*
X174165833Y-91566560D01*
X174132500Y-91499893D01*
X174099166Y-91366560D01*
X174099166Y-91199893D01*
X174132500Y-91066560D01*
X174165833Y-90999893D01*
X174199166Y-90966560D01*
X174265833Y-90933226D01*
X152500833Y-68106560D02*
X152434166Y-68073226D01*
X152334166Y-68073226D01*
X152234166Y-68106560D01*
X152167500Y-68173226D01*
X152134166Y-68239893D01*
X152100833Y-68373226D01*
X152100833Y-68473226D01*
X152134166Y-68606560D01*
X152167500Y-68673226D01*
X152234166Y-68739893D01*
X152334166Y-68773226D01*
X152400833Y-68773226D01*
X152500833Y-68739893D01*
X152534166Y-68706560D01*
X152534166Y-68473226D01*
X152400833Y-68473226D01*
X152834166Y-68773226D02*
X152834166Y-68073226D01*
X153100833Y-68073226D01*
X153167500Y-68106560D01*
X153200833Y-68139893D01*
X153234166Y-68206560D01*
X153234166Y-68306560D01*
X153200833Y-68373226D01*
X153167500Y-68406560D01*
X153100833Y-68439893D01*
X152834166Y-68439893D01*
X153534166Y-68773226D02*
X153534166Y-68073226D01*
X154000833Y-68073226D02*
X154134166Y-68073226D01*
X154200833Y-68106560D01*
X154267500Y-68173226D01*
X154300833Y-68306560D01*
X154300833Y-68539893D01*
X154267500Y-68673226D01*
X154200833Y-68739893D01*
X154134166Y-68773226D01*
X154000833Y-68773226D01*
X153934166Y-68739893D01*
X153867500Y-68673226D01*
X153834166Y-68539893D01*
X153834166Y-68306560D01*
X153867500Y-68173226D01*
X153934166Y-68106560D01*
X154000833Y-68073226D01*
X154534166Y-68073226D02*
X154967500Y-68073226D01*
X154734166Y-68339893D01*
X154834166Y-68339893D01*
X154900833Y-68373226D01*
X154934166Y-68406560D01*
X154967500Y-68473226D01*
X154967500Y-68639893D01*
X154934166Y-68706560D01*
X154900833Y-68739893D01*
X154834166Y-68773226D01*
X154634166Y-68773226D01*
X154567500Y-68739893D01*
X154534166Y-68706560D01*
X155567500Y-68306560D02*
X155567500Y-68773226D01*
X155400833Y-68039893D02*
X155234166Y-68539893D01*
X155667500Y-68539893D01*
X172032500Y-93506560D02*
X171965833Y-93473226D01*
X171865833Y-93473226D01*
X171765833Y-93506560D01*
X171699166Y-93573226D01*
X171665833Y-93639893D01*
X171632500Y-93773226D01*
X171632500Y-93873226D01*
X171665833Y-94006560D01*
X171699166Y-94073226D01*
X171765833Y-94139893D01*
X171865833Y-94173226D01*
X171932500Y-94173226D01*
X172032500Y-94139893D01*
X172065833Y-94106560D01*
X172065833Y-93873226D01*
X171932500Y-93873226D01*
X172365833Y-94173226D02*
X172365833Y-93473226D01*
X172632500Y-93473226D01*
X172699166Y-93506560D01*
X172732500Y-93539893D01*
X172765833Y-93606560D01*
X172765833Y-93706560D01*
X172732500Y-93773226D01*
X172699166Y-93806560D01*
X172632500Y-93839893D01*
X172365833Y-93839893D01*
X173065833Y-94173226D02*
X173065833Y-93473226D01*
X173532500Y-93473226D02*
X173665833Y-93473226D01*
X173732500Y-93506560D01*
X173799166Y-93573226D01*
X173832500Y-93706560D01*
X173832500Y-93939893D01*
X173799166Y-94073226D01*
X173732500Y-94139893D01*
X173665833Y-94173226D01*
X173532500Y-94173226D01*
X173465833Y-94139893D01*
X173399166Y-94073226D01*
X173365833Y-93939893D01*
X173365833Y-93706560D01*
X173399166Y-93573226D01*
X173465833Y-93506560D01*
X173532500Y-93473226D01*
X174099166Y-93539893D02*
X174132500Y-93506560D01*
X174199166Y-93473226D01*
X174365833Y-93473226D01*
X174432500Y-93506560D01*
X174465833Y-93539893D01*
X174499166Y-93606560D01*
X174499166Y-93673226D01*
X174465833Y-93773226D01*
X174065833Y-94173226D01*
X174499166Y-94173226D01*
X152034166Y-65533226D02*
X152267500Y-66233226D01*
X152500833Y-65533226D01*
X152734166Y-66233226D02*
X152734166Y-65533226D01*
X153134166Y-66233226D01*
X153134166Y-65533226D01*
X153967500Y-65499893D02*
X153367500Y-66399893D01*
X154567500Y-65566560D02*
X154500833Y-65533226D01*
X154400833Y-65533226D01*
X154300833Y-65566560D01*
X154234166Y-65633226D01*
X154200833Y-65699893D01*
X154167500Y-65833226D01*
X154167500Y-65933226D01*
X154200833Y-66066560D01*
X154234166Y-66133226D01*
X154300833Y-66199893D01*
X154400833Y-66233226D01*
X154467500Y-66233226D01*
X154567500Y-66199893D01*
X154600833Y-66166560D01*
X154600833Y-65933226D01*
X154467500Y-65933226D01*
X154900833Y-66233226D02*
X154900833Y-65533226D01*
X155167500Y-65533226D01*
X155234166Y-65566560D01*
X155267500Y-65599893D01*
X155300833Y-65666560D01*
X155300833Y-65766560D01*
X155267500Y-65833226D01*
X155234166Y-65866560D01*
X155167500Y-65899893D01*
X154900833Y-65899893D01*
X155600833Y-66233226D02*
X155600833Y-65533226D01*
X156067500Y-65533226D02*
X156200833Y-65533226D01*
X156267500Y-65566560D01*
X156334166Y-65633226D01*
X156367500Y-65766560D01*
X156367500Y-65999893D01*
X156334166Y-66133226D01*
X156267500Y-66199893D01*
X156200833Y-66233226D01*
X156067500Y-66233226D01*
X156000833Y-66199893D01*
X155934166Y-66133226D01*
X155900833Y-65999893D01*
X155900833Y-65766560D01*
X155934166Y-65633226D01*
X156000833Y-65566560D01*
X156067500Y-65533226D01*
X156600833Y-65533226D02*
X157034166Y-65533226D01*
X156800833Y-65799893D01*
X156900833Y-65799893D01*
X156967500Y-65833226D01*
X157000833Y-65866560D01*
X157034166Y-65933226D01*
X157034166Y-66099893D01*
X157000833Y-66166560D01*
X156967500Y-66199893D01*
X156900833Y-66233226D01*
X156700833Y-66233226D01*
X156634166Y-66199893D01*
X156600833Y-66166560D01*
X157367500Y-66233226D02*
X157500833Y-66233226D01*
X157567500Y-66199893D01*
X157600833Y-66166560D01*
X157667500Y-66066560D01*
X157700833Y-65933226D01*
X157700833Y-65666560D01*
X157667500Y-65599893D01*
X157634166Y-65566560D01*
X157567500Y-65533226D01*
X157434166Y-65533226D01*
X157367500Y-65566560D01*
X157334166Y-65599893D01*
X157300833Y-65666560D01*
X157300833Y-65833226D01*
X157334166Y-65899893D01*
X157367500Y-65933226D01*
X157434166Y-65966560D01*
X157567500Y-65966560D01*
X157634166Y-65933226D01*
X157667500Y-65899893D01*
X157700833Y-65833226D01*
X152103105Y-60762411D02*
X152436439Y-60762411D01*
X152579296Y-61286220D02*
X152103105Y-61286220D01*
X152103105Y-60286220D01*
X152579296Y-60286220D01*
X153007867Y-61286220D02*
X153007867Y-60286220D01*
X153579296Y-61286220D01*
X153579296Y-60286220D01*
X154769772Y-60238601D02*
X153912629Y-61524316D01*
X155674534Y-61286220D02*
X155341200Y-60810030D01*
X155103105Y-61286220D02*
X155103105Y-60286220D01*
X155484058Y-60286220D01*
X155579296Y-60333840D01*
X155626915Y-60381459D01*
X155674534Y-60476697D01*
X155674534Y-60619554D01*
X155626915Y-60714792D01*
X155579296Y-60762411D01*
X155484058Y-60810030D01*
X155103105Y-60810030D01*
X156103105Y-60762411D02*
X156436439Y-60762411D01*
X156579296Y-61286220D02*
X156103105Y-61286220D01*
X156103105Y-60286220D01*
X156579296Y-60286220D01*
X156960248Y-61238601D02*
X157103105Y-61286220D01*
X157341200Y-61286220D01*
X157436439Y-61238601D01*
X157484058Y-61190982D01*
X157531677Y-61095744D01*
X157531677Y-61000506D01*
X157484058Y-60905268D01*
X157436439Y-60857649D01*
X157341200Y-60810030D01*
X157150724Y-60762411D01*
X157055486Y-60714792D01*
X157007867Y-60667173D01*
X156960248Y-60571935D01*
X156960248Y-60476697D01*
X157007867Y-60381459D01*
X157055486Y-60333840D01*
X157150724Y-60286220D01*
X157388820Y-60286220D01*
X157531677Y-60333840D01*
X157960248Y-60762411D02*
X158293581Y-60762411D01*
X158436439Y-61286220D02*
X157960248Y-61286220D01*
X157960248Y-60286220D01*
X158436439Y-60286220D01*
X158722153Y-60286220D02*
X159293581Y-60286220D01*
X159007867Y-61286220D02*
X159007867Y-60286220D01*
X152534166Y-101726560D02*
X152500833Y-101759893D01*
X152400833Y-101793226D01*
X152334166Y-101793226D01*
X152234166Y-101759893D01*
X152167500Y-101693226D01*
X152134166Y-101626560D01*
X152100833Y-101493226D01*
X152100833Y-101393226D01*
X152134166Y-101259893D01*
X152167500Y-101193226D01*
X152234166Y-101126560D01*
X152334166Y-101093226D01*
X152400833Y-101093226D01*
X152500833Y-101126560D01*
X152534166Y-101159893D01*
X152834166Y-101793226D02*
X152834166Y-101093226D01*
X153067500Y-101593226D01*
X153300833Y-101093226D01*
X153300833Y-101793226D01*
X153634166Y-101793226D02*
X153634166Y-101093226D01*
X153800833Y-101093226D01*
X153900833Y-101126560D01*
X153967500Y-101193226D01*
X154000833Y-101259893D01*
X154034166Y-101393226D01*
X154034166Y-101493226D01*
X154000833Y-101626560D01*
X153967500Y-101693226D01*
X153900833Y-101759893D01*
X153800833Y-101793226D01*
X153634166Y-101793226D01*
X152500833Y-75726560D02*
X152434166Y-75693226D01*
X152334166Y-75693226D01*
X152234166Y-75726560D01*
X152167500Y-75793226D01*
X152134166Y-75859893D01*
X152100833Y-75993226D01*
X152100833Y-76093226D01*
X152134166Y-76226560D01*
X152167500Y-76293226D01*
X152234166Y-76359893D01*
X152334166Y-76393226D01*
X152400833Y-76393226D01*
X152500833Y-76359893D01*
X152534166Y-76326560D01*
X152534166Y-76093226D01*
X152400833Y-76093226D01*
X152834166Y-76393226D02*
X152834166Y-75693226D01*
X153100833Y-75693226D01*
X153167500Y-75726560D01*
X153200833Y-75759893D01*
X153234166Y-75826560D01*
X153234166Y-75926560D01*
X153200833Y-75993226D01*
X153167500Y-76026560D01*
X153100833Y-76059893D01*
X152834166Y-76059893D01*
X153534166Y-76393226D02*
X153534166Y-75693226D01*
X154000833Y-75693226D02*
X154134166Y-75693226D01*
X154200833Y-75726560D01*
X154267500Y-75793226D01*
X154300833Y-75926560D01*
X154300833Y-76159893D01*
X154267500Y-76293226D01*
X154200833Y-76359893D01*
X154134166Y-76393226D01*
X154000833Y-76393226D01*
X153934166Y-76359893D01*
X153867500Y-76293226D01*
X153834166Y-76159893D01*
X153834166Y-75926560D01*
X153867500Y-75793226D01*
X153934166Y-75726560D01*
X154000833Y-75693226D01*
X154534166Y-75693226D02*
X154967500Y-75693226D01*
X154734166Y-75959893D01*
X154834166Y-75959893D01*
X154900833Y-75993226D01*
X154934166Y-76026560D01*
X154967500Y-76093226D01*
X154967500Y-76259893D01*
X154934166Y-76326560D01*
X154900833Y-76359893D01*
X154834166Y-76393226D01*
X154634166Y-76393226D01*
X154567500Y-76359893D01*
X154534166Y-76326560D01*
X155200833Y-75693226D02*
X155634166Y-75693226D01*
X155400833Y-75959893D01*
X155500833Y-75959893D01*
X155567500Y-75993226D01*
X155600833Y-76026560D01*
X155634166Y-76093226D01*
X155634166Y-76259893D01*
X155600833Y-76326560D01*
X155567500Y-76359893D01*
X155500833Y-76393226D01*
X155300833Y-76393226D01*
X155234166Y-76359893D01*
X155200833Y-76326560D01*
X172032500Y-88426560D02*
X171965833Y-88393226D01*
X171865833Y-88393226D01*
X171765833Y-88426560D01*
X171699166Y-88493226D01*
X171665833Y-88559893D01*
X171632500Y-88693226D01*
X171632500Y-88793226D01*
X171665833Y-88926560D01*
X171699166Y-88993226D01*
X171765833Y-89059893D01*
X171865833Y-89093226D01*
X171932500Y-89093226D01*
X172032500Y-89059893D01*
X172065833Y-89026560D01*
X172065833Y-88793226D01*
X171932500Y-88793226D01*
X172365833Y-89093226D02*
X172365833Y-88393226D01*
X172632500Y-88393226D01*
X172699166Y-88426560D01*
X172732500Y-88459893D01*
X172765833Y-88526560D01*
X172765833Y-88626560D01*
X172732500Y-88693226D01*
X172699166Y-88726560D01*
X172632500Y-88759893D01*
X172365833Y-88759893D01*
X173065833Y-89093226D02*
X173065833Y-88393226D01*
X173532500Y-88393226D02*
X173665833Y-88393226D01*
X173732500Y-88426560D01*
X173799166Y-88493226D01*
X173832500Y-88626560D01*
X173832500Y-88859893D01*
X173799166Y-88993226D01*
X173732500Y-89059893D01*
X173665833Y-89093226D01*
X173532500Y-89093226D01*
X173465833Y-89059893D01*
X173399166Y-88993226D01*
X173365833Y-88859893D01*
X173365833Y-88626560D01*
X173399166Y-88493226D01*
X173465833Y-88426560D01*
X173532500Y-88393226D01*
X174432500Y-88626560D02*
X174432500Y-89093226D01*
X174265833Y-88359893D02*
X174099166Y-88859893D01*
X174532500Y-88859893D01*
X173432500Y-99253226D02*
X173432500Y-98553226D01*
X173599166Y-98553226D01*
X173699166Y-98586560D01*
X173765833Y-98653226D01*
X173799166Y-98719893D01*
X173832500Y-98853226D01*
X173832500Y-98953226D01*
X173799166Y-99086560D01*
X173765833Y-99153226D01*
X173699166Y-99219893D01*
X173599166Y-99253226D01*
X173432500Y-99253226D01*
X174499166Y-99253226D02*
X174099166Y-99253226D01*
X174299166Y-99253226D02*
X174299166Y-98553226D01*
X174232500Y-98653226D01*
X174165833Y-98719893D01*
X174099166Y-98753226D01*
X167865833Y-96046560D02*
X167799166Y-96013226D01*
X167699166Y-96013226D01*
X167599166Y-96046560D01*
X167532500Y-96113226D01*
X167499166Y-96179893D01*
X167465833Y-96313226D01*
X167465833Y-96413226D01*
X167499166Y-96546560D01*
X167532500Y-96613226D01*
X167599166Y-96679893D01*
X167699166Y-96713226D01*
X167765833Y-96713226D01*
X167865833Y-96679893D01*
X167899166Y-96646560D01*
X167899166Y-96413226D01*
X167765833Y-96413226D01*
X168199166Y-96713226D02*
X168199166Y-96013226D01*
X168465833Y-96013226D01*
X168532500Y-96046560D01*
X168565833Y-96079893D01*
X168599166Y-96146560D01*
X168599166Y-96246560D01*
X168565833Y-96313226D01*
X168532500Y-96346560D01*
X168465833Y-96379893D01*
X168199166Y-96379893D01*
X168899166Y-96713226D02*
X168899166Y-96013226D01*
X169365833Y-96013226D02*
X169499166Y-96013226D01*
X169565833Y-96046560D01*
X169632500Y-96113226D01*
X169665833Y-96246560D01*
X169665833Y-96479893D01*
X169632500Y-96613226D01*
X169565833Y-96679893D01*
X169499166Y-96713226D01*
X169365833Y-96713226D01*
X169299166Y-96679893D01*
X169232500Y-96613226D01*
X169199166Y-96479893D01*
X169199166Y-96246560D01*
X169232500Y-96113226D01*
X169299166Y-96046560D01*
X169365833Y-96013226D01*
X170332500Y-96713226D02*
X169932500Y-96713226D01*
X170132500Y-96713226D02*
X170132500Y-96013226D01*
X170065833Y-96113226D01*
X169999166Y-96179893D01*
X169932500Y-96213226D01*
X170965833Y-96013226D02*
X170632500Y-96013226D01*
X170599166Y-96346560D01*
X170632500Y-96313226D01*
X170699166Y-96279893D01*
X170865833Y-96279893D01*
X170932500Y-96313226D01*
X170965833Y-96346560D01*
X170999166Y-96413226D01*
X170999166Y-96579893D01*
X170965833Y-96646560D01*
X170932500Y-96679893D01*
X170865833Y-96713226D01*
X170699166Y-96713226D01*
X170632500Y-96679893D01*
X170599166Y-96646560D01*
X171799166Y-95979893D02*
X171199166Y-96879893D01*
X172032500Y-96713226D02*
X172032500Y-96013226D01*
X172265833Y-96513226D01*
X172499166Y-96013226D01*
X172499166Y-96713226D01*
X172732500Y-96013226D02*
X173132500Y-96013226D01*
X172932500Y-96713226D02*
X172932500Y-96013226D01*
X173365833Y-96713226D02*
X173365833Y-96013226D01*
X173532500Y-96013226D01*
X173632500Y-96046560D01*
X173699166Y-96113226D01*
X173732500Y-96179893D01*
X173765833Y-96313226D01*
X173765833Y-96413226D01*
X173732500Y-96546560D01*
X173699166Y-96613226D01*
X173632500Y-96679893D01*
X173532500Y-96713226D01*
X173365833Y-96713226D01*
X174199166Y-96013226D02*
X174332500Y-96013226D01*
X174399166Y-96046560D01*
X174465833Y-96113226D01*
X174499166Y-96246560D01*
X174499166Y-96479893D01*
X174465833Y-96613226D01*
X174399166Y-96679893D01*
X174332500Y-96713226D01*
X174199166Y-96713226D01*
X174132500Y-96679893D01*
X174065833Y-96613226D01*
X174032500Y-96479893D01*
X174032500Y-96246560D01*
X174065833Y-96113226D01*
X174132500Y-96046560D01*
X174199166Y-96013226D01*
X152500833Y-70646560D02*
X152434166Y-70613226D01*
X152334166Y-70613226D01*
X152234166Y-70646560D01*
X152167500Y-70713226D01*
X152134166Y-70779893D01*
X152100833Y-70913226D01*
X152100833Y-71013226D01*
X152134166Y-71146560D01*
X152167500Y-71213226D01*
X152234166Y-71279893D01*
X152334166Y-71313226D01*
X152400833Y-71313226D01*
X152500833Y-71279893D01*
X152534166Y-71246560D01*
X152534166Y-71013226D01*
X152400833Y-71013226D01*
X152834166Y-71313226D02*
X152834166Y-70613226D01*
X153100833Y-70613226D01*
X153167500Y-70646560D01*
X153200833Y-70679893D01*
X153234166Y-70746560D01*
X153234166Y-70846560D01*
X153200833Y-70913226D01*
X153167500Y-70946560D01*
X153100833Y-70979893D01*
X152834166Y-70979893D01*
X153534166Y-71313226D02*
X153534166Y-70613226D01*
X154000833Y-70613226D02*
X154134166Y-70613226D01*
X154200833Y-70646560D01*
X154267500Y-70713226D01*
X154300833Y-70846560D01*
X154300833Y-71079893D01*
X154267500Y-71213226D01*
X154200833Y-71279893D01*
X154134166Y-71313226D01*
X154000833Y-71313226D01*
X153934166Y-71279893D01*
X153867500Y-71213226D01*
X153834166Y-71079893D01*
X153834166Y-70846560D01*
X153867500Y-70713226D01*
X153934166Y-70646560D01*
X154000833Y-70613226D01*
X154534166Y-70613226D02*
X154967500Y-70613226D01*
X154734166Y-70879893D01*
X154834166Y-70879893D01*
X154900833Y-70913226D01*
X154934166Y-70946560D01*
X154967500Y-71013226D01*
X154967500Y-71179893D01*
X154934166Y-71246560D01*
X154900833Y-71279893D01*
X154834166Y-71313226D01*
X154634166Y-71313226D01*
X154567500Y-71279893D01*
X154534166Y-71246560D01*
X155600833Y-70613226D02*
X155267500Y-70613226D01*
X155234166Y-70946560D01*
X155267500Y-70913226D01*
X155334166Y-70879893D01*
X155500833Y-70879893D01*
X155567500Y-70913226D01*
X155600833Y-70946560D01*
X155634166Y-71013226D01*
X155634166Y-71179893D01*
X155600833Y-71246560D01*
X155567500Y-71279893D01*
X155500833Y-71313226D01*
X155334166Y-71313226D01*
X155267500Y-71279893D01*
X155234166Y-71246560D01*
X152134166Y-96713226D02*
X152134166Y-96013226D01*
X152300833Y-96013226D01*
X152400833Y-96046560D01*
X152467500Y-96113226D01*
X152500833Y-96179893D01*
X152534166Y-96313226D01*
X152534166Y-96413226D01*
X152500833Y-96546560D01*
X152467500Y-96613226D01*
X152400833Y-96679893D01*
X152300833Y-96713226D01*
X152134166Y-96713226D01*
X152800833Y-96079893D02*
X152834166Y-96046560D01*
X152900833Y-96013226D01*
X153067500Y-96013226D01*
X153134166Y-96046560D01*
X153167500Y-96079893D01*
X153200833Y-96146560D01*
X153200833Y-96213226D01*
X153167500Y-96313226D01*
X152767500Y-96713226D01*
X153200833Y-96713226D01*
X152500833Y-80806560D02*
X152434166Y-80773226D01*
X152334166Y-80773226D01*
X152234166Y-80806560D01*
X152167500Y-80873226D01*
X152134166Y-80939893D01*
X152100833Y-81073226D01*
X152100833Y-81173226D01*
X152134166Y-81306560D01*
X152167500Y-81373226D01*
X152234166Y-81439893D01*
X152334166Y-81473226D01*
X152400833Y-81473226D01*
X152500833Y-81439893D01*
X152534166Y-81406560D01*
X152534166Y-81173226D01*
X152400833Y-81173226D01*
X152834166Y-81473226D02*
X152834166Y-80773226D01*
X153100833Y-80773226D01*
X153167500Y-80806560D01*
X153200833Y-80839893D01*
X153234166Y-80906560D01*
X153234166Y-81006560D01*
X153200833Y-81073226D01*
X153167500Y-81106560D01*
X153100833Y-81139893D01*
X152834166Y-81139893D01*
X153534166Y-81473226D02*
X153534166Y-80773226D01*
X154000833Y-80773226D02*
X154134166Y-80773226D01*
X154200833Y-80806560D01*
X154267500Y-80873226D01*
X154300833Y-81006560D01*
X154300833Y-81239893D01*
X154267500Y-81373226D01*
X154200833Y-81439893D01*
X154134166Y-81473226D01*
X154000833Y-81473226D01*
X153934166Y-81439893D01*
X153867500Y-81373226D01*
X153834166Y-81239893D01*
X153834166Y-81006560D01*
X153867500Y-80873226D01*
X153934166Y-80806560D01*
X154000833Y-80773226D01*
X154567500Y-80839893D02*
X154600833Y-80806560D01*
X154667500Y-80773226D01*
X154834166Y-80773226D01*
X154900833Y-80806560D01*
X154934166Y-80839893D01*
X154967500Y-80906560D01*
X154967500Y-80973226D01*
X154934166Y-81073226D01*
X154534166Y-81473226D01*
X154967500Y-81473226D01*
X155567500Y-80773226D02*
X155434166Y-80773226D01*
X155367500Y-80806560D01*
X155334166Y-80839893D01*
X155267500Y-80939893D01*
X155234166Y-81073226D01*
X155234166Y-81339893D01*
X155267500Y-81406560D01*
X155300833Y-81439893D01*
X155367500Y-81473226D01*
X155500833Y-81473226D01*
X155567500Y-81439893D01*
X155600833Y-81406560D01*
X155634166Y-81339893D01*
X155634166Y-81173226D01*
X155600833Y-81106560D01*
X155567500Y-81073226D01*
X155500833Y-81039893D01*
X155367500Y-81039893D01*
X155300833Y-81073226D01*
X155267500Y-81106560D01*
X155234166Y-81173226D01*
X171365833Y-63026560D02*
X171299166Y-62993226D01*
X171199166Y-62993226D01*
X171099166Y-63026560D01*
X171032500Y-63093226D01*
X170999166Y-63159893D01*
X170965833Y-63293226D01*
X170965833Y-63393226D01*
X170999166Y-63526560D01*
X171032500Y-63593226D01*
X171099166Y-63659893D01*
X171199166Y-63693226D01*
X171265833Y-63693226D01*
X171365833Y-63659893D01*
X171399166Y-63626560D01*
X171399166Y-63393226D01*
X171265833Y-63393226D01*
X171699166Y-63693226D02*
X171699166Y-62993226D01*
X171965833Y-62993226D01*
X172032500Y-63026560D01*
X172065833Y-63059893D01*
X172099166Y-63126560D01*
X172099166Y-63226560D01*
X172065833Y-63293226D01*
X172032500Y-63326560D01*
X171965833Y-63359893D01*
X171699166Y-63359893D01*
X172399166Y-63693226D02*
X172399166Y-62993226D01*
X172865833Y-62993226D02*
X172999166Y-62993226D01*
X173065833Y-63026560D01*
X173132500Y-63093226D01*
X173165833Y-63226560D01*
X173165833Y-63459893D01*
X173132500Y-63593226D01*
X173065833Y-63659893D01*
X172999166Y-63693226D01*
X172865833Y-63693226D01*
X172799166Y-63659893D01*
X172732500Y-63593226D01*
X172699166Y-63459893D01*
X172699166Y-63226560D01*
X172732500Y-63093226D01*
X172799166Y-63026560D01*
X172865833Y-62993226D01*
X173432500Y-63059893D02*
X173465833Y-63026560D01*
X173532500Y-62993226D01*
X173699166Y-62993226D01*
X173765833Y-63026560D01*
X173799166Y-63059893D01*
X173832500Y-63126560D01*
X173832500Y-63193226D01*
X173799166Y-63293226D01*
X173399166Y-63693226D01*
X173832500Y-63693226D01*
X174099166Y-63059893D02*
X174132500Y-63026560D01*
X174199166Y-62993226D01*
X174365833Y-62993226D01*
X174432500Y-63026560D01*
X174465833Y-63059893D01*
X174499166Y-63126560D01*
X174499166Y-63193226D01*
X174465833Y-63293226D01*
X174065833Y-63693226D01*
X174499166Y-63693226D01*
X172032500Y-80806560D02*
X171965833Y-80773226D01*
X171865833Y-80773226D01*
X171765833Y-80806560D01*
X171699166Y-80873226D01*
X171665833Y-80939893D01*
X171632500Y-81073226D01*
X171632500Y-81173226D01*
X171665833Y-81306560D01*
X171699166Y-81373226D01*
X171765833Y-81439893D01*
X171865833Y-81473226D01*
X171932500Y-81473226D01*
X172032500Y-81439893D01*
X172065833Y-81406560D01*
X172065833Y-81173226D01*
X171932500Y-81173226D01*
X172365833Y-81473226D02*
X172365833Y-80773226D01*
X172632500Y-80773226D01*
X172699166Y-80806560D01*
X172732500Y-80839893D01*
X172765833Y-80906560D01*
X172765833Y-81006560D01*
X172732500Y-81073226D01*
X172699166Y-81106560D01*
X172632500Y-81139893D01*
X172365833Y-81139893D01*
X173065833Y-81473226D02*
X173065833Y-80773226D01*
X173532500Y-80773226D02*
X173665833Y-80773226D01*
X173732500Y-80806560D01*
X173799166Y-80873226D01*
X173832500Y-81006560D01*
X173832500Y-81239893D01*
X173799166Y-81373226D01*
X173732500Y-81439893D01*
X173665833Y-81473226D01*
X173532500Y-81473226D01*
X173465833Y-81439893D01*
X173399166Y-81373226D01*
X173365833Y-81239893D01*
X173365833Y-81006560D01*
X173399166Y-80873226D01*
X173465833Y-80806560D01*
X173532500Y-80773226D01*
X174465833Y-80773226D02*
X174132500Y-80773226D01*
X174099166Y-81106560D01*
X174132500Y-81073226D01*
X174199166Y-81039893D01*
X174365833Y-81039893D01*
X174432500Y-81073226D01*
X174465833Y-81106560D01*
X174499166Y-81173226D01*
X174499166Y-81339893D01*
X174465833Y-81406560D01*
X174432500Y-81439893D01*
X174365833Y-81473226D01*
X174199166Y-81473226D01*
X174132500Y-81439893D01*
X174099166Y-81406560D01*
X167832500Y-68106560D02*
X167765833Y-68073226D01*
X167665833Y-68073226D01*
X167565833Y-68106560D01*
X167499166Y-68173226D01*
X167465833Y-68239893D01*
X167432500Y-68373226D01*
X167432500Y-68473226D01*
X167465833Y-68606560D01*
X167499166Y-68673226D01*
X167565833Y-68739893D01*
X167665833Y-68773226D01*
X167732500Y-68773226D01*
X167832500Y-68739893D01*
X167865833Y-68706560D01*
X167865833Y-68473226D01*
X167732500Y-68473226D01*
X168165833Y-68773226D02*
X168165833Y-68073226D01*
X168432500Y-68073226D01*
X168499166Y-68106560D01*
X168532500Y-68139893D01*
X168565833Y-68206560D01*
X168565833Y-68306560D01*
X168532500Y-68373226D01*
X168499166Y-68406560D01*
X168432500Y-68439893D01*
X168165833Y-68439893D01*
X168865833Y-68773226D02*
X168865833Y-68073226D01*
X169332500Y-68073226D02*
X169465833Y-68073226D01*
X169532500Y-68106560D01*
X169599166Y-68173226D01*
X169632500Y-68306560D01*
X169632500Y-68539893D01*
X169599166Y-68673226D01*
X169532500Y-68739893D01*
X169465833Y-68773226D01*
X169332500Y-68773226D01*
X169265833Y-68739893D01*
X169199166Y-68673226D01*
X169165833Y-68539893D01*
X169165833Y-68306560D01*
X169199166Y-68173226D01*
X169265833Y-68106560D01*
X169332500Y-68073226D01*
X169865833Y-68073226D02*
X170299166Y-68073226D01*
X170065833Y-68339893D01*
X170165833Y-68339893D01*
X170232500Y-68373226D01*
X170265833Y-68406560D01*
X170299166Y-68473226D01*
X170299166Y-68639893D01*
X170265833Y-68706560D01*
X170232500Y-68739893D01*
X170165833Y-68773226D01*
X169965833Y-68773226D01*
X169899166Y-68739893D01*
X169865833Y-68706560D01*
X171099166Y-68039893D02*
X170499166Y-68939893D01*
X171332500Y-68073226D02*
X171332500Y-68639893D01*
X171365833Y-68706560D01*
X171399166Y-68739893D01*
X171465833Y-68773226D01*
X171599166Y-68773226D01*
X171665833Y-68739893D01*
X171699166Y-68706560D01*
X171732500Y-68639893D01*
X171732500Y-68073226D01*
X172199166Y-68073226D02*
X172265833Y-68073226D01*
X172332500Y-68106560D01*
X172365833Y-68139893D01*
X172399166Y-68206560D01*
X172432500Y-68339893D01*
X172432500Y-68506560D01*
X172399166Y-68639893D01*
X172365833Y-68706560D01*
X172332500Y-68739893D01*
X172265833Y-68773226D01*
X172199166Y-68773226D01*
X172132500Y-68739893D01*
X172099166Y-68706560D01*
X172065833Y-68639893D01*
X172032500Y-68506560D01*
X172032500Y-68339893D01*
X172065833Y-68206560D01*
X172099166Y-68139893D01*
X172132500Y-68106560D01*
X172199166Y-68073226D01*
X173132500Y-68773226D02*
X172899166Y-68439893D01*
X172732500Y-68773226D02*
X172732500Y-68073226D01*
X172999166Y-68073226D01*
X173065833Y-68106560D01*
X173099166Y-68139893D01*
X173132500Y-68206560D01*
X173132500Y-68306560D01*
X173099166Y-68373226D01*
X173065833Y-68406560D01*
X172999166Y-68439893D01*
X172732500Y-68439893D01*
X173365833Y-68073226D02*
X173832500Y-68773226D01*
X173832500Y-68073226D02*
X173365833Y-68773226D01*
X174099166Y-68773226D02*
X174099166Y-68073226D01*
X174265833Y-68073226D01*
X174365833Y-68106560D01*
X174432500Y-68173226D01*
X174465833Y-68239893D01*
X174499166Y-68373226D01*
X174499166Y-68473226D01*
X174465833Y-68606560D01*
X174432500Y-68673226D01*
X174365833Y-68739893D01*
X174265833Y-68773226D01*
X174099166Y-68773226D01*
X152500833Y-83346560D02*
X152434166Y-83313226D01*
X152334166Y-83313226D01*
X152234166Y-83346560D01*
X152167500Y-83413226D01*
X152134166Y-83479893D01*
X152100833Y-83613226D01*
X152100833Y-83713226D01*
X152134166Y-83846560D01*
X152167500Y-83913226D01*
X152234166Y-83979893D01*
X152334166Y-84013226D01*
X152400833Y-84013226D01*
X152500833Y-83979893D01*
X152534166Y-83946560D01*
X152534166Y-83713226D01*
X152400833Y-83713226D01*
X152834166Y-84013226D02*
X152834166Y-83313226D01*
X153100833Y-83313226D01*
X153167500Y-83346560D01*
X153200833Y-83379893D01*
X153234166Y-83446560D01*
X153234166Y-83546560D01*
X153200833Y-83613226D01*
X153167500Y-83646560D01*
X153100833Y-83679893D01*
X152834166Y-83679893D01*
X153534166Y-84013226D02*
X153534166Y-83313226D01*
X154000833Y-83313226D02*
X154134166Y-83313226D01*
X154200833Y-83346560D01*
X154267500Y-83413226D01*
X154300833Y-83546560D01*
X154300833Y-83779893D01*
X154267500Y-83913226D01*
X154200833Y-83979893D01*
X154134166Y-84013226D01*
X154000833Y-84013226D01*
X153934166Y-83979893D01*
X153867500Y-83913226D01*
X153834166Y-83779893D01*
X153834166Y-83546560D01*
X153867500Y-83413226D01*
X153934166Y-83346560D01*
X154000833Y-83313226D01*
X154567500Y-83379893D02*
X154600833Y-83346560D01*
X154667500Y-83313226D01*
X154834166Y-83313226D01*
X154900833Y-83346560D01*
X154934166Y-83379893D01*
X154967500Y-83446560D01*
X154967500Y-83513226D01*
X154934166Y-83613226D01*
X154534166Y-84013226D01*
X154967500Y-84013226D01*
X155200833Y-83313226D02*
X155667500Y-83313226D01*
X155367500Y-84013226D01*
X171365833Y-83346560D02*
X171299166Y-83313226D01*
X171199166Y-83313226D01*
X171099166Y-83346560D01*
X171032500Y-83413226D01*
X170999166Y-83479893D01*
X170965833Y-83613226D01*
X170965833Y-83713226D01*
X170999166Y-83846560D01*
X171032500Y-83913226D01*
X171099166Y-83979893D01*
X171199166Y-84013226D01*
X171265833Y-84013226D01*
X171365833Y-83979893D01*
X171399166Y-83946560D01*
X171399166Y-83713226D01*
X171265833Y-83713226D01*
X171699166Y-84013226D02*
X171699166Y-83313226D01*
X171965833Y-83313226D01*
X172032500Y-83346560D01*
X172065833Y-83379893D01*
X172099166Y-83446560D01*
X172099166Y-83546560D01*
X172065833Y-83613226D01*
X172032500Y-83646560D01*
X171965833Y-83679893D01*
X171699166Y-83679893D01*
X172399166Y-84013226D02*
X172399166Y-83313226D01*
X172865833Y-83313226D02*
X172999166Y-83313226D01*
X173065833Y-83346560D01*
X173132500Y-83413226D01*
X173165833Y-83546560D01*
X173165833Y-83779893D01*
X173132500Y-83913226D01*
X173065833Y-83979893D01*
X172999166Y-84013226D01*
X172865833Y-84013226D01*
X172799166Y-83979893D01*
X172732500Y-83913226D01*
X172699166Y-83779893D01*
X172699166Y-83546560D01*
X172732500Y-83413226D01*
X172799166Y-83346560D01*
X172865833Y-83313226D01*
X173832500Y-84013226D02*
X173432500Y-84013226D01*
X173632500Y-84013226D02*
X173632500Y-83313226D01*
X173565833Y-83413226D01*
X173499166Y-83479893D01*
X173432500Y-83513226D01*
X174065833Y-83313226D02*
X174532500Y-83313226D01*
X174232500Y-84013226D01*
X173432500Y-101793226D02*
X173432500Y-101093226D01*
X173599166Y-101093226D01*
X173699166Y-101126560D01*
X173765833Y-101193226D01*
X173799166Y-101259893D01*
X173832500Y-101393226D01*
X173832500Y-101493226D01*
X173799166Y-101626560D01*
X173765833Y-101693226D01*
X173699166Y-101759893D01*
X173599166Y-101793226D01*
X173432500Y-101793226D01*
X174265833Y-101093226D02*
X174332500Y-101093226D01*
X174399166Y-101126560D01*
X174432500Y-101159893D01*
X174465833Y-101226560D01*
X174499166Y-101359893D01*
X174499166Y-101526560D01*
X174465833Y-101659893D01*
X174432500Y-101726560D01*
X174399166Y-101759893D01*
X174332500Y-101793226D01*
X174265833Y-101793226D01*
X174199166Y-101759893D01*
X174165833Y-101726560D01*
X174132500Y-101659893D01*
X174099166Y-101526560D01*
X174099166Y-101359893D01*
X174132500Y-101226560D01*
X174165833Y-101159893D01*
X174199166Y-101126560D01*
X174265833Y-101093226D01*
X167999166Y-65566560D02*
X167932500Y-65533226D01*
X167832500Y-65533226D01*
X167732500Y-65566560D01*
X167665833Y-65633226D01*
X167632500Y-65699893D01*
X167599166Y-65833226D01*
X167599166Y-65933226D01*
X167632500Y-66066560D01*
X167665833Y-66133226D01*
X167732500Y-66199893D01*
X167832500Y-66233226D01*
X167899166Y-66233226D01*
X167999166Y-66199893D01*
X168032500Y-66166560D01*
X168032500Y-65933226D01*
X167899166Y-65933226D01*
X168332500Y-66233226D02*
X168332500Y-65533226D01*
X168599166Y-65533226D01*
X168665833Y-65566560D01*
X168699166Y-65599893D01*
X168732500Y-65666560D01*
X168732500Y-65766560D01*
X168699166Y-65833226D01*
X168665833Y-65866560D01*
X168599166Y-65899893D01*
X168332500Y-65899893D01*
X169032500Y-66233226D02*
X169032500Y-65533226D01*
X169499166Y-65533226D02*
X169632500Y-65533226D01*
X169699166Y-65566560D01*
X169765833Y-65633226D01*
X169799166Y-65766560D01*
X169799166Y-65999893D01*
X169765833Y-66133226D01*
X169699166Y-66199893D01*
X169632500Y-66233226D01*
X169499166Y-66233226D01*
X169432500Y-66199893D01*
X169365833Y-66133226D01*
X169332500Y-65999893D01*
X169332500Y-65766560D01*
X169365833Y-65633226D01*
X169432500Y-65566560D01*
X169499166Y-65533226D01*
X170465833Y-66233226D02*
X170065833Y-66233226D01*
X170265833Y-66233226D02*
X170265833Y-65533226D01*
X170199166Y-65633226D01*
X170132500Y-65699893D01*
X170065833Y-65733226D01*
X171265833Y-65499893D02*
X170665833Y-66399893D01*
X171499166Y-65533226D02*
X171499166Y-66099893D01*
X171532500Y-66166560D01*
X171565833Y-66199893D01*
X171632500Y-66233226D01*
X171765833Y-66233226D01*
X171832500Y-66199893D01*
X171865833Y-66166560D01*
X171899166Y-66099893D01*
X171899166Y-65533226D01*
X172365833Y-65533226D02*
X172432500Y-65533226D01*
X172499166Y-65566560D01*
X172532500Y-65599893D01*
X172565833Y-65666560D01*
X172599166Y-65799893D01*
X172599166Y-65966560D01*
X172565833Y-66099893D01*
X172532500Y-66166560D01*
X172499166Y-66199893D01*
X172432500Y-66233226D01*
X172365833Y-66233226D01*
X172299166Y-66199893D01*
X172265833Y-66166560D01*
X172232500Y-66099893D01*
X172199166Y-65966560D01*
X172199166Y-65799893D01*
X172232500Y-65666560D01*
X172265833Y-65599893D01*
X172299166Y-65566560D01*
X172365833Y-65533226D01*
X172799166Y-65533226D02*
X173199166Y-65533226D01*
X172999166Y-66233226D02*
X172999166Y-65533226D01*
X173365833Y-65533226D02*
X173832500Y-66233226D01*
X173832500Y-65533226D02*
X173365833Y-66233226D01*
X174099166Y-66233226D02*
X174099166Y-65533226D01*
X174265833Y-65533226D01*
X174365833Y-65566560D01*
X174432500Y-65633226D01*
X174465833Y-65699893D01*
X174499166Y-65833226D01*
X174499166Y-65933226D01*
X174465833Y-66066560D01*
X174432500Y-66133226D01*
X174365833Y-66199893D01*
X174265833Y-66233226D01*
X174099166Y-66233226D01*
X152500833Y-85886560D02*
X152434166Y-85853226D01*
X152334166Y-85853226D01*
X152234166Y-85886560D01*
X152167500Y-85953226D01*
X152134166Y-86019893D01*
X152100833Y-86153226D01*
X152100833Y-86253226D01*
X152134166Y-86386560D01*
X152167500Y-86453226D01*
X152234166Y-86519893D01*
X152334166Y-86553226D01*
X152400833Y-86553226D01*
X152500833Y-86519893D01*
X152534166Y-86486560D01*
X152534166Y-86253226D01*
X152400833Y-86253226D01*
X152834166Y-86553226D02*
X152834166Y-85853226D01*
X153100833Y-85853226D01*
X153167500Y-85886560D01*
X153200833Y-85919893D01*
X153234166Y-85986560D01*
X153234166Y-86086560D01*
X153200833Y-86153226D01*
X153167500Y-86186560D01*
X153100833Y-86219893D01*
X152834166Y-86219893D01*
X153534166Y-86553226D02*
X153534166Y-85853226D01*
X154000833Y-85853226D02*
X154134166Y-85853226D01*
X154200833Y-85886560D01*
X154267500Y-85953226D01*
X154300833Y-86086560D01*
X154300833Y-86319893D01*
X154267500Y-86453226D01*
X154200833Y-86519893D01*
X154134166Y-86553226D01*
X154000833Y-86553226D01*
X153934166Y-86519893D01*
X153867500Y-86453226D01*
X153834166Y-86319893D01*
X153834166Y-86086560D01*
X153867500Y-85953226D01*
X153934166Y-85886560D01*
X154000833Y-85853226D01*
X154967500Y-86553226D02*
X154567500Y-86553226D01*
X154767500Y-86553226D02*
X154767500Y-85853226D01*
X154700833Y-85953226D01*
X154634166Y-86019893D01*
X154567500Y-86053226D01*
X155567500Y-86086560D02*
X155567500Y-86553226D01*
X155400833Y-85819893D02*
X155234166Y-86319893D01*
X155667500Y-86319893D01*
X156434166Y-85819893D02*
X155834166Y-86719893D01*
X156667500Y-86553226D02*
X156667500Y-85853226D01*
X156900833Y-86353226D01*
X157134166Y-85853226D01*
X157134166Y-86553226D01*
X157367500Y-85853226D02*
X157767500Y-85853226D01*
X157567500Y-86553226D02*
X157567500Y-85853226D01*
X158000833Y-86553226D02*
X158000833Y-85853226D01*
X158234166Y-86353226D01*
X158467500Y-85853226D01*
X158467500Y-86553226D01*
X158767500Y-86519893D02*
X158867500Y-86553226D01*
X159034166Y-86553226D01*
X159100833Y-86519893D01*
X159134166Y-86486560D01*
X159167500Y-86419893D01*
X159167500Y-86353226D01*
X159134166Y-86286560D01*
X159100833Y-86253226D01*
X159034166Y-86219893D01*
X158900833Y-86186560D01*
X158834166Y-86153226D01*
X158800833Y-86119893D01*
X158767500Y-86053226D01*
X158767500Y-85986560D01*
X158800833Y-85919893D01*
X158834166Y-85886560D01*
X158900833Y-85853226D01*
X159067500Y-85853226D01*
X159167500Y-85886560D01*
X171365833Y-85886560D02*
X171299166Y-85853226D01*
X171199166Y-85853226D01*
X171099166Y-85886560D01*
X171032500Y-85953226D01*
X170999166Y-86019893D01*
X170965833Y-86153226D01*
X170965833Y-86253226D01*
X170999166Y-86386560D01*
X171032500Y-86453226D01*
X171099166Y-86519893D01*
X171199166Y-86553226D01*
X171265833Y-86553226D01*
X171365833Y-86519893D01*
X171399166Y-86486560D01*
X171399166Y-86253226D01*
X171265833Y-86253226D01*
X171699166Y-86553226D02*
X171699166Y-85853226D01*
X171965833Y-85853226D01*
X172032500Y-85886560D01*
X172065833Y-85919893D01*
X172099166Y-85986560D01*
X172099166Y-86086560D01*
X172065833Y-86153226D01*
X172032500Y-86186560D01*
X171965833Y-86219893D01*
X171699166Y-86219893D01*
X172399166Y-86553226D02*
X172399166Y-85853226D01*
X172865833Y-85853226D02*
X172999166Y-85853226D01*
X173065833Y-85886560D01*
X173132500Y-85953226D01*
X173165833Y-86086560D01*
X173165833Y-86319893D01*
X173132500Y-86453226D01*
X173065833Y-86519893D01*
X172999166Y-86553226D01*
X172865833Y-86553226D01*
X172799166Y-86519893D01*
X172732500Y-86453226D01*
X172699166Y-86319893D01*
X172699166Y-86086560D01*
X172732500Y-85953226D01*
X172799166Y-85886560D01*
X172865833Y-85853226D01*
X173832500Y-86553226D02*
X173432500Y-86553226D01*
X173632500Y-86553226D02*
X173632500Y-85853226D01*
X173565833Y-85953226D01*
X173499166Y-86019893D01*
X173432500Y-86053226D01*
X174432500Y-85853226D02*
X174299166Y-85853226D01*
X174232500Y-85886560D01*
X174199166Y-85919893D01*
X174132500Y-86019893D01*
X174099166Y-86153226D01*
X174099166Y-86419893D01*
X174132500Y-86486560D01*
X174165833Y-86519893D01*
X174232500Y-86553226D01*
X174365833Y-86553226D01*
X174432500Y-86519893D01*
X174465833Y-86486560D01*
X174499166Y-86419893D01*
X174499166Y-86253226D01*
X174465833Y-86186560D01*
X174432500Y-86153226D01*
X174365833Y-86119893D01*
X174232500Y-86119893D01*
X174165833Y-86153226D01*
X174132500Y-86186560D01*
X174099166Y-86253226D01*
X152678105Y-103720220D02*
X152201915Y-103720220D01*
X152154296Y-104196411D01*
X152201915Y-104148792D01*
X152297153Y-104101173D01*
X152535248Y-104101173D01*
X152630486Y-104148792D01*
X152678105Y-104196411D01*
X152725724Y-104291649D01*
X152725724Y-104529744D01*
X152678105Y-104624982D01*
X152630486Y-104672601D01*
X152535248Y-104720220D01*
X152297153Y-104720220D01*
X152201915Y-104672601D01*
X152154296Y-104624982D01*
X153011439Y-103720220D02*
X153344772Y-104720220D01*
X153678105Y-103720220D01*
X152034166Y-62993226D02*
X152267500Y-63693226D01*
X152500833Y-62993226D01*
X152734166Y-63693226D02*
X152734166Y-62993226D01*
X153000833Y-62993226D01*
X153067500Y-63026560D01*
X153100833Y-63059893D01*
X153134166Y-63126560D01*
X153134166Y-63226560D01*
X153100833Y-63293226D01*
X153067500Y-63326560D01*
X153000833Y-63359893D01*
X152734166Y-63359893D01*
X153934166Y-62959893D02*
X153334166Y-63859893D01*
X154534166Y-63026560D02*
X154467500Y-62993226D01*
X154367500Y-62993226D01*
X154267500Y-63026560D01*
X154200833Y-63093226D01*
X154167500Y-63159893D01*
X154134166Y-63293226D01*
X154134166Y-63393226D01*
X154167500Y-63526560D01*
X154200833Y-63593226D01*
X154267500Y-63659893D01*
X154367500Y-63693226D01*
X154434166Y-63693226D01*
X154534166Y-63659893D01*
X154567500Y-63626560D01*
X154567500Y-63393226D01*
X154434166Y-63393226D01*
X154867500Y-63693226D02*
X154867500Y-62993226D01*
X155134166Y-62993226D01*
X155200833Y-63026560D01*
X155234166Y-63059893D01*
X155267500Y-63126560D01*
X155267500Y-63226560D01*
X155234166Y-63293226D01*
X155200833Y-63326560D01*
X155134166Y-63359893D01*
X154867500Y-63359893D01*
X155567500Y-63693226D02*
X155567500Y-62993226D01*
X156034166Y-62993226D02*
X156167500Y-62993226D01*
X156234166Y-63026560D01*
X156300833Y-63093226D01*
X156334166Y-63226560D01*
X156334166Y-63459893D01*
X156300833Y-63593226D01*
X156234166Y-63659893D01*
X156167500Y-63693226D01*
X156034166Y-63693226D01*
X155967500Y-63659893D01*
X155900833Y-63593226D01*
X155867500Y-63459893D01*
X155867500Y-63226560D01*
X155900833Y-63093226D01*
X155967500Y-63026560D01*
X156034166Y-62993226D01*
X156567500Y-62993226D02*
X157000833Y-62993226D01*
X156767500Y-63259893D01*
X156867500Y-63259893D01*
X156934166Y-63293226D01*
X156967500Y-63326560D01*
X157000833Y-63393226D01*
X157000833Y-63559893D01*
X156967500Y-63626560D01*
X156934166Y-63659893D01*
X156867500Y-63693226D01*
X156667500Y-63693226D01*
X156600833Y-63659893D01*
X156567500Y-63626560D01*
X157600833Y-62993226D02*
X157467500Y-62993226D01*
X157400833Y-63026560D01*
X157367500Y-63059893D01*
X157300833Y-63159893D01*
X157267500Y-63293226D01*
X157267500Y-63559893D01*
X157300833Y-63626560D01*
X157334166Y-63659893D01*
X157400833Y-63693226D01*
X157534166Y-63693226D01*
X157600833Y-63659893D01*
X157634166Y-63626560D01*
X157667500Y-63559893D01*
X157667500Y-63393226D01*
X157634166Y-63326560D01*
X157600833Y-63293226D01*
X157534166Y-63259893D01*
X157400833Y-63259893D01*
X157334166Y-63293226D01*
X157300833Y-63326560D01*
X157267500Y-63393226D01*
X152729404Y-90816560D02*
X152634166Y-90768940D01*
X152491309Y-90768940D01*
X152348452Y-90816560D01*
X152253214Y-90911798D01*
X152205595Y-91007036D01*
X152157976Y-91197512D01*
X152157976Y-91340369D01*
X152205595Y-91530845D01*
X152253214Y-91626083D01*
X152348452Y-91721321D01*
X152491309Y-91768940D01*
X152586547Y-91768940D01*
X152729404Y-91721321D01*
X152777023Y-91673702D01*
X152777023Y-91340369D01*
X152586547Y-91340369D01*
X153205595Y-91768940D02*
X153205595Y-90768940D01*
X153777023Y-91768940D01*
X153777023Y-90768940D01*
X154253214Y-91768940D02*
X154253214Y-90768940D01*
X154491309Y-90768940D01*
X154634166Y-90816560D01*
X154729404Y-90911798D01*
X154777023Y-91007036D01*
X154824642Y-91197512D01*
X154824642Y-91340369D01*
X154777023Y-91530845D01*
X154729404Y-91626083D01*
X154634166Y-91721321D01*
X154491309Y-91768940D01*
X154253214Y-91768940D01*
X152134166Y-99253226D02*
X152134166Y-98553226D01*
X152300833Y-98553226D01*
X152400833Y-98586560D01*
X152467500Y-98653226D01*
X152500833Y-98719893D01*
X152534166Y-98853226D01*
X152534166Y-98953226D01*
X152500833Y-99086560D01*
X152467500Y-99153226D01*
X152400833Y-99219893D01*
X152300833Y-99253226D01*
X152134166Y-99253226D01*
X152767500Y-98553226D02*
X153200833Y-98553226D01*
X152967500Y-98819893D01*
X153067500Y-98819893D01*
X153134166Y-98853226D01*
X153167500Y-98886560D01*
X153200833Y-98953226D01*
X153200833Y-99119893D01*
X153167500Y-99186560D01*
X153134166Y-99219893D01*
X153067500Y-99253226D01*
X152867500Y-99253226D01*
X152800833Y-99219893D01*
X152767500Y-99186560D01*
X152500833Y-78266560D02*
X152434166Y-78233226D01*
X152334166Y-78233226D01*
X152234166Y-78266560D01*
X152167500Y-78333226D01*
X152134166Y-78399893D01*
X152100833Y-78533226D01*
X152100833Y-78633226D01*
X152134166Y-78766560D01*
X152167500Y-78833226D01*
X152234166Y-78899893D01*
X152334166Y-78933226D01*
X152400833Y-78933226D01*
X152500833Y-78899893D01*
X152534166Y-78866560D01*
X152534166Y-78633226D01*
X152400833Y-78633226D01*
X152834166Y-78933226D02*
X152834166Y-78233226D01*
X153100833Y-78233226D01*
X153167500Y-78266560D01*
X153200833Y-78299893D01*
X153234166Y-78366560D01*
X153234166Y-78466560D01*
X153200833Y-78533226D01*
X153167500Y-78566560D01*
X153100833Y-78599893D01*
X152834166Y-78599893D01*
X153534166Y-78933226D02*
X153534166Y-78233226D01*
X154000833Y-78233226D02*
X154134166Y-78233226D01*
X154200833Y-78266560D01*
X154267500Y-78333226D01*
X154300833Y-78466560D01*
X154300833Y-78699893D01*
X154267500Y-78833226D01*
X154200833Y-78899893D01*
X154134166Y-78933226D01*
X154000833Y-78933226D01*
X153934166Y-78899893D01*
X153867500Y-78833226D01*
X153834166Y-78699893D01*
X153834166Y-78466560D01*
X153867500Y-78333226D01*
X153934166Y-78266560D01*
X154000833Y-78233226D01*
X154567500Y-78299893D02*
X154600833Y-78266560D01*
X154667500Y-78233226D01*
X154834166Y-78233226D01*
X154900833Y-78266560D01*
X154934166Y-78299893D01*
X154967500Y-78366560D01*
X154967500Y-78433226D01*
X154934166Y-78533226D01*
X154534166Y-78933226D01*
X154967500Y-78933226D01*
X155600833Y-78233226D02*
X155267500Y-78233226D01*
X155234166Y-78566560D01*
X155267500Y-78533226D01*
X155334166Y-78499893D01*
X155500833Y-78499893D01*
X155567500Y-78533226D01*
X155600833Y-78566560D01*
X155634166Y-78633226D01*
X155634166Y-78799893D01*
X155600833Y-78866560D01*
X155567500Y-78899893D01*
X155500833Y-78933226D01*
X155334166Y-78933226D01*
X155267500Y-78899893D01*
X155234166Y-78866560D01*
X171365833Y-60486560D02*
X171299166Y-60453226D01*
X171199166Y-60453226D01*
X171099166Y-60486560D01*
X171032500Y-60553226D01*
X170999166Y-60619893D01*
X170965833Y-60753226D01*
X170965833Y-60853226D01*
X170999166Y-60986560D01*
X171032500Y-61053226D01*
X171099166Y-61119893D01*
X171199166Y-61153226D01*
X171265833Y-61153226D01*
X171365833Y-61119893D01*
X171399166Y-61086560D01*
X171399166Y-60853226D01*
X171265833Y-60853226D01*
X171699166Y-61153226D02*
X171699166Y-60453226D01*
X171965833Y-60453226D01*
X172032500Y-60486560D01*
X172065833Y-60519893D01*
X172099166Y-60586560D01*
X172099166Y-60686560D01*
X172065833Y-60753226D01*
X172032500Y-60786560D01*
X171965833Y-60819893D01*
X171699166Y-60819893D01*
X172399166Y-61153226D02*
X172399166Y-60453226D01*
X172865833Y-60453226D02*
X172999166Y-60453226D01*
X173065833Y-60486560D01*
X173132500Y-60553226D01*
X173165833Y-60686560D01*
X173165833Y-60919893D01*
X173132500Y-61053226D01*
X173065833Y-61119893D01*
X172999166Y-61153226D01*
X172865833Y-61153226D01*
X172799166Y-61119893D01*
X172732500Y-61053226D01*
X172699166Y-60919893D01*
X172699166Y-60686560D01*
X172732500Y-60553226D01*
X172799166Y-60486560D01*
X172865833Y-60453226D01*
X173432500Y-60519893D02*
X173465833Y-60486560D01*
X173532500Y-60453226D01*
X173699166Y-60453226D01*
X173765833Y-60486560D01*
X173799166Y-60519893D01*
X173832500Y-60586560D01*
X173832500Y-60653226D01*
X173799166Y-60753226D01*
X173399166Y-61153226D01*
X173832500Y-61153226D01*
X174065833Y-60453226D02*
X174499166Y-60453226D01*
X174265833Y-60719893D01*
X174365833Y-60719893D01*
X174432500Y-60753226D01*
X174465833Y-60786560D01*
X174499166Y-60853226D01*
X174499166Y-61019893D01*
X174465833Y-61086560D01*
X174432500Y-61119893D01*
X174365833Y-61153226D01*
X174165833Y-61153226D01*
X174099166Y-61119893D01*
X174065833Y-61086560D01*
X171365833Y-70646560D02*
X171299166Y-70613226D01*
X171199166Y-70613226D01*
X171099166Y-70646560D01*
X171032500Y-70713226D01*
X170999166Y-70779893D01*
X170965833Y-70913226D01*
X170965833Y-71013226D01*
X170999166Y-71146560D01*
X171032500Y-71213226D01*
X171099166Y-71279893D01*
X171199166Y-71313226D01*
X171265833Y-71313226D01*
X171365833Y-71279893D01*
X171399166Y-71246560D01*
X171399166Y-71013226D01*
X171265833Y-71013226D01*
X171699166Y-71313226D02*
X171699166Y-70613226D01*
X171965833Y-70613226D01*
X172032500Y-70646560D01*
X172065833Y-70679893D01*
X172099166Y-70746560D01*
X172099166Y-70846560D01*
X172065833Y-70913226D01*
X172032500Y-70946560D01*
X171965833Y-70979893D01*
X171699166Y-70979893D01*
X172399166Y-71313226D02*
X172399166Y-70613226D01*
X172865833Y-70613226D02*
X172999166Y-70613226D01*
X173065833Y-70646560D01*
X173132500Y-70713226D01*
X173165833Y-70846560D01*
X173165833Y-71079893D01*
X173132500Y-71213226D01*
X173065833Y-71279893D01*
X172999166Y-71313226D01*
X172865833Y-71313226D01*
X172799166Y-71279893D01*
X172732500Y-71213226D01*
X172699166Y-71079893D01*
X172699166Y-70846560D01*
X172732500Y-70713226D01*
X172799166Y-70646560D01*
X172865833Y-70613226D01*
X173432500Y-70679893D02*
X173465833Y-70646560D01*
X173532500Y-70613226D01*
X173699166Y-70613226D01*
X173765833Y-70646560D01*
X173799166Y-70679893D01*
X173832500Y-70746560D01*
X173832500Y-70813226D01*
X173799166Y-70913226D01*
X173399166Y-71313226D01*
X173832500Y-71313226D01*
X174499166Y-71313226D02*
X174099166Y-71313226D01*
X174299166Y-71313226D02*
X174299166Y-70613226D01*
X174232500Y-70713226D01*
X174165833Y-70779893D01*
X174099166Y-70813226D01*
X152500833Y-88426560D02*
X152434166Y-88393226D01*
X152334166Y-88393226D01*
X152234166Y-88426560D01*
X152167500Y-88493226D01*
X152134166Y-88559893D01*
X152100833Y-88693226D01*
X152100833Y-88793226D01*
X152134166Y-88926560D01*
X152167500Y-88993226D01*
X152234166Y-89059893D01*
X152334166Y-89093226D01*
X152400833Y-89093226D01*
X152500833Y-89059893D01*
X152534166Y-89026560D01*
X152534166Y-88793226D01*
X152400833Y-88793226D01*
X152834166Y-89093226D02*
X152834166Y-88393226D01*
X153100833Y-88393226D01*
X153167500Y-88426560D01*
X153200833Y-88459893D01*
X153234166Y-88526560D01*
X153234166Y-88626560D01*
X153200833Y-88693226D01*
X153167500Y-88726560D01*
X153100833Y-88759893D01*
X152834166Y-88759893D01*
X153534166Y-89093226D02*
X153534166Y-88393226D01*
X154000833Y-88393226D02*
X154134166Y-88393226D01*
X154200833Y-88426560D01*
X154267500Y-88493226D01*
X154300833Y-88626560D01*
X154300833Y-88859893D01*
X154267500Y-88993226D01*
X154200833Y-89059893D01*
X154134166Y-89093226D01*
X154000833Y-89093226D01*
X153934166Y-89059893D01*
X153867500Y-88993226D01*
X153834166Y-88859893D01*
X153834166Y-88626560D01*
X153867500Y-88493226D01*
X153934166Y-88426560D01*
X154000833Y-88393226D01*
X154967500Y-89093226D02*
X154567500Y-89093226D01*
X154767500Y-89093226D02*
X154767500Y-88393226D01*
X154700833Y-88493226D01*
X154634166Y-88559893D01*
X154567500Y-88593226D01*
X155234166Y-88459893D02*
X155267500Y-88426560D01*
X155334166Y-88393226D01*
X155500833Y-88393226D01*
X155567500Y-88426560D01*
X155600833Y-88459893D01*
X155634166Y-88526560D01*
X155634166Y-88593226D01*
X155600833Y-88693226D01*
X155200833Y-89093226D01*
X155634166Y-89093226D01*
X156434166Y-88359893D02*
X155834166Y-89259893D01*
X156667500Y-89093226D02*
X156667500Y-88393226D01*
X156900833Y-88893226D01*
X157134166Y-88393226D01*
X157134166Y-89093226D01*
X157367500Y-88393226D02*
X157767500Y-88393226D01*
X157567500Y-89093226D02*
X157567500Y-88393226D01*
X158000833Y-89093226D02*
X158000833Y-88393226D01*
X158167500Y-88393226D01*
X158267500Y-88426560D01*
X158334166Y-88493226D01*
X158367500Y-88559893D01*
X158400833Y-88693226D01*
X158400833Y-88793226D01*
X158367500Y-88926560D01*
X158334166Y-88993226D01*
X158267500Y-89059893D01*
X158167500Y-89093226D01*
X158000833Y-89093226D01*
X158700833Y-89093226D02*
X158700833Y-88393226D01*
X171365833Y-78266560D02*
X171299166Y-78233226D01*
X171199166Y-78233226D01*
X171099166Y-78266560D01*
X171032500Y-78333226D01*
X170999166Y-78399893D01*
X170965833Y-78533226D01*
X170965833Y-78633226D01*
X170999166Y-78766560D01*
X171032500Y-78833226D01*
X171099166Y-78899893D01*
X171199166Y-78933226D01*
X171265833Y-78933226D01*
X171365833Y-78899893D01*
X171399166Y-78866560D01*
X171399166Y-78633226D01*
X171265833Y-78633226D01*
X171699166Y-78933226D02*
X171699166Y-78233226D01*
X171965833Y-78233226D01*
X172032500Y-78266560D01*
X172065833Y-78299893D01*
X172099166Y-78366560D01*
X172099166Y-78466560D01*
X172065833Y-78533226D01*
X172032500Y-78566560D01*
X171965833Y-78599893D01*
X171699166Y-78599893D01*
X172399166Y-78933226D02*
X172399166Y-78233226D01*
X172865833Y-78233226D02*
X172999166Y-78233226D01*
X173065833Y-78266560D01*
X173132500Y-78333226D01*
X173165833Y-78466560D01*
X173165833Y-78699893D01*
X173132500Y-78833226D01*
X173065833Y-78899893D01*
X172999166Y-78933226D01*
X172865833Y-78933226D01*
X172799166Y-78899893D01*
X172732500Y-78833226D01*
X172699166Y-78699893D01*
X172699166Y-78466560D01*
X172732500Y-78333226D01*
X172799166Y-78266560D01*
X172865833Y-78233226D01*
X173832500Y-78933226D02*
X173432500Y-78933226D01*
X173632500Y-78933226D02*
X173632500Y-78233226D01*
X173565833Y-78333226D01*
X173499166Y-78399893D01*
X173432500Y-78433226D01*
X174232500Y-78533226D02*
X174165833Y-78499893D01*
X174132500Y-78466560D01*
X174099166Y-78399893D01*
X174099166Y-78366560D01*
X174132500Y-78299893D01*
X174165833Y-78266560D01*
X174232500Y-78233226D01*
X174365833Y-78233226D01*
X174432500Y-78266560D01*
X174465833Y-78299893D01*
X174499166Y-78366560D01*
X174499166Y-78399893D01*
X174465833Y-78466560D01*
X174432500Y-78499893D01*
X174365833Y-78533226D01*
X174232500Y-78533226D01*
X174165833Y-78566560D01*
X174132500Y-78599893D01*
X174099166Y-78666560D01*
X174099166Y-78799893D01*
X174132500Y-78866560D01*
X174165833Y-78899893D01*
X174232500Y-78933226D01*
X174365833Y-78933226D01*
X174432500Y-78899893D01*
X174465833Y-78866560D01*
X174499166Y-78799893D01*
X174499166Y-78666560D01*
X174465833Y-78599893D01*
X174432500Y-78566560D01*
X174365833Y-78533226D01*
X152110357Y-57748940D02*
X152729404Y-57748940D01*
X152396071Y-58129893D01*
X152538928Y-58129893D01*
X152634166Y-58177512D01*
X152681785Y-58225131D01*
X152729404Y-58320369D01*
X152729404Y-58558464D01*
X152681785Y-58653702D01*
X152634166Y-58701321D01*
X152538928Y-58748940D01*
X152253214Y-58748940D01*
X152157976Y-58701321D01*
X152110357Y-58653702D01*
X153015119Y-57748940D02*
X153348452Y-58748940D01*
X153681785Y-57748940D01*
X153919880Y-57748940D02*
X154538928Y-57748940D01*
X154205595Y-58129893D01*
X154348452Y-58129893D01*
X154443690Y-58177512D01*
X154491309Y-58225131D01*
X154538928Y-58320369D01*
X154538928Y-58558464D01*
X154491309Y-58653702D01*
X154443690Y-58701321D01*
X154348452Y-58748940D01*
X154062738Y-58748940D01*
X153967500Y-58701321D01*
X153919880Y-58653702D01*
X171365833Y-75726560D02*
X171299166Y-75693226D01*
X171199166Y-75693226D01*
X171099166Y-75726560D01*
X171032500Y-75793226D01*
X170999166Y-75859893D01*
X170965833Y-75993226D01*
X170965833Y-76093226D01*
X170999166Y-76226560D01*
X171032500Y-76293226D01*
X171099166Y-76359893D01*
X171199166Y-76393226D01*
X171265833Y-76393226D01*
X171365833Y-76359893D01*
X171399166Y-76326560D01*
X171399166Y-76093226D01*
X171265833Y-76093226D01*
X171699166Y-76393226D02*
X171699166Y-75693226D01*
X171965833Y-75693226D01*
X172032500Y-75726560D01*
X172065833Y-75759893D01*
X172099166Y-75826560D01*
X172099166Y-75926560D01*
X172065833Y-75993226D01*
X172032500Y-76026560D01*
X171965833Y-76059893D01*
X171699166Y-76059893D01*
X172399166Y-76393226D02*
X172399166Y-75693226D01*
X172865833Y-75693226D02*
X172999166Y-75693226D01*
X173065833Y-75726560D01*
X173132500Y-75793226D01*
X173165833Y-75926560D01*
X173165833Y-76159893D01*
X173132500Y-76293226D01*
X173065833Y-76359893D01*
X172999166Y-76393226D01*
X172865833Y-76393226D01*
X172799166Y-76359893D01*
X172732500Y-76293226D01*
X172699166Y-76159893D01*
X172699166Y-75926560D01*
X172732500Y-75793226D01*
X172799166Y-75726560D01*
X172865833Y-75693226D01*
X173832500Y-76393226D02*
X173432500Y-76393226D01*
X173632500Y-76393226D02*
X173632500Y-75693226D01*
X173565833Y-75793226D01*
X173499166Y-75859893D01*
X173432500Y-75893226D01*
X174165833Y-76393226D02*
X174299166Y-76393226D01*
X174365833Y-76359893D01*
X174399166Y-76326560D01*
X174465833Y-76226560D01*
X174499166Y-76093226D01*
X174499166Y-75826560D01*
X174465833Y-75759893D01*
X174432500Y-75726560D01*
X174365833Y-75693226D01*
X174232500Y-75693226D01*
X174165833Y-75726560D01*
X174132500Y-75759893D01*
X174099166Y-75826560D01*
X174099166Y-75993226D01*
X174132500Y-76059893D01*
X174165833Y-76093226D01*
X174232500Y-76126560D01*
X174365833Y-76126560D01*
X174432500Y-76093226D01*
X174465833Y-76059893D01*
X174499166Y-75993226D01*
X152500833Y-73186560D02*
X152434166Y-73153226D01*
X152334166Y-73153226D01*
X152234166Y-73186560D01*
X152167500Y-73253226D01*
X152134166Y-73319893D01*
X152100833Y-73453226D01*
X152100833Y-73553226D01*
X152134166Y-73686560D01*
X152167500Y-73753226D01*
X152234166Y-73819893D01*
X152334166Y-73853226D01*
X152400833Y-73853226D01*
X152500833Y-73819893D01*
X152534166Y-73786560D01*
X152534166Y-73553226D01*
X152400833Y-73553226D01*
X152834166Y-73853226D02*
X152834166Y-73153226D01*
X153100833Y-73153226D01*
X153167500Y-73186560D01*
X153200833Y-73219893D01*
X153234166Y-73286560D01*
X153234166Y-73386560D01*
X153200833Y-73453226D01*
X153167500Y-73486560D01*
X153100833Y-73519893D01*
X152834166Y-73519893D01*
X153534166Y-73853226D02*
X153534166Y-73153226D01*
X154000833Y-73153226D02*
X154134166Y-73153226D01*
X154200833Y-73186560D01*
X154267500Y-73253226D01*
X154300833Y-73386560D01*
X154300833Y-73619893D01*
X154267500Y-73753226D01*
X154200833Y-73819893D01*
X154134166Y-73853226D01*
X154000833Y-73853226D01*
X153934166Y-73819893D01*
X153867500Y-73753226D01*
X153834166Y-73619893D01*
X153834166Y-73386560D01*
X153867500Y-73253226D01*
X153934166Y-73186560D01*
X154000833Y-73153226D01*
X154534166Y-73153226D02*
X154967500Y-73153226D01*
X154734166Y-73419893D01*
X154834166Y-73419893D01*
X154900833Y-73453226D01*
X154934166Y-73486560D01*
X154967500Y-73553226D01*
X154967500Y-73719893D01*
X154934166Y-73786560D01*
X154900833Y-73819893D01*
X154834166Y-73853226D01*
X154634166Y-73853226D01*
X154567500Y-73819893D01*
X154534166Y-73786560D01*
X155234166Y-73219893D02*
X155267500Y-73186560D01*
X155334166Y-73153226D01*
X155500833Y-73153226D01*
X155567500Y-73186560D01*
X155600833Y-73219893D01*
X155634166Y-73286560D01*
X155634166Y-73353226D01*
X155600833Y-73453226D01*
X155200833Y-73853226D01*
X155634166Y-73853226D01*
X172346785Y-73036560D02*
X172251547Y-72988940D01*
X172108690Y-72988940D01*
X171965833Y-73036560D01*
X171870595Y-73131798D01*
X171822976Y-73227036D01*
X171775357Y-73417512D01*
X171775357Y-73560369D01*
X171822976Y-73750845D01*
X171870595Y-73846083D01*
X171965833Y-73941321D01*
X172108690Y-73988940D01*
X172203928Y-73988940D01*
X172346785Y-73941321D01*
X172394404Y-73893702D01*
X172394404Y-73560369D01*
X172203928Y-73560369D01*
X172822976Y-73988940D02*
X172822976Y-72988940D01*
X173394404Y-73988940D01*
X173394404Y-72988940D01*
X173870595Y-73988940D02*
X173870595Y-72988940D01*
X174108690Y-72988940D01*
X174251547Y-73036560D01*
X174346785Y-73131798D01*
X174394404Y-73227036D01*
X174442023Y-73417512D01*
X174442023Y-73560369D01*
X174394404Y-73750845D01*
X174346785Y-73846083D01*
X174251547Y-73941321D01*
X174108690Y-73988940D01*
X173870595Y-73988940D01*
%TO.C,R1*%
X184633333Y-68732380D02*
X184300000Y-68256190D01*
X184061904Y-68732380D02*
X184061904Y-67732380D01*
X184442857Y-67732380D01*
X184538095Y-67780000D01*
X184585714Y-67827619D01*
X184633333Y-67922857D01*
X184633333Y-68065714D01*
X184585714Y-68160952D01*
X184538095Y-68208571D01*
X184442857Y-68256190D01*
X184061904Y-68256190D01*
X185585714Y-68732380D02*
X185014285Y-68732380D01*
X185300000Y-68732380D02*
X185300000Y-67732380D01*
X185204761Y-67875238D01*
X185109523Y-67970476D01*
X185014285Y-68018095D01*
%TO.C,H3*%
X132138095Y-54652380D02*
X132138095Y-53652380D01*
X132138095Y-54128571D02*
X132709523Y-54128571D01*
X132709523Y-54652380D02*
X132709523Y-53652380D01*
X133090476Y-53652380D02*
X133709523Y-53652380D01*
X133376190Y-54033333D01*
X133519047Y-54033333D01*
X133614285Y-54080952D01*
X133661904Y-54128571D01*
X133709523Y-54223809D01*
X133709523Y-54461904D01*
X133661904Y-54557142D01*
X133614285Y-54604761D01*
X133519047Y-54652380D01*
X133233333Y-54652380D01*
X133138095Y-54604761D01*
X133090476Y-54557142D01*
%TO.C,J7*%
X178397380Y-102438333D02*
X179111666Y-102438333D01*
X179254523Y-102485952D01*
X179349761Y-102581190D01*
X179397380Y-102724047D01*
X179397380Y-102819285D01*
X178397380Y-102057380D02*
X178397380Y-101390714D01*
X179397380Y-101819285D01*
%TO.C,A1*%
X191495714Y-108536666D02*
X191971904Y-108536666D01*
X191400476Y-108822380D02*
X191733809Y-107822380D01*
X192067142Y-108822380D01*
X192924285Y-108822380D02*
X192352857Y-108822380D01*
X192638571Y-108822380D02*
X192638571Y-107822380D01*
X192543333Y-107965238D01*
X192448095Y-108060476D01*
X192352857Y-108108095D01*
%TO.C,J9*%
X173766666Y-53752380D02*
X173766666Y-54466666D01*
X173719047Y-54609523D01*
X173623809Y-54704761D01*
X173480952Y-54752380D01*
X173385714Y-54752380D01*
X174290476Y-54752380D02*
X174480952Y-54752380D01*
X174576190Y-54704761D01*
X174623809Y-54657142D01*
X174719047Y-54514285D01*
X174766666Y-54323809D01*
X174766666Y-53942857D01*
X174719047Y-53847619D01*
X174671428Y-53800000D01*
X174576190Y-53752380D01*
X174385714Y-53752380D01*
X174290476Y-53800000D01*
X174242857Y-53847619D01*
X174195238Y-53942857D01*
X174195238Y-54180952D01*
X174242857Y-54276190D01*
X174290476Y-54323809D01*
X174385714Y-54371428D01*
X174576190Y-54371428D01*
X174671428Y-54323809D01*
X174719047Y-54276190D01*
X174766666Y-54180952D01*
%TO.C,D2*%
X192167380Y-90318095D02*
X191167380Y-90318095D01*
X191167380Y-90080000D01*
X191215000Y-89937142D01*
X191310238Y-89841904D01*
X191405476Y-89794285D01*
X191595952Y-89746666D01*
X191738809Y-89746666D01*
X191929285Y-89794285D01*
X192024523Y-89841904D01*
X192119761Y-89937142D01*
X192167380Y-90080000D01*
X192167380Y-90318095D01*
X191262619Y-89365714D02*
X191215000Y-89318095D01*
X191167380Y-89222857D01*
X191167380Y-88984761D01*
X191215000Y-88889523D01*
X191262619Y-88841904D01*
X191357857Y-88794285D01*
X191453095Y-88794285D01*
X191595952Y-88841904D01*
X192167380Y-89413333D01*
X192167380Y-88794285D01*
%TO.C,D1*%
X192167380Y-82818095D02*
X191167380Y-82818095D01*
X191167380Y-82580000D01*
X191215000Y-82437142D01*
X191310238Y-82341904D01*
X191405476Y-82294285D01*
X191595952Y-82246666D01*
X191738809Y-82246666D01*
X191929285Y-82294285D01*
X192024523Y-82341904D01*
X192119761Y-82437142D01*
X192167380Y-82580000D01*
X192167380Y-82818095D01*
X192167380Y-81294285D02*
X192167380Y-81865714D01*
X192167380Y-81580000D02*
X191167380Y-81580000D01*
X191310238Y-81675238D01*
X191405476Y-81770476D01*
X191453095Y-81865714D01*
%TO.C,D5*%
X183861904Y-96922380D02*
X183861904Y-95922380D01*
X184100000Y-95922380D01*
X184242857Y-95970000D01*
X184338095Y-96065238D01*
X184385714Y-96160476D01*
X184433333Y-96350952D01*
X184433333Y-96493809D01*
X184385714Y-96684285D01*
X184338095Y-96779523D01*
X184242857Y-96874761D01*
X184100000Y-96922380D01*
X183861904Y-96922380D01*
X185338095Y-95922380D02*
X184861904Y-95922380D01*
X184814285Y-96398571D01*
X184861904Y-96350952D01*
X184957142Y-96303333D01*
X185195238Y-96303333D01*
X185290476Y-96350952D01*
X185338095Y-96398571D01*
X185385714Y-96493809D01*
X185385714Y-96731904D01*
X185338095Y-96827142D01*
X185290476Y-96874761D01*
X185195238Y-96922380D01*
X184957142Y-96922380D01*
X184861904Y-96874761D01*
X184814285Y-96827142D01*
X188148095Y-96552380D02*
X188148095Y-95552380D01*
X188719523Y-96552380D02*
X188290952Y-95980952D01*
X188719523Y-95552380D02*
X188148095Y-96123809D01*
%TO.C,J15*%
X127090476Y-133252380D02*
X127090476Y-133966666D01*
X127042857Y-134109523D01*
X126947619Y-134204761D01*
X126804761Y-134252380D01*
X126709523Y-134252380D01*
X128090476Y-134252380D02*
X127519047Y-134252380D01*
X127804761Y-134252380D02*
X127804761Y-133252380D01*
X127709523Y-133395238D01*
X127614285Y-133490476D01*
X127519047Y-133538095D01*
X128995238Y-133252380D02*
X128519047Y-133252380D01*
X128471428Y-133728571D01*
X128519047Y-133680952D01*
X128614285Y-133633333D01*
X128852380Y-133633333D01*
X128947619Y-133680952D01*
X128995238Y-133728571D01*
X129042857Y-133823809D01*
X129042857Y-134061904D01*
X128995238Y-134157142D01*
X128947619Y-134204761D01*
X128852380Y-134252380D01*
X128614285Y-134252380D01*
X128519047Y-134204761D01*
X128471428Y-134157142D01*
%TO.C,R4*%
X141433333Y-90832380D02*
X141100000Y-90356190D01*
X140861904Y-90832380D02*
X140861904Y-89832380D01*
X141242857Y-89832380D01*
X141338095Y-89880000D01*
X141385714Y-89927619D01*
X141433333Y-90022857D01*
X141433333Y-90165714D01*
X141385714Y-90260952D01*
X141338095Y-90308571D01*
X141242857Y-90356190D01*
X140861904Y-90356190D01*
X142290476Y-90165714D02*
X142290476Y-90832380D01*
X142052380Y-89784761D02*
X141814285Y-90499047D01*
X142433333Y-90499047D01*
%TO.C,C1*%
X185578221Y-59307142D02*
X185530602Y-59354761D01*
X185387745Y-59402380D01*
X185292507Y-59402380D01*
X185149649Y-59354761D01*
X185054411Y-59259523D01*
X185006792Y-59164285D01*
X184959173Y-58973809D01*
X184959173Y-58830952D01*
X185006792Y-58640476D01*
X185054411Y-58545238D01*
X185149649Y-58450000D01*
X185292507Y-58402380D01*
X185387745Y-58402380D01*
X185530602Y-58450000D01*
X185578221Y-58497619D01*
X186530602Y-59402380D02*
X185959173Y-59402380D01*
X186244888Y-59402380D02*
X186244888Y-58402380D01*
X186149649Y-58545238D01*
X186054411Y-58640476D01*
X185959173Y-58688095D01*
%TO.C,C6*%
X128060734Y-101607142D02*
X128013115Y-101654761D01*
X127870258Y-101702380D01*
X127775020Y-101702380D01*
X127632162Y-101654761D01*
X127536924Y-101559523D01*
X127489305Y-101464285D01*
X127441686Y-101273809D01*
X127441686Y-101130952D01*
X127489305Y-100940476D01*
X127536924Y-100845238D01*
X127632162Y-100750000D01*
X127775020Y-100702380D01*
X127870258Y-100702380D01*
X128013115Y-100750000D01*
X128060734Y-100797619D01*
X128917877Y-100702380D02*
X128727401Y-100702380D01*
X128632162Y-100750000D01*
X128584543Y-100797619D01*
X128489305Y-100940476D01*
X128441686Y-101130952D01*
X128441686Y-101511904D01*
X128489305Y-101607142D01*
X128536924Y-101654761D01*
X128632162Y-101702380D01*
X128822639Y-101702380D01*
X128917877Y-101654761D01*
X128965496Y-101607142D01*
X129013115Y-101511904D01*
X129013115Y-101273809D01*
X128965496Y-101178571D01*
X128917877Y-101130952D01*
X128822639Y-101083333D01*
X128632162Y-101083333D01*
X128536924Y-101130952D01*
X128489305Y-101178571D01*
X128441686Y-101273809D01*
%TO.C,U3*%
X138738095Y-64302380D02*
X138738095Y-65111904D01*
X138785714Y-65207142D01*
X138833333Y-65254761D01*
X138928571Y-65302380D01*
X139119047Y-65302380D01*
X139214285Y-65254761D01*
X139261904Y-65207142D01*
X139309523Y-65111904D01*
X139309523Y-64302380D01*
X139690476Y-64302380D02*
X140309523Y-64302380D01*
X139976190Y-64683333D01*
X140119047Y-64683333D01*
X140214285Y-64730952D01*
X140261904Y-64778571D01*
X140309523Y-64873809D01*
X140309523Y-65111904D01*
X140261904Y-65207142D01*
X140214285Y-65254761D01*
X140119047Y-65302380D01*
X139833333Y-65302380D01*
X139738095Y-65254761D01*
X139690476Y-65207142D01*
%TO.C,C4*%
X138860734Y-101707142D02*
X138813115Y-101754761D01*
X138670258Y-101802380D01*
X138575020Y-101802380D01*
X138432162Y-101754761D01*
X138336924Y-101659523D01*
X138289305Y-101564285D01*
X138241686Y-101373809D01*
X138241686Y-101230952D01*
X138289305Y-101040476D01*
X138336924Y-100945238D01*
X138432162Y-100850000D01*
X138575020Y-100802380D01*
X138670258Y-100802380D01*
X138813115Y-100850000D01*
X138860734Y-100897619D01*
X139717877Y-101135714D02*
X139717877Y-101802380D01*
X139479781Y-100754761D02*
X139241686Y-101469047D01*
X139860734Y-101469047D01*
%TO.C,J2*%
X186166666Y-132852380D02*
X186166666Y-133566666D01*
X186119047Y-133709523D01*
X186023809Y-133804761D01*
X185880952Y-133852380D01*
X185785714Y-133852380D01*
X186595238Y-132947619D02*
X186642857Y-132900000D01*
X186738095Y-132852380D01*
X186976190Y-132852380D01*
X187071428Y-132900000D01*
X187119047Y-132947619D01*
X187166666Y-133042857D01*
X187166666Y-133138095D01*
X187119047Y-133280952D01*
X186547619Y-133852380D01*
X187166666Y-133852380D01*
%TO.C,J5*%
X197166666Y-62152380D02*
X197166666Y-62866666D01*
X197119047Y-63009523D01*
X197023809Y-63104761D01*
X196880952Y-63152380D01*
X196785714Y-63152380D01*
X198119047Y-62152380D02*
X197642857Y-62152380D01*
X197595238Y-62628571D01*
X197642857Y-62580952D01*
X197738095Y-62533333D01*
X197976190Y-62533333D01*
X198071428Y-62580952D01*
X198119047Y-62628571D01*
X198166666Y-62723809D01*
X198166666Y-62961904D01*
X198119047Y-63057142D01*
X198071428Y-63104761D01*
X197976190Y-63152380D01*
X197738095Y-63152380D01*
X197642857Y-63104761D01*
X197595238Y-63057142D01*
%TO.C,D3*%
X135337380Y-84158095D02*
X134337380Y-84158095D01*
X134337380Y-83920000D01*
X134385000Y-83777142D01*
X134480238Y-83681904D01*
X134575476Y-83634285D01*
X134765952Y-83586666D01*
X134908809Y-83586666D01*
X135099285Y-83634285D01*
X135194523Y-83681904D01*
X135289761Y-83777142D01*
X135337380Y-83920000D01*
X135337380Y-84158095D01*
X134337380Y-83253333D02*
X134337380Y-82634285D01*
X134718333Y-82967619D01*
X134718333Y-82824761D01*
X134765952Y-82729523D01*
X134813571Y-82681904D01*
X134908809Y-82634285D01*
X135146904Y-82634285D01*
X135242142Y-82681904D01*
X135289761Y-82729523D01*
X135337380Y-82824761D01*
X135337380Y-83110476D01*
X135289761Y-83205714D01*
X135242142Y-83253333D01*
%TO.C,C2*%
X134833333Y-95407142D02*
X134785714Y-95454761D01*
X134642857Y-95502380D01*
X134547619Y-95502380D01*
X134404761Y-95454761D01*
X134309523Y-95359523D01*
X134261904Y-95264285D01*
X134214285Y-95073809D01*
X134214285Y-94930952D01*
X134261904Y-94740476D01*
X134309523Y-94645238D01*
X134404761Y-94550000D01*
X134547619Y-94502380D01*
X134642857Y-94502380D01*
X134785714Y-94550000D01*
X134833333Y-94597619D01*
X135214285Y-94597619D02*
X135261904Y-94550000D01*
X135357142Y-94502380D01*
X135595238Y-94502380D01*
X135690476Y-94550000D01*
X135738095Y-94597619D01*
X135785714Y-94692857D01*
X135785714Y-94788095D01*
X135738095Y-94930952D01*
X135166666Y-95502380D01*
X135785714Y-95502380D01*
%TO.C,D4*%
X135337380Y-91758095D02*
X134337380Y-91758095D01*
X134337380Y-91520000D01*
X134385000Y-91377142D01*
X134480238Y-91281904D01*
X134575476Y-91234285D01*
X134765952Y-91186666D01*
X134908809Y-91186666D01*
X135099285Y-91234285D01*
X135194523Y-91281904D01*
X135289761Y-91377142D01*
X135337380Y-91520000D01*
X135337380Y-91758095D01*
X134670714Y-90329523D02*
X135337380Y-90329523D01*
X134289761Y-90567619D02*
X135004047Y-90805714D01*
X135004047Y-90186666D01*
%TO.C,J4*%
X184566666Y-105552380D02*
X184566666Y-106266666D01*
X184519047Y-106409523D01*
X184423809Y-106504761D01*
X184280952Y-106552380D01*
X184185714Y-106552380D01*
X185471428Y-105885714D02*
X185471428Y-106552380D01*
X185233333Y-105504761D02*
X184995238Y-106219047D01*
X185614285Y-106219047D01*
D11*
%TO.C,J14*%
X151705000Y-126210000D02*
X151705000Y-127540000D01*
X149105000Y-127540000D02*
X146505000Y-127540000D01*
X151705000Y-124940000D02*
X149105000Y-124940000D01*
X149105000Y-124940000D02*
X149105000Y-127540000D01*
X151705000Y-127540000D02*
X150375000Y-127540000D01*
X146505000Y-127540000D02*
X146505000Y-119800000D01*
X151705000Y-124940000D02*
X151705000Y-119800000D01*
X151705000Y-119800000D02*
X146505000Y-119800000D01*
%TO.C,J12*%
X177895000Y-109530000D02*
X180495000Y-109530000D01*
X177895000Y-109530000D02*
X177895000Y-106870000D01*
X180495000Y-109530000D02*
X180495000Y-106870000D01*
X175295000Y-109530000D02*
X175295000Y-108200000D01*
X176625000Y-109530000D02*
X175295000Y-109530000D01*
X177895000Y-106870000D02*
X180495000Y-106870000D01*
%TO.C,C5*%
X144287401Y-58495000D02*
X144287401Y-59660000D01*
X144207401Y-61340000D02*
X144207401Y-62525000D01*
X144808401Y-58715000D02*
X144808401Y-59660000D01*
X145488401Y-59358000D02*
X145488401Y-61642000D01*
X144047401Y-61340000D02*
X144047401Y-62556000D01*
X144808401Y-61340000D02*
X144808401Y-62285000D01*
X145528401Y-59420000D02*
X145528401Y-61580000D01*
X141457600Y-59305000D02*
X141857600Y-59305000D01*
X144167401Y-58466000D02*
X144167401Y-59660000D01*
X143767401Y-61340000D02*
X143767401Y-62580000D01*
X145288401Y-59104000D02*
X145288401Y-59660000D01*
X145168401Y-61340000D02*
X145168401Y-62016000D01*
X144848401Y-58740000D02*
X144848401Y-59660000D01*
X144888401Y-58765000D02*
X144888401Y-59660000D01*
X144648401Y-58630000D02*
X144648401Y-59660000D01*
X145728401Y-59836000D02*
X145728401Y-61164000D01*
X144928401Y-58792000D02*
X144928401Y-59660000D01*
X143767401Y-58420000D02*
X143767401Y-59660000D01*
X144367401Y-58518000D02*
X144367401Y-59660000D01*
X145008401Y-61340000D02*
X145008401Y-62150000D01*
X145328401Y-59149000D02*
X145328401Y-61851000D01*
X144207401Y-58475000D02*
X144207401Y-59660000D01*
X145048401Y-58881000D02*
X145048401Y-59660000D01*
X144407401Y-61340000D02*
X144407401Y-62468000D01*
X143967401Y-58433000D02*
X143967401Y-59660000D01*
X144648401Y-61340000D02*
X144648401Y-62370000D01*
X143887401Y-61340000D02*
X143887401Y-62574000D01*
X143887401Y-58426000D02*
X143887401Y-59660000D01*
X144087401Y-58450000D02*
X144087401Y-59660000D01*
X144488401Y-61340000D02*
X144488401Y-62440000D01*
X144528401Y-58576000D02*
X144528401Y-59660000D01*
X144087401Y-61340000D02*
X144087401Y-62550000D01*
X144728401Y-58670000D02*
X144728401Y-59660000D01*
X145088401Y-58913000D02*
X145088401Y-59660000D01*
X144327401Y-61340000D02*
X144327401Y-62494000D01*
X144448401Y-61340000D02*
X144448401Y-62454000D01*
X145048401Y-61340000D02*
X145048401Y-62119000D01*
X144568401Y-61340000D02*
X144568401Y-62407000D01*
X144568401Y-58593000D02*
X144568401Y-59660000D01*
X143847401Y-61340000D02*
X143847401Y-62577000D01*
X143927401Y-61340000D02*
X143927401Y-62571000D01*
X141657600Y-59105000D02*
X141657600Y-59505000D01*
X145008401Y-58850000D02*
X145008401Y-59660000D01*
X145368401Y-59196000D02*
X145368401Y-61804000D01*
X143727401Y-58420000D02*
X143727401Y-59660000D01*
X145688401Y-59732000D02*
X145688401Y-61268000D01*
X144007401Y-58438000D02*
X144007401Y-59660000D01*
X143927401Y-58429000D02*
X143927401Y-59660000D01*
X145248401Y-59062000D02*
X145248401Y-59660000D01*
X145088401Y-61340000D02*
X145088401Y-62087000D01*
X144608401Y-61340000D02*
X144608401Y-62389000D01*
X145608401Y-59560000D02*
X145608401Y-61440000D01*
X145808401Y-60130000D02*
X145808401Y-60870000D01*
X144488401Y-58560000D02*
X144488401Y-59660000D01*
X143967401Y-61340000D02*
X143967401Y-62567000D01*
X144167401Y-61340000D02*
X144167401Y-62534000D01*
X145448401Y-59300000D02*
X145448401Y-61700000D01*
X144528401Y-61340000D02*
X144528401Y-62424000D01*
X144247401Y-61340000D02*
X144247401Y-62516000D01*
X143847401Y-58423000D02*
X143847401Y-59660000D01*
X144127401Y-58458000D02*
X144127401Y-59660000D01*
X144768401Y-61340000D02*
X144768401Y-62308000D01*
X144968401Y-58820000D02*
X144968401Y-59660000D01*
X145128401Y-61340000D02*
X145128401Y-62052000D01*
X144688401Y-58649000D02*
X144688401Y-59660000D01*
X144007401Y-61340000D02*
X144007401Y-62562000D01*
X145768401Y-59963000D02*
X145768401Y-61037000D01*
X144247401Y-58484000D02*
X144247401Y-59660000D01*
X144928401Y-61340000D02*
X144928401Y-62208000D01*
X144287401Y-61340000D02*
X144287401Y-62505000D01*
X145208401Y-61340000D02*
X145208401Y-61978000D01*
X144968401Y-61340000D02*
X144968401Y-62180000D01*
X144407401Y-58532000D02*
X144407401Y-59660000D01*
X145168401Y-58984000D02*
X145168401Y-59660000D01*
X144688401Y-61340000D02*
X144688401Y-62351000D01*
X145288401Y-61340000D02*
X145288401Y-61896000D01*
X145408401Y-59246000D02*
X145408401Y-61754000D01*
X144848401Y-61340000D02*
X144848401Y-62260000D01*
X144367401Y-61340000D02*
X144367401Y-62482000D01*
X143727401Y-61340000D02*
X143727401Y-62580000D01*
X143807401Y-61340000D02*
X143807401Y-62579000D01*
X144047401Y-58444000D02*
X144047401Y-59660000D01*
X144608401Y-58611000D02*
X144608401Y-59660000D01*
X145248401Y-61340000D02*
X145248401Y-61938000D01*
X145208401Y-59022000D02*
X145208401Y-59660000D01*
X144327401Y-58506000D02*
X144327401Y-59660000D01*
X144768401Y-58692000D02*
X144768401Y-59660000D01*
X144448401Y-58546000D02*
X144448401Y-59660000D01*
X144127401Y-61340000D02*
X144127401Y-62542000D01*
X145128401Y-58948000D02*
X145128401Y-59660000D01*
X143807401Y-58421000D02*
X143807401Y-59660000D01*
X145568401Y-59487000D02*
X145568401Y-61513000D01*
X144888401Y-61340000D02*
X144888401Y-62235000D01*
X145648401Y-59641000D02*
X145648401Y-61359000D01*
X144728401Y-61340000D02*
X144728401Y-62330000D01*
X145847401Y-60500000D02*
G75*
G03*
X145847401Y-60500000I-2120000J0D01*
G01*
%TO.C,J6*%
X175505000Y-127555000D02*
X175505000Y-119815000D01*
X178105000Y-127555000D02*
X175505000Y-127555000D01*
X180705000Y-124955000D02*
X178105000Y-124955000D01*
X180705000Y-126225000D02*
X180705000Y-127555000D01*
X178105000Y-124955000D02*
X178105000Y-127555000D01*
X180705000Y-127555000D02*
X179375000Y-127555000D01*
X180705000Y-124955000D02*
X180705000Y-119815000D01*
X180705000Y-119815000D02*
X175505000Y-119815000D01*
%TO.C,J3*%
X169960000Y-136800000D02*
X170460000Y-136800000D01*
X158240000Y-136800000D02*
X158240000Y-135590000D01*
X157740000Y-139110000D02*
X170460000Y-139110000D01*
X169460000Y-137610000D02*
X169460000Y-139110000D01*
X158740000Y-137610000D02*
X158740000Y-139110000D01*
X170460000Y-137610000D02*
X169460000Y-137610000D01*
X170460000Y-139110000D02*
X170460000Y-135090000D01*
X170460000Y-135090000D02*
X157740000Y-135090000D01*
X169960000Y-135590000D02*
X169960000Y-136800000D01*
X157740000Y-135090000D02*
X157740000Y-139110000D01*
X157740000Y-137610000D02*
X158740000Y-137610000D01*
X157440000Y-139410000D02*
X159940000Y-139410000D01*
X158240000Y-135590000D02*
X169960000Y-135590000D01*
X157440000Y-136910000D02*
X157440000Y-139410000D01*
X157740000Y-136800000D02*
X158240000Y-136800000D01*
%TO.C,R3*%
X143520000Y-85620000D02*
X143520000Y-83780000D01*
X138730000Y-84700000D02*
X139680000Y-84700000D01*
X143520000Y-83780000D02*
X139680000Y-83780000D01*
X139680000Y-85620000D02*
X143520000Y-85620000D01*
X144470000Y-84700000D02*
X143520000Y-84700000D01*
X139680000Y-83780000D02*
X139680000Y-85620000D01*
%TO.C,R2*%
X186720000Y-74920000D02*
X186720000Y-73080000D01*
X186720000Y-73080000D02*
X182880000Y-73080000D01*
X182880000Y-73080000D02*
X182880000Y-74920000D01*
X182880000Y-74920000D02*
X186720000Y-74920000D01*
X181930000Y-74000000D02*
X182880000Y-74000000D01*
X187670000Y-74000000D02*
X186720000Y-74000000D01*
%TO.C,U1*%
X188202500Y-89352500D02*
X180352500Y-89352500D01*
X180352500Y-77412500D02*
X188202500Y-77412500D01*
X188202500Y-77412500D02*
X188202500Y-89352500D01*
X188532500Y-89682500D02*
X188532500Y-87352500D01*
X186082500Y-89682500D02*
X188532500Y-89682500D01*
X180352500Y-89352500D02*
X180352500Y-77412500D01*
%TO.C,J10*%
X146730000Y-103600000D02*
X146730000Y-104930000D01*
X146730000Y-102330000D02*
X144070000Y-102330000D01*
X144070000Y-102330000D02*
X144070000Y-99730000D01*
X146730000Y-102330000D02*
X146730000Y-99730000D01*
X146730000Y-104930000D02*
X145400000Y-104930000D01*
X146730000Y-99730000D02*
X144070000Y-99730000D01*
%TO.C,A2*%
X171660000Y-109610000D02*
X158830000Y-109610000D01*
X157560000Y-109610000D02*
X156160000Y-109610000D01*
X158830000Y-112280000D02*
X158830000Y-130190000D01*
X156160000Y-112280000D02*
X156160000Y-130190000D01*
X158830000Y-112280000D02*
X156160000Y-112280000D01*
X171660000Y-130190000D02*
X171660000Y-109610000D01*
X168990000Y-109610000D02*
X168990000Y-130190000D01*
X156160000Y-130190000D02*
X171660000Y-130190000D01*
X158830000Y-109610000D02*
X158830000Y-112280000D01*
X156160000Y-109610000D02*
X156160000Y-111010000D01*
%TO.C,J1*%
X127290000Y-63790000D02*
X125790000Y-63790000D01*
X128100000Y-63290000D02*
X129310000Y-63290000D01*
X127290000Y-77010000D02*
X125790000Y-77010000D01*
X128100000Y-62790000D02*
X128100000Y-63290000D01*
X125790000Y-78010000D02*
X129810000Y-78010000D01*
X128100000Y-77510000D02*
X128100000Y-78010000D01*
X129810000Y-78010000D02*
X129810000Y-62790000D01*
X129310000Y-63290000D02*
X129310000Y-77510000D01*
X127990000Y-62490000D02*
X125490000Y-62490000D01*
X129310000Y-77510000D02*
X128100000Y-77510000D01*
X125790000Y-62790000D02*
X125790000Y-78010000D01*
X127290000Y-78010000D02*
X127290000Y-77010000D01*
X125490000Y-62490000D02*
X125490000Y-64990000D01*
X129810000Y-62790000D02*
X125790000Y-62790000D01*
X127290000Y-62790000D02*
X127290000Y-63790000D01*
%TO.C,A3*%
X126360000Y-130090000D02*
X141860000Y-130090000D01*
X141860000Y-130090000D02*
X141860000Y-109510000D01*
X141860000Y-109510000D02*
X129030000Y-109510000D01*
X129030000Y-112180000D02*
X126360000Y-112180000D01*
X129030000Y-109510000D02*
X129030000Y-112180000D01*
X129030000Y-112180000D02*
X129030000Y-130090000D01*
X139190000Y-109510000D02*
X139190000Y-130090000D01*
X126360000Y-109510000D02*
X126360000Y-110910000D01*
X127760000Y-109510000D02*
X126360000Y-109510000D01*
X126360000Y-112180000D02*
X126360000Y-130090000D01*
%TO.C,J11*%
X147660000Y-51390000D02*
X134940000Y-51390000D01*
X147960000Y-51090000D02*
X145460000Y-51090000D01*
X134940000Y-55410000D02*
X147660000Y-55410000D01*
X134940000Y-51390000D02*
X134940000Y-55410000D01*
X147660000Y-53700000D02*
X147160000Y-53700000D01*
X147160000Y-53700000D02*
X147160000Y-54910000D01*
X147660000Y-52890000D02*
X146660000Y-52890000D01*
X147960000Y-53590000D02*
X147960000Y-51090000D01*
X135440000Y-54910000D02*
X135440000Y-53700000D01*
X147660000Y-55410000D02*
X147660000Y-51390000D01*
X135440000Y-53700000D02*
X134940000Y-53700000D01*
X135940000Y-52890000D02*
X135940000Y-51390000D01*
X146660000Y-52890000D02*
X146660000Y-51390000D01*
X134940000Y-52890000D02*
X135940000Y-52890000D01*
X147160000Y-54910000D02*
X135440000Y-54910000D01*
%TO.C,U4*%
X149100001Y-57196560D02*
X149100000Y-105116560D01*
X177500000Y-57196560D02*
X149100001Y-57196560D01*
X149100000Y-105116560D02*
X177499999Y-105116560D01*
X172313320Y-51283440D02*
X172313320Y-57176240D01*
X154330120Y-57176240D02*
X154330120Y-51283440D01*
X154330120Y-51283440D02*
X172313320Y-51283440D01*
X177499999Y-105116560D02*
X177500000Y-57196560D01*
%TO.C,R1*%
X182880000Y-71120000D02*
X186720000Y-71120000D01*
X186720000Y-71120000D02*
X186720000Y-69280000D01*
X187670000Y-70200000D02*
X186720000Y-70200000D01*
X186720000Y-69280000D02*
X182880000Y-69280000D01*
X181930000Y-70200000D02*
X182880000Y-70200000D01*
X182880000Y-69280000D02*
X182880000Y-71120000D01*
%TO.C,J7*%
X187685000Y-104705000D02*
X187685000Y-99505000D01*
X181275000Y-104705000D02*
X179945000Y-104705000D01*
X179945000Y-102105000D02*
X179945000Y-99505000D01*
X182545000Y-102105000D02*
X179945000Y-102105000D01*
X179945000Y-104705000D02*
X179945000Y-103375000D01*
X182545000Y-104705000D02*
X182545000Y-102105000D01*
X182545000Y-104705000D02*
X187685000Y-104705000D01*
X179945000Y-99505000D02*
X187685000Y-99505000D01*
%TO.C,A1*%
X184460000Y-130090000D02*
X199960000Y-130090000D01*
X199960000Y-130090000D02*
X199960000Y-109510000D01*
X197290000Y-109510000D02*
X197290000Y-130090000D01*
X184460000Y-109510000D02*
X184460000Y-110910000D01*
X187130000Y-109510000D02*
X187130000Y-112180000D01*
X185860000Y-109510000D02*
X184460000Y-109510000D01*
X187130000Y-112180000D02*
X187130000Y-130090000D01*
X187130000Y-112180000D02*
X184460000Y-112180000D01*
X184460000Y-112180000D02*
X184460000Y-130090000D01*
X199960000Y-109510000D02*
X187130000Y-109510000D01*
%TO.C,J9*%
X176790000Y-52990000D02*
X176790000Y-51490000D01*
X193510000Y-52990000D02*
X192510000Y-52990000D01*
X193810000Y-51190000D02*
X191310000Y-51190000D01*
X176290000Y-55010000D02*
X176290000Y-53800000D01*
X193010000Y-55010000D02*
X176290000Y-55010000D01*
X193510000Y-55510000D02*
X193510000Y-51490000D01*
X193510000Y-51490000D02*
X175790000Y-51490000D01*
X175790000Y-52990000D02*
X176790000Y-52990000D01*
X193810000Y-53690000D02*
X193810000Y-51190000D01*
X176290000Y-53800000D02*
X175790000Y-53800000D01*
X193010000Y-53800000D02*
X193010000Y-55010000D01*
X175790000Y-55510000D02*
X193510000Y-55510000D01*
X175790000Y-51490000D02*
X175790000Y-55510000D01*
X193510000Y-53800000D02*
X193010000Y-53800000D01*
X192510000Y-52990000D02*
X192510000Y-51490000D01*
%TO.C,D2*%
X194885000Y-88020000D02*
X194885000Y-87620000D01*
X194885000Y-87620000D02*
X196005000Y-87620000D01*
X194755000Y-90850000D02*
X194885000Y-90850000D01*
X194755000Y-88310000D02*
X194885000Y-88310000D01*
X194885000Y-88310000D02*
X194755000Y-88310000D01*
X194885000Y-88310000D02*
X194885000Y-88310000D01*
X194755000Y-90850000D02*
X194755000Y-90850000D01*
X194885000Y-91140000D02*
X198745000Y-91140000D01*
X196005000Y-88020000D02*
X194885000Y-88020000D01*
X194885000Y-90850000D02*
X194885000Y-90850000D01*
X194885000Y-88020000D02*
X198745000Y-88020000D01*
X194755000Y-88310000D02*
X194755000Y-88310000D01*
X194885000Y-90850000D02*
X194755000Y-90850000D01*
X194885000Y-91140000D02*
X194885000Y-88020000D01*
X196005000Y-87620000D02*
X196005000Y-88020000D01*
X198745000Y-91140000D02*
G75*
G03*
X198745000Y-88020000I0J1560000D01*
G01*
%TO.C,D1*%
X196005000Y-80120000D02*
X196005000Y-80520000D01*
X194885000Y-83640000D02*
X194885000Y-80520000D01*
X194885000Y-80810000D02*
X194885000Y-80810000D01*
X194885000Y-80520000D02*
X194885000Y-80120000D01*
X194755000Y-80810000D02*
X194755000Y-80810000D01*
X194755000Y-80810000D02*
X194885000Y-80810000D01*
X194885000Y-80520000D02*
X198745000Y-80520000D01*
X194885000Y-80810000D02*
X194755000Y-80810000D01*
X196005000Y-80520000D02*
X194885000Y-80520000D01*
X194755000Y-83350000D02*
X194885000Y-83350000D01*
X194885000Y-83640000D02*
X198745000Y-83640000D01*
X194885000Y-80120000D02*
X196005000Y-80120000D01*
X194755000Y-83350000D02*
X194755000Y-83350000D01*
X194885000Y-83350000D02*
X194885000Y-83350000D01*
X194885000Y-83350000D02*
X194755000Y-83350000D01*
X198745000Y-83640000D02*
G75*
G03*
X198745000Y-80520000I0J1560000D01*
G01*
%TO.C,D5*%
X186540000Y-95470000D02*
X186540000Y-92530000D01*
X181880000Y-95470000D02*
X181880000Y-95340000D01*
X187320000Y-95340000D02*
X187320000Y-95470000D01*
X186420000Y-95470000D02*
X186420000Y-92530000D01*
X181880000Y-92530000D02*
X181880000Y-92660000D01*
X186300000Y-95470000D02*
X186300000Y-92530000D01*
X187320000Y-92530000D02*
X181880000Y-92530000D01*
X187320000Y-95470000D02*
X181880000Y-95470000D01*
X187320000Y-92660000D02*
X187320000Y-92530000D01*
%TO.C,J15*%
X127940000Y-136900000D02*
X128440000Y-136900000D01*
X127940000Y-139210000D02*
X140660000Y-139210000D01*
X140660000Y-139210000D02*
X140660000Y-135190000D01*
X127940000Y-135190000D02*
X127940000Y-139210000D01*
X140160000Y-135690000D02*
X140160000Y-136900000D01*
X139660000Y-137710000D02*
X139660000Y-139210000D01*
X140660000Y-135190000D02*
X127940000Y-135190000D01*
X140660000Y-137710000D02*
X139660000Y-137710000D01*
X127640000Y-139510000D02*
X130140000Y-139510000D01*
X128940000Y-137710000D02*
X128940000Y-139210000D01*
X128440000Y-135690000D02*
X140160000Y-135690000D01*
X128440000Y-136900000D02*
X128440000Y-135690000D01*
X127940000Y-137710000D02*
X128940000Y-137710000D01*
X127640000Y-137010000D02*
X127640000Y-139510000D01*
X140160000Y-136900000D02*
X140660000Y-136900000D01*
%TO.C,R4*%
X139680000Y-93220000D02*
X143520000Y-93220000D01*
X144470000Y-92300000D02*
X143520000Y-92300000D01*
X139680000Y-91380000D02*
X139680000Y-93220000D01*
X138730000Y-92300000D02*
X139680000Y-92300000D01*
X143520000Y-93220000D02*
X143520000Y-91380000D01*
X143520000Y-91380000D02*
X139680000Y-91380000D01*
%TO.C,C1*%
X186665888Y-63740000D02*
X186665888Y-65114000D01*
X186545888Y-60245000D02*
X186545888Y-61660000D01*
X186625888Y-60272000D02*
X186625888Y-61660000D01*
X187625888Y-60915000D02*
X187625888Y-61660000D01*
X186945888Y-60410000D02*
X186945888Y-61660000D01*
X187825888Y-61146000D02*
X187825888Y-64254000D01*
X187665888Y-60957000D02*
X187665888Y-61660000D01*
X185984888Y-63740000D02*
X185984888Y-65269000D01*
X187225888Y-63740000D02*
X187225888Y-64822000D01*
X187945888Y-61317000D02*
X187945888Y-64083000D01*
X186384888Y-63740000D02*
X186384888Y-65201000D01*
X186945888Y-63740000D02*
X186945888Y-64990000D01*
X185744888Y-63740000D02*
X185744888Y-65280000D01*
X186424888Y-63740000D02*
X186424888Y-65191000D01*
X188305888Y-62182000D02*
X188305888Y-63218000D01*
X186625888Y-63740000D02*
X186625888Y-65128000D01*
X186545888Y-63740000D02*
X186545888Y-65155000D01*
X187265888Y-60605000D02*
X187265888Y-61660000D01*
X187185888Y-63740000D02*
X187185888Y-64849000D01*
X186465888Y-63740000D02*
X186465888Y-65180000D01*
X187265888Y-63740000D02*
X187265888Y-64795000D01*
X187545888Y-63740000D02*
X187545888Y-64564000D01*
X187985888Y-61381000D02*
X187985888Y-64019000D01*
X186304888Y-60180000D02*
X186304888Y-61660000D01*
X187585888Y-63740000D02*
X187585888Y-64526000D01*
X185784888Y-60120000D02*
X185784888Y-61660000D01*
X187145888Y-63740000D02*
X187145888Y-64875000D01*
X187225888Y-60578000D02*
X187225888Y-61660000D01*
X185904888Y-60124000D02*
X185904888Y-61660000D01*
X187025888Y-63740000D02*
X187025888Y-64947000D01*
X186264888Y-60172000D02*
X186264888Y-61660000D01*
X185824888Y-63740000D02*
X185824888Y-65279000D01*
X186465888Y-60220000D02*
X186465888Y-61660000D01*
X187345888Y-63740000D02*
X187345888Y-64735000D01*
X186905888Y-60390000D02*
X186905888Y-61660000D01*
X186104888Y-60144000D02*
X186104888Y-61660000D01*
X186104888Y-63740000D02*
X186104888Y-65256000D01*
X188265888Y-62023000D02*
X188265888Y-63377000D01*
X186745888Y-60318000D02*
X186745888Y-61660000D01*
X187065888Y-60476000D02*
X187065888Y-61660000D01*
X186825888Y-60352000D02*
X186825888Y-61660000D01*
X186184888Y-60157000D02*
X186184888Y-61660000D01*
X185784888Y-63740000D02*
X185784888Y-65280000D01*
X186665888Y-60286000D02*
X186665888Y-61660000D01*
X186064888Y-63740000D02*
X186064888Y-65261000D01*
X186024888Y-63740000D02*
X186024888Y-65265000D01*
X186424888Y-60209000D02*
X186424888Y-61660000D01*
X186745888Y-63740000D02*
X186745888Y-65082000D01*
X186865888Y-63740000D02*
X186865888Y-65029000D01*
X188025888Y-61449000D02*
X188025888Y-63951000D01*
X187585888Y-60874000D02*
X187585888Y-61660000D01*
X188105888Y-61602000D02*
X188105888Y-63798000D01*
X187425888Y-60729000D02*
X187425888Y-61660000D01*
X186705888Y-63740000D02*
X186705888Y-65098000D01*
X188145888Y-61689000D02*
X188145888Y-63711000D01*
X187145888Y-60525000D02*
X187145888Y-61660000D01*
X185864888Y-63740000D02*
X185864888Y-65278000D01*
X188225888Y-61895000D02*
X188225888Y-63505000D01*
X187505888Y-60799000D02*
X187505888Y-61660000D01*
X187505888Y-63740000D02*
X187505888Y-64601000D01*
X185824888Y-60121000D02*
X185824888Y-61660000D01*
X187025888Y-60453000D02*
X187025888Y-61660000D01*
X187865888Y-61200000D02*
X187865888Y-64200000D01*
X188185888Y-61785000D02*
X188185888Y-63615000D01*
X186304888Y-63740000D02*
X186304888Y-65220000D01*
X187785888Y-61095000D02*
X187785888Y-64305000D01*
X186825888Y-63740000D02*
X186825888Y-65048000D01*
X186705888Y-60302000D02*
X186705888Y-61660000D01*
X187545888Y-60836000D02*
X187545888Y-61660000D01*
X185944888Y-60127000D02*
X185944888Y-61660000D01*
X186224888Y-63740000D02*
X186224888Y-65236000D01*
X187305888Y-63740000D02*
X187305888Y-64765000D01*
X187665888Y-63740000D02*
X187665888Y-64443000D01*
X188345888Y-62416000D02*
X188345888Y-62984000D01*
X187185888Y-60551000D02*
X187185888Y-61660000D01*
X185944888Y-63740000D02*
X185944888Y-65273000D01*
X187465888Y-60763000D02*
X187465888Y-61660000D01*
X187425888Y-63740000D02*
X187425888Y-64671000D01*
X186384888Y-60199000D02*
X186384888Y-61660000D01*
X186344888Y-63740000D02*
X186344888Y-65211000D01*
X186224888Y-60164000D02*
X186224888Y-61660000D01*
X187745888Y-63740000D02*
X187745888Y-64353000D01*
X187065888Y-63740000D02*
X187065888Y-64924000D01*
X185744888Y-60120000D02*
X185744888Y-61660000D01*
X187465888Y-63740000D02*
X187465888Y-64637000D01*
X187745888Y-61047000D02*
X187745888Y-61660000D01*
X182940113Y-61225000D02*
X183440113Y-61225000D01*
X186865888Y-60371000D02*
X186865888Y-61660000D01*
X186264888Y-63740000D02*
X186264888Y-65228000D01*
X187305888Y-60635000D02*
X187305888Y-61660000D01*
X186064888Y-60139000D02*
X186064888Y-61660000D01*
X187105888Y-63740000D02*
X187105888Y-64900000D01*
X187385888Y-63740000D02*
X187385888Y-64704000D01*
X186184888Y-63740000D02*
X186184888Y-65243000D01*
X186585888Y-60258000D02*
X186585888Y-61660000D01*
X187625888Y-63740000D02*
X187625888Y-64485000D01*
X187345888Y-60665000D02*
X187345888Y-61660000D01*
X187705888Y-63740000D02*
X187705888Y-64399000D01*
X187385888Y-60696000D02*
X187385888Y-61660000D01*
X185904888Y-63740000D02*
X185904888Y-65276000D01*
X186344888Y-60189000D02*
X186344888Y-61660000D01*
X183190113Y-60975000D02*
X183190113Y-61475000D01*
X185864888Y-60122000D02*
X185864888Y-61660000D01*
X186905888Y-63740000D02*
X186905888Y-65010000D01*
X186985888Y-60432000D02*
X186985888Y-61660000D01*
X186785888Y-63740000D02*
X186785888Y-65065000D01*
X186144888Y-63740000D02*
X186144888Y-65250000D01*
X186505888Y-63740000D02*
X186505888Y-65168000D01*
X187105888Y-60500000D02*
X187105888Y-61660000D01*
X187705888Y-61001000D02*
X187705888Y-61660000D01*
X186024888Y-60135000D02*
X186024888Y-61660000D01*
X186785888Y-60335000D02*
X186785888Y-61660000D01*
X186505888Y-60232000D02*
X186505888Y-61660000D01*
X186985888Y-63740000D02*
X186985888Y-64968000D01*
X185984888Y-60131000D02*
X185984888Y-61660000D01*
X187905888Y-61257000D02*
X187905888Y-64143000D01*
X188065888Y-61522000D02*
X188065888Y-63878000D01*
X186585888Y-63740000D02*
X186585888Y-65142000D01*
X186144888Y-60150000D02*
X186144888Y-61660000D01*
X188364888Y-62700000D02*
G75*
G03*
X188364888Y-62700000I-2620000J0D01*
G01*
%TO.C,C6*%
X128467401Y-102433000D02*
X128467401Y-103660000D01*
X129388401Y-105340000D02*
X129388401Y-106235000D01*
X129428401Y-105340000D02*
X129428401Y-106208000D01*
X128707401Y-102475000D02*
X128707401Y-103660000D01*
X128587401Y-102450000D02*
X128587401Y-103660000D01*
X130068401Y-103487000D02*
X130068401Y-105513000D01*
X129788401Y-105340000D02*
X129788401Y-105896000D01*
X129308401Y-105340000D02*
X129308401Y-106285000D01*
X129108401Y-102611000D02*
X129108401Y-103660000D01*
X129268401Y-102692000D02*
X129268401Y-103660000D01*
X128827401Y-105340000D02*
X128827401Y-106494000D01*
X129548401Y-105340000D02*
X129548401Y-106119000D01*
X128867401Y-102518000D02*
X128867401Y-103660000D01*
X129188401Y-102649000D02*
X129188401Y-103660000D01*
X129748401Y-103062000D02*
X129748401Y-103660000D01*
X129268401Y-105340000D02*
X129268401Y-106308000D01*
X129868401Y-105340000D02*
X129868401Y-105804000D01*
X130028401Y-103420000D02*
X130028401Y-103660000D01*
X128787401Y-105340000D02*
X128787401Y-106505000D01*
X128747401Y-102484000D02*
X128747401Y-103660000D01*
X129068401Y-105340000D02*
X129068401Y-106407000D01*
X128307401Y-102421000D02*
X128307401Y-106579000D01*
X128387401Y-102426000D02*
X128387401Y-106574000D01*
X129748401Y-105340000D02*
X129748401Y-105938000D01*
X130108401Y-103560000D02*
X130108401Y-105440000D01*
X130268401Y-103963000D02*
X130268401Y-105037000D01*
X129948401Y-103300000D02*
X129948401Y-103660000D01*
X129348401Y-102740000D02*
X129348401Y-103660000D01*
X129588401Y-102913000D02*
X129588401Y-103660000D01*
X129628401Y-102948000D02*
X129628401Y-103660000D01*
X129508401Y-105340000D02*
X129508401Y-106150000D01*
X129148401Y-102630000D02*
X129148401Y-103660000D01*
X128347401Y-102423000D02*
X128347401Y-106577000D01*
X129188401Y-105340000D02*
X129188401Y-106351000D01*
X128667401Y-102466000D02*
X128667401Y-103660000D01*
X128907401Y-105340000D02*
X128907401Y-106468000D01*
X128427401Y-102429000D02*
X128427401Y-103660000D01*
X129228401Y-102670000D02*
X129228401Y-103660000D01*
X128988401Y-105340000D02*
X128988401Y-106440000D01*
X129308401Y-102715000D02*
X129308401Y-103660000D01*
X129668401Y-102984000D02*
X129668401Y-103660000D01*
X128267401Y-102420000D02*
X128267401Y-106580000D01*
X129868401Y-103196000D02*
X129868401Y-103660000D01*
X128507401Y-105340000D02*
X128507401Y-106562000D01*
X128827401Y-102506000D02*
X128827401Y-103660000D01*
X128547401Y-105340000D02*
X128547401Y-106556000D01*
X130308401Y-104130000D02*
X130308401Y-104870000D01*
X125957600Y-103305000D02*
X126357600Y-103305000D01*
X129028401Y-102576000D02*
X129028401Y-103660000D01*
X129828401Y-103149000D02*
X129828401Y-103660000D01*
X129228401Y-105340000D02*
X129228401Y-106330000D01*
X128988401Y-102560000D02*
X128988401Y-103660000D01*
X129108401Y-105340000D02*
X129108401Y-106389000D01*
X128907401Y-102532000D02*
X128907401Y-103660000D01*
X126157600Y-103105000D02*
X126157600Y-103505000D01*
X129628401Y-105340000D02*
X129628401Y-106052000D01*
X128747401Y-105340000D02*
X128747401Y-106516000D01*
X128667401Y-105340000D02*
X128667401Y-106534000D01*
X129668401Y-105340000D02*
X129668401Y-106016000D01*
X129468401Y-102820000D02*
X129468401Y-103660000D01*
X128507401Y-102438000D02*
X128507401Y-103660000D01*
X128707401Y-105340000D02*
X128707401Y-106525000D01*
X129468401Y-105340000D02*
X129468401Y-106180000D01*
X128547401Y-102444000D02*
X128547401Y-103660000D01*
X129348401Y-105340000D02*
X129348401Y-106260000D01*
X129948401Y-105340000D02*
X129948401Y-105700000D01*
X129028401Y-105340000D02*
X129028401Y-106424000D01*
X129988401Y-103358000D02*
X129988401Y-103660000D01*
X128787401Y-102495000D02*
X128787401Y-103660000D01*
X129508401Y-102850000D02*
X129508401Y-103660000D01*
X129588401Y-105340000D02*
X129588401Y-106087000D01*
X129788401Y-103104000D02*
X129788401Y-103660000D01*
X130228401Y-103836000D02*
X130228401Y-105164000D01*
X129988401Y-105340000D02*
X129988401Y-105642000D01*
X130148401Y-103641000D02*
X130148401Y-105359000D01*
X128867401Y-105340000D02*
X128867401Y-106482000D01*
X128627401Y-105340000D02*
X128627401Y-106542000D01*
X128627401Y-102458000D02*
X128627401Y-103660000D01*
X128467401Y-105340000D02*
X128467401Y-106567000D01*
X129828401Y-105340000D02*
X129828401Y-105851000D01*
X129708401Y-103022000D02*
X129708401Y-103660000D01*
X129908401Y-105340000D02*
X129908401Y-105754000D01*
X128948401Y-105340000D02*
X128948401Y-106454000D01*
X128427401Y-105340000D02*
X128427401Y-106571000D01*
X129388401Y-102765000D02*
X129388401Y-103660000D01*
X128587401Y-105340000D02*
X128587401Y-106550000D01*
X128948401Y-102546000D02*
X128948401Y-103660000D01*
X129148401Y-105340000D02*
X129148401Y-106370000D01*
X130188401Y-103732000D02*
X130188401Y-105268000D01*
X128227401Y-102420000D02*
X128227401Y-106580000D01*
X130028401Y-105340000D02*
X130028401Y-105580000D01*
X129908401Y-103246000D02*
X129908401Y-103660000D01*
X129708401Y-105340000D02*
X129708401Y-105978000D01*
X129068401Y-102593000D02*
X129068401Y-103660000D01*
X129428401Y-102792000D02*
X129428401Y-103660000D01*
X129548401Y-102881000D02*
X129548401Y-103660000D01*
X130347401Y-104500000D02*
G75*
G03*
X130347401Y-104500000I-2120000J0D01*
G01*
D10*
%TO.C,U3*%
X136625000Y-66350000D02*
X135025000Y-66350000D01*
X142375000Y-65775000D02*
X142375000Y-66425000D01*
X136625000Y-76425000D02*
X136625000Y-75775000D01*
X136625000Y-65775000D02*
X136625000Y-66350000D01*
X142375000Y-76425000D02*
X142375000Y-75775000D01*
X136625000Y-65775000D02*
X142375000Y-65775000D01*
X136625000Y-76425000D02*
X142375000Y-76425000D01*
D11*
%TO.C,C4*%
X139067401Y-105440000D02*
X139067401Y-106680000D01*
X140828401Y-103520000D02*
X140828401Y-105680000D01*
X140468401Y-105440000D02*
X140468401Y-106116000D01*
X140308401Y-105440000D02*
X140308401Y-106250000D01*
X139227401Y-102529000D02*
X139227401Y-103760000D01*
X139908401Y-102711000D02*
X139908401Y-103760000D01*
X139627401Y-105440000D02*
X139627401Y-106594000D01*
X139347401Y-102544000D02*
X139347401Y-103760000D01*
X140068401Y-102792000D02*
X140068401Y-103760000D01*
X136757600Y-103405000D02*
X137157600Y-103405000D01*
X141028401Y-103936000D02*
X141028401Y-105264000D01*
X139707401Y-105440000D02*
X139707401Y-106568000D01*
X139387401Y-102550000D02*
X139387401Y-103760000D01*
X140868401Y-103587000D02*
X140868401Y-105613000D01*
X139507401Y-102575000D02*
X139507401Y-103760000D01*
X140748401Y-103400000D02*
X140748401Y-105800000D01*
X139908401Y-105440000D02*
X139908401Y-106489000D01*
X139828401Y-105440000D02*
X139828401Y-106524000D01*
X139147401Y-105440000D02*
X139147401Y-106677000D01*
X139667401Y-102618000D02*
X139667401Y-103760000D01*
X140228401Y-102892000D02*
X140228401Y-103760000D01*
X139988401Y-105440000D02*
X139988401Y-106451000D01*
X140188401Y-105440000D02*
X140188401Y-106335000D01*
X139748401Y-105440000D02*
X139748401Y-106554000D01*
X139748401Y-102646000D02*
X139748401Y-103760000D01*
X140788401Y-103458000D02*
X140788401Y-105742000D01*
X139868401Y-102693000D02*
X139868401Y-103760000D01*
X139267401Y-105440000D02*
X139267401Y-106667000D01*
X140428401Y-105440000D02*
X140428401Y-106152000D01*
X139107401Y-102521000D02*
X139107401Y-103760000D01*
X140308401Y-102950000D02*
X140308401Y-103760000D01*
X140028401Y-105440000D02*
X140028401Y-106430000D01*
X140108401Y-105440000D02*
X140108401Y-106385000D01*
X139347401Y-105440000D02*
X139347401Y-106656000D01*
X140388401Y-103013000D02*
X140388401Y-103760000D01*
X139828401Y-102676000D02*
X139828401Y-103760000D01*
X139187401Y-105440000D02*
X139187401Y-106674000D01*
X140228401Y-105440000D02*
X140228401Y-106308000D01*
X139948401Y-105440000D02*
X139948401Y-106470000D01*
X139547401Y-102584000D02*
X139547401Y-103760000D01*
X140428401Y-103048000D02*
X140428401Y-103760000D01*
X139227401Y-105440000D02*
X139227401Y-106671000D01*
X139427401Y-102558000D02*
X139427401Y-103760000D01*
X139107401Y-105440000D02*
X139107401Y-106679000D01*
X140628401Y-103249000D02*
X140628401Y-105951000D01*
X140268401Y-105440000D02*
X140268401Y-106280000D01*
X140508401Y-105440000D02*
X140508401Y-106078000D01*
X139948401Y-102730000D02*
X139948401Y-103760000D01*
X139988401Y-102749000D02*
X139988401Y-103760000D01*
X139868401Y-105440000D02*
X139868401Y-106507000D01*
X140988401Y-103832000D02*
X140988401Y-105368000D01*
X139307401Y-102538000D02*
X139307401Y-103760000D01*
X139387401Y-105440000D02*
X139387401Y-106650000D01*
X139187401Y-102526000D02*
X139187401Y-103760000D01*
X140548401Y-103162000D02*
X140548401Y-103760000D01*
X140028401Y-102770000D02*
X140028401Y-103760000D01*
X139067401Y-102520000D02*
X139067401Y-103760000D01*
X141108401Y-104230000D02*
X141108401Y-104970000D01*
X140188401Y-102865000D02*
X140188401Y-103760000D01*
X139667401Y-105440000D02*
X139667401Y-106582000D01*
X140268401Y-102920000D02*
X140268401Y-103760000D01*
X140948401Y-103741000D02*
X140948401Y-105459000D01*
X136957600Y-103205000D02*
X136957600Y-103605000D01*
X140708401Y-103346000D02*
X140708401Y-105854000D01*
X140668401Y-103296000D02*
X140668401Y-105904000D01*
X140508401Y-103122000D02*
X140508401Y-103760000D01*
X140588401Y-103204000D02*
X140588401Y-103760000D01*
X139307401Y-105440000D02*
X139307401Y-106662000D01*
X140468401Y-103084000D02*
X140468401Y-103760000D01*
X139627401Y-102606000D02*
X139627401Y-103760000D01*
X140348401Y-102981000D02*
X140348401Y-103760000D01*
X140068401Y-105440000D02*
X140068401Y-106408000D01*
X140108401Y-102815000D02*
X140108401Y-103760000D01*
X139267401Y-102533000D02*
X139267401Y-103760000D01*
X140348401Y-105440000D02*
X140348401Y-106219000D01*
X140148401Y-102840000D02*
X140148401Y-103760000D01*
X140148401Y-105440000D02*
X140148401Y-106360000D01*
X139788401Y-105440000D02*
X139788401Y-106540000D01*
X140548401Y-105440000D02*
X140548401Y-106038000D01*
X140388401Y-105440000D02*
X140388401Y-106187000D01*
X139587401Y-102595000D02*
X139587401Y-103760000D01*
X139507401Y-105440000D02*
X139507401Y-106625000D01*
X139547401Y-105440000D02*
X139547401Y-106616000D01*
X139467401Y-102566000D02*
X139467401Y-103760000D01*
X141068401Y-104063000D02*
X141068401Y-105137000D01*
X139467401Y-105440000D02*
X139467401Y-106634000D01*
X139788401Y-102660000D02*
X139788401Y-103760000D01*
X139027401Y-102520000D02*
X139027401Y-103760000D01*
X140908401Y-103660000D02*
X140908401Y-105540000D01*
X139027401Y-105440000D02*
X139027401Y-106680000D01*
X139587401Y-105440000D02*
X139587401Y-106605000D01*
X139707401Y-102632000D02*
X139707401Y-103760000D01*
X139147401Y-102523000D02*
X139147401Y-103760000D01*
X140588401Y-105440000D02*
X140588401Y-105996000D01*
X139427401Y-105440000D02*
X139427401Y-106642000D01*
X141147401Y-104600000D02*
G75*
G03*
X141147401Y-104600000I-2120000J0D01*
G01*
%TO.C,J2*%
X198260000Y-136400000D02*
X198760000Y-136400000D01*
X197760000Y-137210000D02*
X197760000Y-138710000D01*
X186040000Y-136400000D02*
X186540000Y-136400000D01*
X186540000Y-135190000D02*
X198260000Y-135190000D01*
X198260000Y-135190000D02*
X198260000Y-136400000D01*
X198760000Y-134690000D02*
X186040000Y-134690000D01*
X187040000Y-137210000D02*
X187040000Y-138710000D01*
X186040000Y-134690000D02*
X186040000Y-138710000D01*
X198760000Y-138710000D02*
X198760000Y-134690000D01*
X185740000Y-139010000D02*
X188240000Y-139010000D01*
X185740000Y-136510000D02*
X185740000Y-139010000D01*
X186040000Y-138710000D02*
X198760000Y-138710000D01*
X186040000Y-137210000D02*
X187040000Y-137210000D01*
X198760000Y-137210000D02*
X197760000Y-137210000D01*
X186540000Y-136400000D02*
X186540000Y-135190000D01*
%TO.C,J5*%
X198410000Y-75760000D02*
X199910000Y-75760000D01*
X196390000Y-64540000D02*
X197600000Y-64540000D01*
X197600000Y-64540000D02*
X197600000Y-64040000D01*
X195890000Y-64040000D02*
X195890000Y-76760000D01*
X198410000Y-76760000D02*
X198410000Y-75760000D01*
X198410000Y-65040000D02*
X199910000Y-65040000D01*
X197600000Y-76760000D02*
X197600000Y-76260000D01*
X200210000Y-77060000D02*
X200210000Y-74560000D01*
X197710000Y-77060000D02*
X200210000Y-77060000D01*
X197600000Y-76260000D02*
X196390000Y-76260000D01*
X199910000Y-64040000D02*
X195890000Y-64040000D01*
X198410000Y-64040000D02*
X198410000Y-65040000D01*
X196390000Y-76260000D02*
X196390000Y-64540000D01*
X195890000Y-76760000D02*
X199910000Y-76760000D01*
X199910000Y-76760000D02*
X199910000Y-64040000D01*
%TO.C,D3*%
X131715000Y-82150000D02*
X131845000Y-82150000D01*
X131845000Y-84690000D02*
X131715000Y-84690000D01*
X131715000Y-84690000D02*
X131845000Y-84690000D01*
X131715000Y-85380000D02*
X130595000Y-85380000D01*
X131845000Y-82150000D02*
X131845000Y-82150000D01*
X130595000Y-85380000D02*
X130595000Y-84980000D01*
X131715000Y-81860000D02*
X131715000Y-84980000D01*
X131845000Y-84690000D02*
X131845000Y-84690000D01*
X131715000Y-82150000D02*
X131715000Y-82150000D01*
X131715000Y-84690000D02*
X131715000Y-84690000D01*
X131715000Y-84980000D02*
X127855000Y-84980000D01*
X130595000Y-84980000D02*
X131715000Y-84980000D01*
X131715000Y-84980000D02*
X131715000Y-85380000D01*
X131715000Y-81860000D02*
X127855000Y-81860000D01*
X131845000Y-82150000D02*
X131715000Y-82150000D01*
X127855000Y-81860000D02*
G75*
G03*
X127855000Y-84980000I0J-1560000D01*
G01*
%TO.C,C2*%
X136041000Y-96435000D02*
X136041000Y-97760000D01*
X135721000Y-99840000D02*
X135721000Y-101280000D01*
X135640000Y-99840000D02*
X135640000Y-101301000D01*
X135040000Y-96220000D02*
X135040000Y-97760000D01*
X136561000Y-99840000D02*
X136561000Y-100865000D01*
X136561000Y-96735000D02*
X136561000Y-97760000D01*
X136681000Y-96829000D02*
X136681000Y-97760000D01*
X136481000Y-99840000D02*
X136481000Y-100922000D01*
X135320000Y-99840000D02*
X135320000Y-101361000D01*
X136521000Y-96705000D02*
X136521000Y-97760000D01*
X136201000Y-99840000D02*
X136201000Y-101090000D01*
X135360000Y-99840000D02*
X135360000Y-101356000D01*
X135961000Y-96402000D02*
X135961000Y-97760000D01*
X135240000Y-99840000D02*
X135240000Y-101369000D01*
X135280000Y-99840000D02*
X135280000Y-101365000D01*
X137161000Y-97357000D02*
X137161000Y-100243000D01*
X135400000Y-96250000D02*
X135400000Y-97760000D01*
X137001000Y-99840000D02*
X137001000Y-100453000D01*
X135480000Y-96264000D02*
X135480000Y-97760000D01*
X136601000Y-99840000D02*
X136601000Y-100835000D01*
X135160000Y-99840000D02*
X135160000Y-101376000D01*
X136121000Y-99840000D02*
X136121000Y-101129000D01*
X135360000Y-96244000D02*
X135360000Y-97760000D01*
X136801000Y-96936000D02*
X136801000Y-97760000D01*
X132195225Y-97325000D02*
X132695225Y-97325000D01*
X136841000Y-96974000D02*
X136841000Y-97760000D01*
X135841000Y-96358000D02*
X135841000Y-97760000D01*
X135320000Y-96239000D02*
X135320000Y-97760000D01*
X136721000Y-99840000D02*
X136721000Y-100737000D01*
X135080000Y-96221000D02*
X135080000Y-97760000D01*
X135200000Y-99840000D02*
X135200000Y-101373000D01*
X136361000Y-96600000D02*
X136361000Y-97760000D01*
X136081000Y-96452000D02*
X136081000Y-97760000D01*
X137081000Y-97246000D02*
X137081000Y-100354000D01*
X136041000Y-99840000D02*
X136041000Y-101165000D01*
X135881000Y-96372000D02*
X135881000Y-97760000D01*
X137321000Y-97622000D02*
X137321000Y-99978000D01*
X136401000Y-99840000D02*
X136401000Y-100975000D01*
X136201000Y-96510000D02*
X136201000Y-97760000D01*
X136121000Y-96471000D02*
X136121000Y-97760000D01*
X135921000Y-99840000D02*
X135921000Y-101214000D01*
X136601000Y-96765000D02*
X136601000Y-97760000D01*
X132445225Y-97075000D02*
X132445225Y-97575000D01*
X136361000Y-99840000D02*
X136361000Y-101000000D01*
X136081000Y-99840000D02*
X136081000Y-101148000D01*
X135801000Y-99840000D02*
X135801000Y-101255000D01*
X136321000Y-99840000D02*
X136321000Y-101024000D01*
X137281000Y-97549000D02*
X137281000Y-100051000D01*
X135120000Y-99840000D02*
X135120000Y-101378000D01*
X135200000Y-96227000D02*
X135200000Y-97760000D01*
X135801000Y-96345000D02*
X135801000Y-97760000D01*
X137401000Y-97789000D02*
X137401000Y-99811000D01*
X135160000Y-96224000D02*
X135160000Y-97760000D01*
X137201000Y-97417000D02*
X137201000Y-100183000D01*
X137481000Y-97995000D02*
X137481000Y-99605000D01*
X135841000Y-99840000D02*
X135841000Y-101242000D01*
X136961000Y-99840000D02*
X136961000Y-100499000D01*
X136521000Y-99840000D02*
X136521000Y-100895000D01*
X135440000Y-99840000D02*
X135440000Y-101343000D01*
X135600000Y-99840000D02*
X135600000Y-101311000D01*
X136641000Y-96796000D02*
X136641000Y-97760000D01*
X137001000Y-97147000D02*
X137001000Y-97760000D01*
X136881000Y-99840000D02*
X136881000Y-100585000D01*
X135761000Y-99840000D02*
X135761000Y-101268000D01*
X136441000Y-96651000D02*
X136441000Y-97760000D01*
X135040000Y-99840000D02*
X135040000Y-101380000D01*
X136761000Y-96899000D02*
X136761000Y-97760000D01*
X136681000Y-99840000D02*
X136681000Y-100771000D01*
X135120000Y-96222000D02*
X135120000Y-97760000D01*
X136961000Y-97101000D02*
X136961000Y-97760000D01*
X135520000Y-99840000D02*
X135520000Y-101328000D01*
X136721000Y-96863000D02*
X136721000Y-97760000D01*
X136641000Y-99840000D02*
X136641000Y-100804000D01*
X136161000Y-99840000D02*
X136161000Y-101110000D01*
X136481000Y-96678000D02*
X136481000Y-97760000D01*
X135600000Y-96289000D02*
X135600000Y-97760000D01*
X136801000Y-99840000D02*
X136801000Y-100664000D01*
X135440000Y-96257000D02*
X135440000Y-97760000D01*
X136001000Y-96418000D02*
X136001000Y-97760000D01*
X136281000Y-99840000D02*
X136281000Y-101047000D01*
X136921000Y-99840000D02*
X136921000Y-100543000D01*
X137521000Y-98123000D02*
X137521000Y-99477000D01*
X135080000Y-99840000D02*
X135080000Y-101379000D01*
X135280000Y-96235000D02*
X135280000Y-97760000D01*
X136001000Y-99840000D02*
X136001000Y-101182000D01*
X135761000Y-96332000D02*
X135761000Y-97760000D01*
X137121000Y-97300000D02*
X137121000Y-100300000D01*
X136441000Y-99840000D02*
X136441000Y-100949000D01*
X135560000Y-99840000D02*
X135560000Y-101320000D01*
X136161000Y-96490000D02*
X136161000Y-97760000D01*
X136321000Y-96576000D02*
X136321000Y-97760000D01*
X135400000Y-99840000D02*
X135400000Y-101350000D01*
X136401000Y-96625000D02*
X136401000Y-97760000D01*
X135480000Y-99840000D02*
X135480000Y-101336000D01*
X136841000Y-99840000D02*
X136841000Y-100626000D01*
X135680000Y-99840000D02*
X135680000Y-101291000D01*
X135721000Y-96320000D02*
X135721000Y-97760000D01*
X137041000Y-97195000D02*
X137041000Y-100405000D01*
X137601000Y-98516000D02*
X137601000Y-99084000D01*
X135961000Y-99840000D02*
X135961000Y-101198000D01*
X135921000Y-96386000D02*
X135921000Y-97760000D01*
X136281000Y-96553000D02*
X136281000Y-97760000D01*
X137361000Y-97702000D02*
X137361000Y-99898000D01*
X137561000Y-98282000D02*
X137561000Y-99318000D01*
X136241000Y-99840000D02*
X136241000Y-101068000D01*
X136761000Y-99840000D02*
X136761000Y-100701000D01*
X135240000Y-96231000D02*
X135240000Y-97760000D01*
X135000000Y-99840000D02*
X135000000Y-101380000D01*
X136881000Y-97015000D02*
X136881000Y-97760000D01*
X136921000Y-97057000D02*
X136921000Y-97760000D01*
X135520000Y-96272000D02*
X135520000Y-97760000D01*
X135560000Y-96280000D02*
X135560000Y-97760000D01*
X136241000Y-96532000D02*
X136241000Y-97760000D01*
X135881000Y-99840000D02*
X135881000Y-101228000D01*
X135000000Y-96220000D02*
X135000000Y-97760000D01*
X137441000Y-97885000D02*
X137441000Y-99715000D01*
X135680000Y-96309000D02*
X135680000Y-97760000D01*
X137241000Y-97481000D02*
X137241000Y-100119000D01*
X135640000Y-96299000D02*
X135640000Y-97760000D01*
X137620000Y-98800000D02*
G75*
G03*
X137620000Y-98800000I-2620000J0D01*
G01*
%TO.C,D4*%
X131845000Y-89750000D02*
X131845000Y-89750000D01*
X131715000Y-92980000D02*
X130595000Y-92980000D01*
X131845000Y-89750000D02*
X131715000Y-89750000D01*
X130595000Y-92980000D02*
X130595000Y-92580000D01*
X131715000Y-89460000D02*
X127855000Y-89460000D01*
X131715000Y-92290000D02*
X131845000Y-92290000D01*
X131715000Y-92290000D02*
X131715000Y-92290000D01*
X131715000Y-89750000D02*
X131845000Y-89750000D01*
X131715000Y-92580000D02*
X131715000Y-92980000D01*
X130595000Y-92580000D02*
X131715000Y-92580000D01*
X131845000Y-92290000D02*
X131715000Y-92290000D01*
X131715000Y-92580000D02*
X127855000Y-92580000D01*
X131845000Y-92290000D02*
X131845000Y-92290000D01*
X131715000Y-89460000D02*
X131715000Y-92580000D01*
X131715000Y-89750000D02*
X131715000Y-89750000D01*
X127855000Y-89460000D02*
G75*
G03*
X127855000Y-92580000I0J-1560000D01*
G01*
%TO.C,J4*%
X194325000Y-98050000D02*
X194361000Y-98085000D01*
X194531000Y-97845000D02*
X194577000Y-97892000D01*
X200260000Y-106800000D02*
X200260000Y-96520000D01*
X196839000Y-100154000D02*
X196874000Y-100189000D01*
X200500000Y-107040000D02*
X200500000Y-106540000D01*
X199700000Y-106800000D02*
X199700000Y-96520000D01*
X196623000Y-100347000D02*
X196669000Y-100394000D01*
X199760000Y-107040000D02*
X200500000Y-107040000D01*
X193299000Y-106800000D02*
X193299000Y-96520000D01*
X190339000Y-106800000D02*
X190339000Y-96520000D01*
X198200000Y-106800000D02*
X198200000Y-96520000D01*
X190339000Y-96520000D02*
X200260000Y-96520000D01*
X190339000Y-106800000D02*
X200260000Y-106800000D01*
X194916000Y-105735000D02*
G75*
G03*
X196283042Y-105735427I684001J1534993D01*
G01*
X197280000Y-104200000D02*
G75*
G03*
X197134756Y-103516682I-1680000J0D01*
G01*
X197135000Y-104884000D02*
G75*
G03*
X197280253Y-104171195I-1535001J683999D01*
G01*
X194065000Y-103516000D02*
G75*
G03*
X194064573Y-104883042I1534993J-684001D01*
G01*
X196284000Y-102664999D02*
G75*
G03*
X194916958Y-102664573I-684000J-1535001D01*
G01*
X197280000Y-99120000D02*
G75*
G03*
X197280000Y-99120000I-1680000J0D01*
G01*
%TD*%
M02*
